<?xml version="1.0" encoding="UTF-8"?>
<svg version="1.1" xmlns="http://www.w3.org/2000/svg" width="512" height="512">
<path d="M0 0 C1.01790619 0.00215515 2.03581238 0.0043103 3.08456421 0.00653076 C17.69363523 0.05620146 32.02575853 0.30709809 46.375 3.3125 C47.34985352 3.51117676 48.32470703 3.70985352 49.32910156 3.91455078 C97.7109774 14.03517194 141.69928269 35.9516877 177.375 70.3125 C178.3640332 71.26068604 178.3640332 71.26068604 179.37304688 72.22802734 C188.86130305 81.37247479 197.6012044 90.66984009 205.375 101.3125 C206.23306152 102.46355017 207.09113451 103.61459177 207.94921875 104.765625 C213.98736829 112.95680614 219.34595521 121.47054105 224.375 130.3125 C224.73948242 130.94430176 225.10396484 131.57610352 225.47949219 132.22705078 C247.08534998 169.97532572 256.85198095 212.74189997 256.6875 255.9375 C256.68534485 256.95540619 256.6831897 257.97331238 256.68096924 259.02206421 C256.63129854 273.63113523 256.38040191 287.96325853 253.375 302.3125 C253.07698486 303.77478027 253.07698486 303.77478027 252.77294922 305.26660156 C242.65232806 353.6484774 220.7358123 397.63678269 186.375 433.3125 C185.74287598 433.97185547 185.11075195 434.63121094 184.45947266 435.31054688 C175.31502521 444.79880305 166.01765991 453.5387044 155.375 461.3125 C154.22394983 462.17056152 153.07290823 463.02863451 151.921875 463.88671875 C143.73224019 469.92427396 135.22961724 475.30707302 126.375 480.3125 C125.66778809 480.7146875 124.96057617 481.116875 124.23193359 481.53125 C101.09654164 494.5566741 75.92537591 503.30551461 49.9375 508.625 C49.21860596 508.77235596 48.49971191 508.91971191 47.7590332 509.0715332 C33.08339502 511.86090125 18.55831162 512.66142619 3.64770508 512.62817383 C0.70811513 512.6250221 -2.2304558 512.64854926 -5.16992188 512.67382812 C-18.54306192 512.71848737 -31.43916711 511.51301542 -44.625 509.3125 C-46.33055054 509.03031616 -46.33055054 509.03031616 -48.07055664 508.74243164 C-91.33802759 500.97044532 -132.38793216 480.98345309 -165.625 452.3125 C-166.37007813 451.67828125 -167.11515625 451.0440625 -167.8828125 450.390625 C-181.38779833 438.57948485 -194.05918743 425.82889772 -204.625 411.3125 C-205.48149066 410.16255169 -206.33826433 409.01281411 -207.1953125 407.86328125 C-213.23534209 399.67315742 -218.61867614 391.16870382 -223.625 382.3125 C-224.0271875 381.60528809 -224.429375 380.89807617 -224.84375 380.16943359 C-237.8691741 357.03404164 -246.61801461 331.86287591 -251.9375 305.875 C-252.08485596 305.15610596 -252.23221191 304.43721191 -252.3840332 303.6965332 C-255.35789088 288.05024391 -255.99800362 272.57681954 -255.9375 256.6875 C-255.93534485 255.66959381 -255.9331897 254.65168762 -255.93096924 253.60293579 C-255.88129854 238.99386477 -255.63040191 224.66174147 -252.625 210.3125 C-252.42632324 209.33764648 -252.22764648 208.36279297 -252.02294922 207.35839844 C-241.90232806 158.9765226 -219.9858123 114.98821731 -185.625 79.3125 C-184.99287598 78.65314453 -184.36075195 77.99378906 -183.70947266 77.31445312 C-174.56502521 67.82619695 -165.26765991 59.0862956 -154.625 51.3125 C-153.47394983 50.45443848 -152.32290823 49.59636549 -151.171875 48.73828125 C-142.98224019 42.70072604 -134.47961724 37.31792698 -125.625 32.3125 C-124.91778809 31.9103125 -124.21057617 31.508125 -123.48193359 31.09375 C-100.34654164 18.0683259 -75.17537591 9.31948539 -49.1875 4 C-48.46860596 3.85264404 -47.74971191 3.70528809 -47.0090332 3.5534668 C-31.36274391 0.57960912 -15.88931954 -0.06050362 0 0 Z " fill="#CD394F" transform="translate(255.625,-0.3125)"/>
<path d="M0 0 C3.17631987 1.45435891 5.04951518 3.98547073 7.2578125 6.6015625 C20.30340031 21.30903627 37.73273568 28.45551109 57.1328125 29.9765625 C68.6837297 30.65971496 79.71306865 30.46259074 90.94140625 27.53515625 C95.68680852 26.70456564 99.45696321 27.11619345 103.7578125 29.32421875 C119.30356597 40.54886641 127.01157688 55.78064404 130.4453125 74.4140625 C130.68631866 75.93306461 130.92062789 77.45326703 131.1328125 78.9765625 C132.4528125 79.3065625 133.7728125 79.6365625 135.1328125 79.9765625 C135.32617188 79.38488281 135.51953125 78.79320312 135.71875 78.18359375 C137.07695969 74.061898 138.45331835 69.9815101 140.1328125 65.9765625 C146.73302418 67.13159954 150.36340492 71.78938226 154.1328125 76.9765625 C157.17428054 82.98049941 156.93275719 89.41987301 156.1328125 95.9765625 C153.84179636 102.36108543 150.1462209 106.6819388 144.35546875 110.13671875 C141.33399003 111.27840227 138.32966717 111.60340377 135.1328125 111.9765625 C135.13023437 112.92273438 135.12765625 113.86890625 135.125 114.84375 C134.65935789 136.3597216 125.50540137 156.15883215 111.1328125 171.9765625 C110.58238281 172.60820312 110.03195312 173.23984375 109.46484375 173.890625 C96.430397 187.98713778 74.89991674 198.99152824 55.66015625 200.12182617 C26.98535365 200.37321726 2.70335151 195.19044729 -18.2890625 174.58984375 C-19.13984375 173.72746094 -19.990625 172.86507812 -20.8671875 171.9765625 C-21.53234375 171.31011719 -22.1975 170.64367187 -22.8828125 169.95703125 C-36.1297032 155.78524502 -44.9632435 135.01663428 -45.0546875 115.5390625 C-44.961875 113.775625 -44.961875 113.775625 -44.8671875 111.9765625 C-46.0221875 111.9353125 -47.1771875 111.8940625 -48.3671875 111.8515625 C-53.69509127 111.14431864 -57.18686383 108.82952395 -60.8671875 104.9765625 C-65.91427864 98.09638741 -66.89627897 91.33648535 -65.8671875 82.9765625 C-64.59491132 76.36748184 -61.03647847 72.14499075 -55.8671875 67.9765625 C-50.97821436 64.90897151 -50.97821436 64.90897151 -47.8125 65.1015625 C-45.8671875 65.9765625 -45.8671875 65.9765625 -44.77734375 68.2265625 C-44.21246506 70.05916432 -43.64996222 71.89250016 -43.08984375 73.7265625 C-42.05598272 76.25348881 -42.05598272 76.25348881 -39.23828125 76.7890625 C-38.06458984 76.881875 -38.06458984 76.881875 -36.8671875 76.9765625 C-36.81820312 75.68363281 -36.76921875 74.39070313 -36.71875 73.05859375 C-35.60217372 46.04994087 -29.96862925 24.86468298 -9.7109375 5.96484375 C-2.8530449 -0.03581228 -2.8530449 -0.03581228 0 0 Z " fill="#FBCBA6" transform="translate(210.8671875,187.0234375)"/>
<path d="M0 0 C0.89074219 -0.01224609 1.78148437 -0.02449219 2.69921875 -0.03710938 C24.7051153 -0.08501771 43.31294048 9.99290738 58.75 25.1875 C77.83803861 44.23618183 83.95617683 70.28064579 84.07144165 96.40130615 C84.08212732 107.06049621 83.10132661 116.9643338 80.27587891 127.24658203 C79.46855398 130.22626317 78.81598496 133.24155781 78.125 136.25 C77.00966851 140.92783149 77.00966851 140.92783149 74.75 143.1875 C72.75 143.0625 72.75 143.0625 70.75 142.1875 C68.8266496 139.11713336 68.37716229 136.31078144 67.9375 132.75 C65.52750103 117.60931942 58.31367928 103.32472129 45.75 94.1875 C45.16347656 93.7440625 44.57695312 93.300625 43.97265625 92.84375 C40.20076936 90.31205268 37.42575549 89.87916204 32.99609375 90.69140625 C31.88427734 90.93697266 31.88427734 90.93697266 30.75 91.1875 C6.83911552 96.43623074 -19.37456853 94.23535629 -40.41015625 81.234375 C-47.6356927 76.18544444 -54.06416606 70.33383213 -59.25 63.1875 C-68.09513459 64.88999272 -76.06534107 73.78051347 -81.1328125 80.79296875 C-91.46764695 96.65313677 -94.97679532 111.07679547 -95.8125 129.75 C-95.85568359 130.66330078 -95.89886719 131.57660156 -95.94335938 132.51757812 C-96.04811757 134.74077991 -96.15029017 136.96406707 -96.25 139.1875 C-97.9 139.5175 -99.55 139.8475 -101.25 140.1875 C-104.44227555 136.55818673 -105.73163553 132.56308549 -107.25 128.0625 C-107.51200195 127.29768311 -107.77400391 126.53286621 -108.04394531 125.74487305 C-108.78718953 123.56165101 -109.51894867 121.37482678 -110.25 119.1875 C-110.57484375 118.24777344 -110.8996875 117.30804688 -111.234375 116.33984375 C-117.36419234 97.60637138 -118.33143042 74.06518082 -110 56 C-101.58172172 40.38746609 -88.58313006 31.84216049 -72.1953125 26.12109375 C-67.75544045 24.81931823 -63.80712139 24.1485799 -59.1875 24.0625 C-53.51407806 23.62608293 -50.92205106 20.52260956 -47 16.66796875 C-34.2169718 5.13782257 -16.87525048 0.01200231 0 0 Z " fill="#7E5138" transform="translate(271.25,124.8125)"/>
<path d="M0 0 C1.65 0.66 3.3 1.32 5 2 C4.10102191 8.06810212 -0.85549154 11.87617144 -5 16 C-6.93398202 17.96224465 -8.86621988 19.92609746 -10.79663086 21.8918457 C-16.44693917 27.63995636 -22.11231502 33.37296626 -27.78656673 39.09743977 C-31.21299482 42.55528477 -34.63354686 46.01856578 -38.04174805 49.49438477 C-41.34767946 52.86545615 -44.66801198 56.22170106 -47.99887276 59.56813622 C-49.26362359 60.84396603 -50.52308487 62.12506219 -51.77708244 63.41146278 C-53.52901671 65.20689782 -55.29878596 66.98272291 -57.07397461 68.75512695 C-57.58689056 69.28961456 -58.09980652 69.82410217 -58.62826538 70.37478638 C-61.15479857 72.85870817 -62.65292182 73.95103654 -66.20278931 74.451828 C-70.13008846 73.81745901 -71.61720888 72.08162456 -74.37109375 69.25 C-74.85651138 68.75846436 -75.34192902 68.26692871 -75.84205627 67.76049805 C-77.38848366 66.18721665 -78.91261666 64.59414137 -80.4375 63 C-81.45763815 61.95831534 -82.47911163 60.9179366 -83.50195312 59.87890625 C-86.37073194 56.95242594 -89.18845848 53.98151269 -92 51 C-92.7645752 50.20980469 -93.52915039 49.41960937 -94.31689453 48.60546875 C-94.9664209 47.91066406 -95.61594727 47.21585937 -96.28515625 46.5 C-96.84211182 45.9121875 -97.39906738 45.324375 -97.97290039 44.71875 C-99 43 -99 43 -98.66967773 40.78125 C-98.33818726 39.89953125 -98.33818726 39.89953125 -98 39 C-96.22460938 38.32592773 -96.22460938 38.32592773 -94 38 C-92.22851562 39.06665039 -92.22851562 39.06665039 -90.40625 40.78515625 C-89.36404297 41.75799561 -89.36404297 41.75799561 -88.30078125 42.75048828 C-87.54152344 43.49282715 -86.78226563 44.23516602 -86 45 C-85.16855469 45.81065918 -84.33710938 46.62131836 -83.48046875 47.45654297 C-80.80230782 50.09949104 -78.14806556 52.76441638 -75.5 55.4375 C-74.5821875 56.35982422 -73.664375 57.28214844 -72.71875 58.23242188 C-70.47684945 60.48599899 -68.237334 62.74189075 -66 65 C-61.39590367 61.14902009 -57.01832588 57.16072823 -52.78930664 52.90283203 C-52.21282379 52.32649521 -51.63634094 51.75015839 -51.04238892 51.15635681 C-49.16259405 49.27587265 -47.28635307 47.39188591 -45.41015625 45.5078125 C-44.09758569 44.19337426 -42.78479224 42.87915856 -41.4717865 41.56515503 C-38.03536398 38.12493488 -34.60195663 34.68172107 -31.16918945 31.237854 C-27.65824499 27.71663589 -24.1444283 24.19828651 -20.63085938 20.6796875 C-13.75110788 13.78924732 -6.87454145 6.89563795 0 0 Z " fill="#F0BF9D" transform="translate(303,252)"/>
<path d="M0 0 C8.20854844 0.13029442 15.31735149 3.520357 21.234375 9.13671875 C26.7484244 15.69938011 29.80237112 22.76081872 29.46875 31.3515625 C29.0625 33.3125 29.0625 33.3125 27.0625 35.3125 C23.52678571 34.77678571 23.52678571 34.77678571 22.0625 33.3125 C21.81668645 31.62734443 21.59109058 29.93922422 21.375 28.25 C20.16696706 21.45150806 17.50211402 17.20590922 12.2421875 12.78125 C7.78127569 9.67486606 3.51514797 8.52332193 -1.8359375 7.76953125 C-3.9375 7.3125 -3.9375 7.3125 -5.9375 5.3125 C-5.24447145 0.7385116 -4.79783297 0.38078039 0 0 Z " fill="#3793C0" transform="translate(360.9375,101.6875)"/>
<path d="M0 0 C3.53571429 0.53571429 3.53571429 0.53571429 5 2 C5.69037042 10.69866725 3.73206031 17.90750053 -1.75 24.8125 C-6.86407535 30.28817663 -13.72959712 34.57944154 -21.30078125 35.18359375 C-25.76087297 35.30452128 -25.76087297 35.30452128 -28 35 C-28.66 34.34 -29.32 33.68 -30 33 C-29.46428571 29.46428571 -29.46428571 29.46428571 -28 28 C-26.48295806 27.7279379 -24.96109017 27.48260919 -23.4375 27.25 C-15.31633169 25.67217301 -9.68830203 21.75667058 -5 15 C-3.58406917 11.67256255 -2.97887405 8.84155534 -2.5 5.25 C-2 2 -2 2 0 0 Z " fill="#3693C0" transform="translate(385,375)"/>
<path d="M0 0 C3.53571429 0.53571429 3.53571429 0.53571429 5 2 C5.29734506 3.53677348 5.5627437 5.07977879 5.8125 6.625 C7.43347587 14.87083379 11.13971416 20.13543368 18 25 C22.16148112 27.24079753 26.36444006 27.45918467 31 28 C32 29 32 29 32.125 31.5 C32 34 32 34 31 35 C22.22134097 36.24142653 16.19133213 33.4036555 8.9921875 28.68359375 C3.10718583 24.21252105 0.29480239 17.88440717 -2 11 C-2.11632729 9.48233461 -2.17496239 7.9595654 -2.1875 6.4375 C-2.20167969 5.65246094 -2.21585937 4.86742187 -2.23046875 4.05859375 C-2 2 -2 2 0 0 Z " fill="#3693C0" transform="translate(124,375)"/>
<path d="M0 0 C1 1 1 1 1.125 3.5 C1 6 1 6 0 7 C-1.68515557 7.24581355 -3.37327578 7.47140942 -5.0625 7.6875 C-12.43970739 8.98879728 -17.15211412 12.47610313 -21.875 18.1875 C-24.45358433 22.03381643 -24.97446889 26.11527412 -25.54296875 30.64453125 C-26 33 -26 33 -28 35 C-31.53571429 34.46428571 -31.53571429 34.46428571 -33 33 C-34.39466857 24.57902646 -31.60350966 17.9592502 -27 11 C-19.92141896 2.73423556 -10.86352725 -1.31483167 0 0 Z " fill="#3694C1" transform="translate(155,102)"/>
</svg>
