<?xml version="1.0" encoding="UTF-8"?>
<svg version="1.1" xmlns="http://www.w3.org/2000/svg" width="512" height="512">
<path d="M0 0 C30.03429824 7.25054319 59.93518374 13.70000656 90.67578125 17.27734375 C91.91545654 17.43058105 91.91545654 17.43058105 93.18017578 17.58691406 C134.59953145 22.455489 179.95689005 8.097335 219.78924561 -1.47052002 C303.83897377 -21.65412365 303.83897377 -21.65412365 344.42578125 -23.59765625 C345.57578613 -23.65937012 346.72579102 -23.72108398 347.91064453 -23.78466797 C349.51915283 -23.84291748 349.51915283 -23.84291748 351.16015625 -23.90234375 C352.10600586 -23.94085449 353.05185547 -23.97936523 354.02636719 -24.01904297 C357.52634333 -23.62750491 360.1741672 -22.2242703 362.67578125 -19.72265625 C362.77589388 -17.9584063 362.80502064 -16.19010808 362.80720901 -14.42302132 C362.81105016 -13.26639303 362.8148913 -12.10976475 362.81884885 -10.91808712 C362.81798237 -9.63125149 362.81711588 -8.34441586 362.81622314 -7.01858521 C362.81880459 -5.65042565 362.82181713 -4.28226685 362.82522655 -2.91410911 C362.83332575 0.86316597 362.83508773 4.64042208 362.83582401 8.41770482 C362.83766951 12.48459083 362.84521426 16.55146688 362.85195923 20.61834717 C362.86556369 29.51903061 362.87157053 38.41970956 362.87596989 47.32040167 C362.87872869 52.87354599 362.88296537 58.42668856 362.88747406 63.9798317 C362.89966939 79.34199095 362.90996824 94.7041488 362.91334915 110.06631279 C362.91356872 111.05026992 362.91378828 112.03422705 362.9140145 113.04800106 C362.91423278 114.03436931 362.91445106 115.02073757 362.91467595 116.03699577 C362.91511942 118.03589432 362.91556599 120.03479286 362.91601562 122.03369141 C362.91623705 123.02522308 362.91645848 124.01675475 362.91668662 125.03833283 C362.92063634 141.11204826 362.93809448 157.1857184 362.96137515 173.25941633 C362.9850608 189.7452152 362.99754973 206.23099132 362.99871707 222.71680748 C362.99963539 231.97978754 363.00542712 241.2427086 363.02353668 250.50567245 C363.03890013 258.39204451 363.04408045 266.27833934 363.03579858 274.1647235 C363.0318787 278.19139014 363.03288638 282.21790109 363.04685593 286.2445488 C363.05951532 289.92709903 363.05846823 293.60937531 363.04626521 297.29192473 C363.04335692 299.26305655 363.05530404 301.23419275 363.06768727 303.20528781 C363.06109743 304.36713159 363.05450758 305.52897537 363.04771805 306.72602654 C363.04861368 308.23631048 363.04861368 308.23631048 363.04952741 309.77710521 C362.67578125 312.27734375 362.67578125 312.27734375 361.3400352 314.06180108 C349.79615739 322.49325236 318.17879777 314.32577778 304.67578125 312.27734375 C274.72510427 307.50643945 245.3174596 300.12898905 215.85174561 293.04083252 C149.51815917 276.52804946 149.51815917 276.52804946 81.67578125 276.27734375 C80.48033691 276.42703613 79.28489258 276.57672852 78.05322266 276.73095703 C45.96417534 280.92414974 14.55041656 288.81436716 -16.84661865 296.47741699 C-39.57211423 302.02329135 -62.25306296 307.37176102 -85.32421875 311.27734375 C-86.3611084 311.45297852 -87.39799805 311.62861328 -88.46630859 311.80957031 C-136.5074961 319.68570508 -136.5074961 319.68570508 -146.19921875 314.83984375 C-148.32421875 313.27734375 -148.32421875 313.27734375 -149.32421875 312.27734375 C-149.42433138 310.5130938 -149.45345814 308.74479558 -149.45564651 306.97770882 C-149.45948766 305.82108053 -149.4633288 304.66445225 -149.46728635 303.47277462 C-149.46641987 302.18593899 -149.46555338 300.89910336 -149.46466064 299.57327271 C-149.46724209 298.20511315 -149.47025463 296.83695435 -149.47366405 295.46879661 C-149.48176325 291.69152153 -149.48352523 287.91426542 -149.48426151 284.13698268 C-149.48610701 280.07009667 -149.49365176 276.00322062 -149.50039673 271.93634033 C-149.51400119 263.03565689 -149.52000803 254.13497794 -149.52440739 245.23428583 C-149.52716619 239.68114151 -149.53140287 234.12799894 -149.53591156 228.5748558 C-149.54810689 213.21269655 -149.55840574 197.8505387 -149.56178665 182.48837471 C-149.56200622 181.50441758 -149.56222578 180.52046045 -149.562452 179.50668644 C-149.56267028 178.52031819 -149.56288856 177.53394993 -149.56311345 176.51769173 C-149.56355692 174.51879318 -149.56400349 172.51989464 -149.56445312 170.52099609 C-149.56467455 169.52946442 -149.56489598 168.53793275 -149.56512412 167.51635467 C-149.56907384 151.44263924 -149.58653198 135.3689691 -149.60981265 119.29527117 C-149.6334983 102.8094723 -149.64598723 86.32369618 -149.64715457 69.83788002 C-149.64807289 60.57489996 -149.65386462 51.3119789 -149.67197418 42.04901505 C-149.68733763 34.16264299 -149.69251795 26.27634816 -149.68423608 18.389964 C-149.6803162 14.36329736 -149.68132388 10.33678641 -149.69529343 6.3101387 C-149.70795282 2.62758847 -149.70690573 -1.05468781 -149.69470271 -4.73723723 C-149.69179442 -6.70836905 -149.70374154 -8.67950525 -149.71612477 -10.65060031 C-149.70624001 -12.39336598 -149.70624001 -12.39336598 -149.69615555 -14.17133904 C-149.69675264 -15.178195 -149.69734972 -16.18505096 -149.69796491 -17.22241771 C-149.32421875 -19.72265625 -149.32421875 -19.72265625 -147.9884727 -21.50711358 C-121.34294509 -40.96855207 -29.9261914 -7.22511859 0 0 Z " fill="#4DC083" transform="translate(149.32421875,109.72265625)"/>
<path d="M0 0 C20.96730245 1.16485014 20.96730245 1.16485014 29.6875 2.375 C30.66533447 2.50729004 31.64316895 2.63958008 32.65063477 2.77587891 C39.80197579 3.77077625 46.84666502 5.01108013 53.90234375 6.55224609 C56.30545837 7.06520143 58.71437552 7.54312499 61.125 8.01953125 C74.17922525 10.62633301 87.08428171 13.70472398 99.98291016 16.98046875 C109.64359027 19.43122166 119.33218736 21.71938427 129.05297852 23.92163086 C135.18004681 25.31941753 141.2517236 26.84043863 147.3125 28.5 C188.34011486 39.55208179 231.96327044 45.85820543 274.21875 38.47412109 C277.1192466 37.97967197 280.02451986 37.55873231 282.9375 37.14453125 C312.31252572 32.74438562 341.33999662 25.01629606 370.0078125 17.34765625 C379.03222143 14.93912805 388.11620839 12.88513348 397.25 10.9375 C398.04949066 10.76602448 398.84898132 10.59454895 399.67269897 10.4178772 C416.99208207 6.70979231 434.30405925 3.52341251 451.875 1.25 C452.85637939 1.12197998 453.83775879 0.99395996 454.84887695 0.86206055 C455.78304443 0.74773682 456.71721191 0.63341309 457.6796875 0.515625 C458.49163574 0.41540039 459.30358398 0.31517578 460.14013672 0.21191406 C464.08324509 -0.08026778 468.0460812 0 472 0 C472 93.39 472 186.78 472 283 C466.37641723 277.37641723 466.37641723 277.37641723 463.94140625 274.0234375 C463.39790527 273.28005127 462.8544043 272.53666504 462.29443359 271.77075195 C461.43712646 270.58485474 461.43712646 270.58485474 460.5625 269.375 C459.31649824 267.6679016 458.0704018 265.96087231 456.82421875 264.25390625 C456.1904834 263.38266113 455.55674805 262.51141602 454.90380859 261.61376953 C451.90913978 257.5023404 448.89273815 253.40701149 445.875 249.3125 C445.29306885 248.52214355 444.7111377 247.73178711 444.11157227 246.91748047 C440.43262005 241.92605111 436.72737543 236.95534821 433 232 C426.87533593 223.85758351 420.83458734 215.65446463 414.79980469 207.4453125 C412.98681098 204.98208068 411.16981157 202.52185455 409.3515625 200.0625 C404.14277406 193.01391013 398.94420044 185.96237307 393.875 178.8125 C389.92162894 173.23876274 385.84975182 167.76233206 381.73730469 162.30517578 C376.02585548 154.72186149 370.40554912 147.07210273 364.78222656 139.42333984 C361.85769254 135.44677482 358.92864567 131.47353729 356 127.5 C354.83331112 125.91668304 353.66664447 124.33334969 352.5 122.75 C351.63375 121.574375 351.63375 121.574375 350.75 120.375 C345.5 113.25 345.5 113.25 343.7487793 110.87329102 C342.58624831 109.29560517 341.42365103 107.71796817 340.26098633 106.14038086 C337.28048844 102.09604621 334.30127242 98.05077703 331.32421875 94.00390625 C327.88724228 89.33266153 324.44594485 84.66463266 321 80 C320.2889209 79.03682861 320.2889209 79.03682861 319.56347656 78.05419922 C318.31612928 76.36722808 317.0652018 74.68299709 315.8125 73 C314.80123047 71.63875 314.80123047 71.63875 313.76953125 70.25 C310.72359616 66.23075209 310.72359616 66.23075209 306.25 64.3125 C298.18471686 66.01861759 293.38040144 76.54978587 288.85546875 82.9765625 C285.71440268 87.42520665 282.48615365 91.80775327 279.25 96.1875 C278.65759521 96.98969971 278.06519043 97.79189941 277.45483398 98.6184082 C276.24165873 100.26062727 275.02819667 101.9026345 273.81445312 103.54443359 C270.87205307 107.52649223 267.93635163 111.51348054 265 115.5 C263.83594846 117.07943516 262.67188595 118.65886223 261.5078125 120.23828125 C259.14656803 123.44263898 256.78741454 126.64852217 254.4296875 129.85546875 C248.9836296 137.2601966 243.52527742 144.65413308 238 152 C229.04445995 163.91034543 220.20924799 175.908391 211.5 188 C202.32407472 200.73952708 192.99843768 213.36662322 183.56079102 225.91333008 C179.46972177 231.35827835 175.4167323 236.8308487 171.375 242.3125 C170.77042969 243.13169922 170.16585937 243.95089844 169.54296875 244.79492188 C168.97964844 245.55998047 168.41632813 246.32503906 167.8359375 247.11328125 C167.08642822 248.13095581 167.08642822 248.13095581 166.32177734 249.16918945 C165.17786747 250.75363352 164.08400863 252.37398706 163 254 C159.53910328 252.56260763 157.83464538 250.86180917 155.6015625 247.87890625 C154.96476563 247.03585937 154.32796875 246.1928125 153.671875 245.32421875 C152.99640625 244.41285156 152.3209375 243.50148438 151.625 242.5625 C150.91601562 241.61890625 150.20703125 240.6753125 149.4765625 239.703125 C144.37010743 232.89147868 139.32303601 226.03534109 134.29150391 219.16821289 C129.92971486 213.22541389 125.48036526 207.35377862 121 201.5 C115.85329485 194.77450158 110.76210863 188.0139529 105.75 181.1875 C104.90066895 180.03145264 104.90066895 180.03145264 104.03417969 178.85205078 C102.91466522 177.32799773 101.79519843 175.80390966 100.67578125 174.27978516 C97.87633659 170.47133319 95.06957668 166.66857331 92.25 162.875 C91.49734863 161.85249146 91.49734863 161.85249146 90.72949219 160.80932617 C88.32574129 157.3929285 88.32574129 157.3929285 85 155 C80.97971976 154.51939546 80.97971976 154.51939546 77.51269531 156.19458008 C75.6719741 158.39150283 74.22259173 160.68587884 72.734375 163.13671875 C72.09951172 164.17634766 71.46464844 165.21597656 70.81054688 166.28710938 C69.79057617 167.97030273 69.79057617 167.97030273 68.75 169.6875 C67.29874884 172.0675519 65.84451498 174.44577817 64.390625 176.82421875 C64.02203369 177.42813446 63.65344238 178.03205017 63.27368164 178.65426636 C59.72554213 184.46324404 56.11798737 190.23430039 52.5 196 C43.89214866 209.73834376 35.41013624 223.55345983 26.93115234 237.37158203 C20.01229053 248.64586003 13.09077495 259.91847335 6.0625 271.125 C5.56008789 271.93122803 5.05767578 272.73745605 4.54003906 273.56811523 C3.38781234 275.39655145 2.19832052 277.20143575 1 279 C0.67 279 0.34 279 0 279 C0 186.93 0 94.86 0 0 Z " fill="#CAFEFE" transform="translate(20,107)"/>
<path d="M0 0 C30.03429824 7.25054319 59.93518374 13.70000656 90.67578125 17.27734375 C91.91545654 17.43058105 91.91545654 17.43058105 93.18017578 17.58691406 C134.59953145 22.455489 179.95689005 8.097335 219.78924561 -1.47052002 C303.83897377 -21.65412365 303.83897377 -21.65412365 344.42578125 -23.59765625 C345.57578613 -23.65937012 346.72579102 -23.72108398 347.91064453 -23.78466797 C349.51915283 -23.84291748 349.51915283 -23.84291748 351.16015625 -23.90234375 C352.10600586 -23.94085449 353.05185547 -23.97936523 354.02636719 -24.01904297 C357.52634333 -23.62750491 360.1741672 -22.2242703 362.67578125 -19.72265625 C362.77589388 -17.9584063 362.80502064 -16.19010808 362.80720901 -14.42302132 C362.81105016 -13.26639303 362.8148913 -12.10976475 362.81884885 -10.91808712 C362.81798237 -9.63125149 362.81711588 -8.34441586 362.81622314 -7.01858521 C362.81880459 -5.65042565 362.82181713 -4.28226685 362.82522655 -2.91410911 C362.83332575 0.86316597 362.83508773 4.64042208 362.83582401 8.41770482 C362.83766951 12.48459083 362.84521426 16.55146688 362.85195923 20.61834717 C362.86556369 29.51903061 362.87157053 38.41970956 362.87596989 47.32040167 C362.87872869 52.87354599 362.88296537 58.42668856 362.88747406 63.9798317 C362.89966939 79.34199095 362.90996824 94.7041488 362.91334915 110.06631279 C362.91356872 111.05026992 362.91378828 112.03422705 362.9140145 113.04800106 C362.91423278 114.03436931 362.91445106 115.02073757 362.91467595 116.03699577 C362.91511942 118.03589432 362.91556599 120.03479286 362.91601562 122.03369141 C362.91623705 123.02522308 362.91645848 124.01675475 362.91668662 125.03833283 C362.92063634 141.11204826 362.93809448 157.1857184 362.96137515 173.25941633 C362.9850608 189.7452152 362.99754973 206.23099132 362.99871707 222.71680748 C362.99963539 231.97978754 363.00542712 241.2427086 363.02353668 250.50567245 C363.03890013 258.39204451 363.04408045 266.27833934 363.03579858 274.1647235 C363.0318787 278.19139014 363.03288638 282.21790109 363.04685593 286.2445488 C363.05951532 289.92709903 363.05846823 293.60937531 363.04626521 297.29192473 C363.04335692 299.26305655 363.05530404 301.23419275 363.06768727 303.20528781 C363.06109743 304.36713159 363.05450758 305.52897537 363.04771805 306.72602654 C363.04861368 308.23631048 363.04861368 308.23631048 363.04952741 309.77710521 C362.67578125 312.27734375 362.67578125 312.27734375 361.3400352 314.06180108 C349.79615739 322.49325236 318.17879777 314.32577778 304.67578125 312.27734375 C274.72510427 307.50643945 245.3174596 300.12898905 215.85174561 293.04083252 C149.51815917 276.52804946 149.51815917 276.52804946 81.67578125 276.27734375 C80.48033691 276.42703613 79.28489258 276.57672852 78.05322266 276.73095703 C45.96417534 280.92414974 14.55041656 288.81436716 -16.84661865 296.47741699 C-39.57211423 302.02329135 -62.25306296 307.37176102 -85.32421875 311.27734375 C-86.3611084 311.45297852 -87.39799805 311.62861328 -88.46630859 311.80957031 C-136.5074961 319.68570508 -136.5074961 319.68570508 -146.19921875 314.83984375 C-148.32421875 313.27734375 -148.32421875 313.27734375 -149.32421875 312.27734375 C-149.42433138 310.5130938 -149.45345814 308.74479558 -149.45564651 306.97770882 C-149.45948766 305.82108053 -149.4633288 304.66445225 -149.46728635 303.47277462 C-149.46641987 302.18593899 -149.46555338 300.89910336 -149.46466064 299.57327271 C-149.46724209 298.20511315 -149.47025463 296.83695435 -149.47366405 295.46879661 C-149.48176325 291.69152153 -149.48352523 287.91426542 -149.48426151 284.13698268 C-149.48610701 280.07009667 -149.49365176 276.00322062 -149.50039673 271.93634033 C-149.51400119 263.03565689 -149.52000803 254.13497794 -149.52440739 245.23428583 C-149.52716619 239.68114151 -149.53140287 234.12799894 -149.53591156 228.5748558 C-149.54810689 213.21269655 -149.55840574 197.8505387 -149.56178665 182.48837471 C-149.56200622 181.50441758 -149.56222578 180.52046045 -149.562452 179.50668644 C-149.56267028 178.52031819 -149.56288856 177.53394993 -149.56311345 176.51769173 C-149.56355692 174.51879318 -149.56400349 172.51989464 -149.56445312 170.52099609 C-149.56467455 169.52946442 -149.56489598 168.53793275 -149.56512412 167.51635467 C-149.56907384 151.44263924 -149.58653198 135.3689691 -149.60981265 119.29527117 C-149.6334983 102.8094723 -149.64598723 86.32369618 -149.64715457 69.83788002 C-149.64807289 60.57489996 -149.65386462 51.3119789 -149.67197418 42.04901505 C-149.68733763 34.16264299 -149.69251795 26.27634816 -149.68423608 18.389964 C-149.6803162 14.36329736 -149.68132388 10.33678641 -149.69529343 6.3101387 C-149.70795282 2.62758847 -149.70690573 -1.05468781 -149.69470271 -4.73723723 C-149.69179442 -6.70836905 -149.70374154 -8.67950525 -149.71612477 -10.65060031 C-149.70624001 -12.39336598 -149.70624001 -12.39336598 -149.69615555 -14.17133904 C-149.69675264 -15.178195 -149.69734972 -16.18505096 -149.69796491 -17.22241771 C-149.32421875 -19.72265625 -149.32421875 -19.72265625 -147.9884727 -21.50711358 C-121.34294509 -40.96855207 -29.9261914 -7.22511859 0 0 Z M-129.32421875 -2.72265625 C-129.32421875 95.61734375 -129.32421875 193.95734375 -129.32421875 295.27734375 C-109.9924864 295.27734375 -90.76541817 291.94507325 -71.81640625 288.25 C-70.68069183 288.02971382 -70.68069183 288.02971382 -69.52203369 287.80497742 C-49.95784912 283.98495591 -30.65296913 279.12825813 -11.32421875 274.27734375 C8.78910436 269.22952605 28.87824274 264.24110418 49.23828125 260.27734375 C49.96205963 260.13527496 50.68583801 259.99320618 51.43154907 259.84683228 C112.09796299 248.02485148 168.12172743 260.44304392 227.08229065 274.81141663 C284.18427577 289.63042283 284.18427577 289.63042283 342.67578125 295.27734375 C342.67578125 196.93734375 342.67578125 98.59734375 342.67578125 -2.72265625 C335.43226933 -2.76577764 335.43226933 -2.76577764 328.35546875 -2.20703125 C327.4219458 -2.09286865 326.48842285 -1.97870605 325.52661133 -1.86108398 C324.5445874 -1.73290283 323.56256348 -1.60472168 322.55078125 -1.47265625 C320.96076294 -1.26588257 320.96076294 -1.26588257 319.33862305 -1.05493164 C286.23369831 3.35790979 253.59744831 11.05444736 221.30078125 19.46484375 C143.12675107 39.79365359 77.11651957 41.41367457 -1.19387817 20.90354919 C-10.01318575 18.59528366 -18.86011073 16.48512757 -27.76171875 14.51953125 C-33.27282938 13.30181894 -38.76237459 11.99782712 -44.25390625 10.69506836 C-64.7118598 5.85971578 -85.01271379 1.50547434 -105.88671875 -1.03515625 C-106.6002652 -1.12260101 -107.31381165 -1.21004578 -108.04898071 -1.30014038 C-110.09961901 -1.54818592 -112.15102791 -1.78779165 -114.203125 -2.0234375 C-115.97538452 -2.22706909 -115.97538452 -2.22706909 -117.78344727 -2.43481445 C-121.6189147 -2.74661312 -125.47609858 -2.72265625 -129.32421875 -2.72265625 Z " fill="#151F1F" transform="translate(149.32421875,109.72265625)"/>
<path d="M0 0 C6.47810238 1.18985554 10.67003499 8.70876132 14.5 13.6875 C15.41579834 14.87122192 15.41579834 14.87122192 16.35009766 16.07885742 C21.21731223 22.39849675 25.96003574 28.80516936 30.66967773 35.24267578 C35.06291622 41.23805381 39.54408651 47.16102041 44.0625 53.0625 C49.70981184 60.44052694 55.26794463 67.8754573 60.75366211 75.37426758 C65.94477244 82.45103447 71.27157653 89.4213297 76.64648438 96.359375 C80.42846134 101.2763298 83.86675909 106.24444364 87.0625 111.5625 C85.70668823 111.86933716 85.70668823 111.86933716 84.32348633 112.18237305 C79.83933899 113.19915914 75.35695331 114.2235903 70.875 115.25 C70.02505463 115.44446716 69.17510925 115.63893433 68.29940796 115.83929443 C57.15323504 118.3954051 46.03337498 121.04194999 34.9375 123.80859375 C33.8268367 124.08550049 32.7161734 124.36240723 31.57185364 124.64770508 C30.45477524 124.92622314 29.33769684 125.20474121 28.18676758 125.49169922 C-52.1921337 145.52381965 -52.1921337 145.52381965 -81.9375 144.5625 C-84.60134675 127.829596 -78.48447841 118.2260213 -69.11035156 104.75097656 C-65.47540554 99.41699959 -62.16020096 93.8919493 -58.8125 88.375 C-57.46750685 86.18275815 -56.12117084 83.99133957 -54.7734375 81.80078125 C-54.12600586 80.74713379 -53.47857422 79.69348633 -52.81152344 78.60791016 C-49.50855214 73.24036664 -46.18687445 67.88443996 -42.86621094 62.52783203 C-39.26297027 56.71205578 -35.67559148 50.88670729 -32.09472656 45.05712891 C-29.3972806 40.66746012 -26.69502902 36.28076578 -23.99121094 31.89501953 C-22.6025063 29.64159368 -21.2149836 27.3874828 -19.82910156 25.13232422 C-17.78862148 21.81321533 -15.73844326 18.50015448 -13.6875 15.1875 C-13.06762207 14.1771167 -12.44774414 13.1667334 -11.80908203 12.12573242 C-11.22755371 11.18963135 -10.64602539 10.25353027 -10.046875 9.2890625 C-9.54124023 8.47002441 -9.03560547 7.65098633 -8.51464844 6.80712891 C-6.05710941 3.30951066 -4.29349557 0.82215873 0 0 Z " fill="#32A268" transform="translate(101.9375,260.4375)"/>
<path d="M0 0 C8.18859446 5.77712279 14.32901556 17.44896484 20.15332031 25.46386719 C23.08430376 29.48912579 26.04298176 33.49385131 29 37.5 C30.16681115 39.08322686 31.33347755 40.66656041 32.5 42.25 C33.0775 43.03375 33.655 43.8175 34.25 44.625 C53.5 70.75 53.5 70.75 55.25195312 73.12768555 C56.41206491 74.70209982 57.57222076 76.27648163 58.73242188 77.85083008 C61.74975078 81.94535219 64.76618312 86.04053061 67.78125 90.13671875 C68.71517578 91.40515625 68.71517578 91.40515625 69.66796875 92.69921875 C70.84794391 94.30187158 72.02765236 95.90472083 73.20703125 97.5078125 C76.77876044 102.3582037 80.37763218 107.18730906 84 112 C82.0722973 116.58379398 79.00445544 117.78392988 74.625 119.6875 C73.95210937 119.99494141 73.27921875 120.30238281 72.5859375 120.61914062 C64.17820438 124.40096546 54.90426412 126.0513533 45.953125 122.94140625 C39.50874702 119.58268383 34.18867928 115.04775219 29 110 C28.071875 110.845625 27.14375 111.69125 26.1875 112.5625 C15.6140122 121.62548954 6.78613365 125.15520922 -7.00830078 124.26953125 C-16.67736261 122.96104335 -24.44095657 114.61903468 -31 108 C-31.763125 109.010625 -32.52625 110.02125 -33.3125 111.0625 C-40.18275167 119.0507879 -49.93239337 124.06654252 -60.3125 125.4375 C-70.88231241 124.18345446 -79.91606583 119.21593639 -89 114 C-88.39406673 110.92202845 -87.43489935 108.89844702 -85.5859375 106.375 C-84.8271228 105.33098022 -84.8271228 105.33098022 -84.05297852 104.26586914 C-83.49924561 103.51813232 -82.9455127 102.77039551 -82.375 102 C-81.79741943 101.21036865 -81.21983887 100.4207373 -80.62475586 99.60717773 C-75.0642223 92.0281504 -69.41086604 84.51791478 -63.7578125 77.0078125 C-58.36233308 69.83146313 -53.04980803 62.59423801 -47.73388672 55.35888672 C-44.82628377 51.40320386 -41.91287802 47.4517991 -39 43.5 C-35.43965964 38.66925184 -31.88025713 33.83782241 -28.32421875 29.00390625 C-24.88724228 24.33266153 -21.44594485 19.66463266 -18 15 C-17.52594727 14.35788574 -17.05189453 13.71577148 -16.56347656 13.05419922 C-15.31612928 11.36722808 -14.0652018 9.68299709 -12.8125 8 C-11.80123047 6.63875 -11.80123047 6.63875 -10.76953125 5.25 C-10.18558594 4.5075 -9.60164063 3.765 -9 3 C-8.55011719 2.401875 -8.10023438 1.80375 -7.63671875 1.1875 C-5.05708698 -0.68411828 -3.08669839 -0.40174812 0 0 Z " fill="#2D9C63" transform="translate(329,171)"/>
<path d="M0 0 C11.1525119 7.87913452 18.82048495 19.92233153 22.2265625 33.109375 C24.47402438 47.82192637 22.88848245 63.03483067 14.8359375 75.80859375 C13.80277286 77.18527252 12.73937804 78.53973266 11.6484375 79.87109375 C10.77058594 81.00611328 10.77058594 81.00611328 9.875 82.1640625 C0.84235296 93.16914471 -12.32328323 99.69087452 -26.3515625 101.87109375 C-43.22740014 103.18581418 -57.58078846 98.20601831 -70.6640625 87.55859375 C-80.99652161 77.88929454 -87.82228223 64.08009578 -88.5546875 49.953125 C-88.8829258 32.00873427 -83.82733074 18.42886622 -71.6875 5.03515625 C-67.43550847 0.89555216 -62.59979139 -1.77772015 -57.3515625 -4.44140625 C-56.35491577 -4.94812866 -56.35491577 -4.94812866 -55.33813477 -5.46508789 C-36.71353255 -14.50844581 -17.12288768 -10.67311363 0 0 Z " fill="#FDC150" transform="translate(217.3515625,184.12890625)"/>
<path d="M0 0 C0.96387634 0.00087616 1.92775269 0.00175232 2.9208374 0.00265503 C19.51456294 0.05213794 35.41884607 1.25936206 51.75 4.375 C53.08914522 4.6244413 54.42833972 4.87361809 55.76757812 5.12255859 C71.6542816 8.10236629 87.39809268 11.64207288 103.0625 15.625 C103.72497742 15.79149048 104.38745483 15.95798096 105.07000732 16.1295166 C106.94104143 16.60283234 108.80850717 17.09018657 110.67578125 17.578125 C111.73192627 17.85301758 112.78807129 18.12791016 113.8762207 18.41113281 C118.24000807 19.87474954 121.08592025 21.10218048 123.25 25.25 C123.75 28.375 123.75 28.375 122.4375 31.1875 C120.75 33.375 120.75 33.375 119.75 34.375 C113.50220142 34.9757708 107.79409113 33.94547973 101.78125 32.36328125 C100.95148651 32.15467468 100.12172302 31.94606812 99.26681519 31.73114014 C97.50254441 31.28710459 95.73936446 30.83871514 93.97723389 30.38626099 C89.36888642 29.20552858 84.75071377 28.06456593 80.1328125 26.921875 C79.22624908 26.69697891 78.31968567 26.47208282 77.38565063 26.2403717 C66.57388136 23.57034733 55.7211003 21.29320505 44.75 19.375 C43.89712402 19.21418945 43.04424805 19.05337891 42.16552734 18.88769531 C12.86676582 13.46717296 -19.12232059 14.62318457 -48.25 20.375 C-48.88556824 20.4985083 -49.52113647 20.6220166 -50.17596436 20.74926758 C-63.27561385 23.29567883 -76.31894714 26.0796758 -89.25 29.3828125 C-90.51521484 29.70596436 -91.78042969 30.02911621 -93.08398438 30.36206055 C-95.45308222 30.97626525 -97.81924712 31.6019483 -100.18164062 32.24145508 C-106.38197936 33.87275256 -111.83163639 34.99758127 -118.25 34.375 C-120.63372972 32.4743001 -121.22061054 31.46512768 -122.1875 28.5 C-122.25 25.375 -122.25 25.375 -120.87109375 22.859375 C-117.11930099 19.30327932 -113.33240214 18.63568504 -108.375 17.5 C-107.37049805 17.25515869 -106.36599609 17.01031738 -105.33105469 16.75805664 C-103.13787777 16.22742245 -100.94243517 15.7060877 -98.74511719 15.19287109 C-95.16063937 14.35408926 -91.58424389 13.48568629 -88.0078125 12.61328125 C-75.70605871 9.64317018 -63.37664205 6.89594692 -50.9375 4.5625 C-49.39400879 4.27040649 -49.39400879 4.27040649 -47.81933594 3.97241211 C-31.83855164 1.07458704 -16.22183578 -0.03630419 0 0 Z " fill="#1F282C" transform="translate(255.25,406.625)"/>
<path d="M0 0 C3.0281533 0.50186428 5.96721832 1.22793207 8.93359375 2.01171875 C10.17420563 2.3246286 10.17420563 2.3246286 11.43988037 2.64385986 C13.19961561 3.08798136 14.95827861 3.53637039 16.71591187 3.98873901 C21.319477 5.17069291 25.93290024 6.31259506 30.546875 7.453125 C31.45547775 7.67802109 32.36408051 7.90291718 33.30021667 8.1346283 C43.54807165 10.65373183 53.8445138 12.77014042 64.25146484 14.52832031 C66.83802952 14.97220404 69.41154916 15.46373636 71.98828125 15.9609375 C100.15911592 20.98877394 131.05258079 19.51875056 159 14 C159.63556824 13.8764917 160.27113647 13.7529834 160.92596436 13.62573242 C174.02561385 11.07932117 187.06894714 8.2953242 200 4.9921875 C201.26521484 4.66903564 202.53042969 4.34588379 203.83398438 4.01293945 C206.20308222 3.39873475 208.56924712 2.7730517 210.93164062 2.13354492 C217.13197936 0.50224744 222.58163639 -0.62258127 229 0 C231.12741552 1.73175312 231.91811496 2.77774061 232.875 5.375 C233.04506558 8.94637724 232.29905505 10.26987213 230 13 C224.67507867 15.62151952 219.27312558 17.1026646 213.51953125 18.48828125 C212.60521835 18.71224075 211.69090546 18.93620026 210.74888611 19.16694641 C207.77217967 19.89113221 204.79280193 20.60326465 201.8125 21.3125 C200.79555054 21.55611267 199.77860107 21.79972534 198.73083496 22.05072021 C184.80940462 25.37032825 170.87744797 28.32832703 156.75 30.625 C155.64381821 30.8050206 155.64381821 30.8050206 154.51528931 30.98867798 C143.57962807 32.74615923 132.76588325 34.14143503 121.6796875 34.203125 C120.40024513 34.21371445 120.40024513 34.21371445 119.09495544 34.22451782 C100.85465915 34.34113012 83.0048784 34.23999044 65 31 C63.34170166 30.71793701 63.34170166 30.71793701 61.64990234 30.43017578 C45.0568812 27.58196773 28.71357897 23.85050628 12.375 19.8125 C11.49239502 19.59649139 10.60979004 19.38048279 9.70043945 19.15792847 C7.18055694 18.53817183 4.66410242 17.90616654 2.1484375 17.26953125 C1.39770966 17.08530609 0.64698181 16.90108093 -0.12649536 16.71127319 C-5.75438666 15.26073577 -9.72263425 13.91604862 -13 9 C-12.80836571 5.93385133 -12.61485402 3.79331765 -10.70729065 1.33207703 C-7.54362359 -1.13630655 -3.82680867 -0.35698073 0 0 Z " fill="#1F282C" transform="translate(146,71)"/>
<path d="M0 0 C2.94093701 3.15535466 4.99371101 6.56556715 6.99609375 10.3671875 C7.54861816 11.40697754 8.10114258 12.44676758 8.67041016 13.51806641 C9.2535498 14.62585449 9.83668945 15.73364258 10.4375 16.875 C11.68156437 19.21465745 12.92700535 21.55348812 14.17578125 23.890625 C14.49170227 24.48239532 14.80762329 25.07416565 15.13311768 25.68386841 C18.87603053 32.67179024 22.79548941 39.55903501 26.73608398 46.43701172 C29.65863073 51.55439905 32.41876737 56.70168039 35 62 C34.02353516 61.85377197 33.04707031 61.70754395 32.04101562 61.55688477 C28.33676205 61.00402268 24.63122831 60.46016493 20.92529297 59.91870117 C19.3367276 59.68538963 17.74849507 59.44979779 16.16064453 59.21166992 C1.25800439 56.97957721 -13.4083798 55.80618068 -28.5 55.9375 C-30.03720703 55.94426758 -30.03720703 55.94426758 -31.60546875 55.95117188 C-34.07038156 55.96269016 -36.5351536 55.97894124 -39 56 C-36.34103991 50.99587014 -33.67252207 45.99689597 -31 41 C-30.46407227 39.99791504 -29.92814453 38.99583008 -29.37597656 37.96337891 C-17.2200646 15.25531816 -17.2200646 15.25531816 -12.25 6.4375 C-11.65703125 5.38433594 -11.0640625 4.33117187 -10.453125 3.24609375 C-7.78578582 -0.87680955 -4.64206417 -0.48021353 0 0 Z " fill="#2D9B63" transform="translate(280,308)"/>
</svg>
