<?xml version="1.0" encoding="UTF-8"?>
<svg version="1.1" xmlns="http://www.w3.org/2000/svg" width="512" height="512">
<path d="M0 0 C1.27243057 -0.00511093 2.54486115 -0.01022186 3.85585022 -0.01548767 C7.33123241 -0.02882608 10.8065055 -0.02946198 14.28190827 -0.02692437 C17.19164511 -0.02585085 20.10136021 -0.03074791 23.01109236 -0.03552979 C29.88143504 -0.04660779 36.75172304 -0.04707244 43.62207031 -0.04101562 C50.68904638 -0.03498081 57.7558231 -0.04727816 64.82276517 -0.06858569 C70.90795077 -0.0862526 76.99307322 -0.09219494 83.07828349 -0.08894795 C86.70478438 -0.08714256 90.33114315 -0.08969606 93.95762062 -0.10366249 C98.00703305 -0.11867529 102.05604498 -0.10922644 106.10546875 -0.09765625 C107.88648987 -0.10912186 107.88648987 -0.10912186 109.70349121 -0.12081909 C122.84339271 -0.03810575 132.31570277 3.6590074 141.99682617 12.5246582 C148.11595118 18.91416315 151.34912445 26.88073655 151.40072632 35.64819336 C151.40932678 36.73860428 151.41792725 37.8290152 151.42678833 38.95246887 C151.43317825 40.74003853 151.43317825 40.74003853 151.43969727 42.5637207 C151.44787476 43.82274704 151.45605225 45.08177338 151.46447754 46.37895203 C151.49064398 50.55249913 151.50600528 54.72605595 151.52026367 58.8996582 C151.5256266 60.34068812 151.53100411 61.78171799 151.53639603 63.2227478 C151.55802176 69.2225813 151.57675356 75.22241219 151.58801842 81.22227478 C151.60422512 89.79572983 151.63732586 98.36872939 151.69441926 106.94201279 C151.73326364 112.98299519 151.75266846 119.02385655 151.75793898 125.06496048 C151.76157429 128.6660121 151.77339793 132.26657733 151.80604172 135.86749268 C151.84203237 139.89541153 151.83771501 143.9223663 151.83032227 147.95043945 C151.8467276 149.12595871 151.86313293 150.30147797 151.8800354 151.51261902 C151.79603051 162.75203635 148.36678343 172.17998147 140.46166992 180.3059082 C127.6551426 191.68948804 112.07740547 191.72812508 95.87182617 191.4621582 C94.24944295 191.447064 92.62704593 191.43338408 91.00463867 191.42114258 C87.08501802 191.38855787 83.16608104 191.33704634 79.24682617 191.2746582 C79.24959155 192.33134107 79.25235693 193.38802393 79.25520611 194.47672749 C79.32185632 220.20882267 79.37112794 245.94090663 79.40226269 271.67306995 C79.41772008 284.11703882 79.43878811 296.56095059 79.47314453 309.00488281 C79.50308133 319.85320995 79.52240937 330.70149574 79.52909166 341.54986304 C79.53299664 347.29198463 79.54215054 353.03398793 79.56401634 358.77607155 C79.58444904 364.18588319 79.59064625 369.59552834 79.58614922 375.00537491 C79.58697138 376.98582172 79.59289641 378.96627437 79.6044426 380.9466877 C79.71091157 400.15823648 79.71091157 400.15823648 76.24682617 409.2746582 C75.83303711 410.3677832 75.41924805 411.4609082 74.99291992 412.5871582 C68.21847236 426.50005348 57.85847764 436.1855655 43.37182617 441.6496582 C37.93004673 443.51773174 32.9889838 444.39924155 27.22746849 444.40608597 C26.01207528 444.40992711 24.79668206 444.41376826 23.54445875 444.4177258 C22.19902184 444.41694561 20.85358498 444.41606684 19.50814819 444.4151001 C18.0762412 444.41768463 16.64433492 444.42069804 15.21242964 444.4241035 C11.27721183 444.43216653 7.34201226 444.43396268 3.40678716 444.43470097 C-0.83741542 444.43655275 -5.08160855 444.44410076 -9.32580566 444.45083618 C-18.60694261 444.46441544 -27.88807523 444.47044369 -37.16922045 444.47484684 C-42.96567279 444.47761015 -48.76212346 444.48184769 -54.55857468 444.48635101 C-70.61058001 444.49854353 -86.66258402 444.50884263 -102.71459389 444.5122261 C-103.74187982 444.51244567 -104.76916574 444.51266524 -105.82758155 444.51289146 C-106.85731289 444.51310973 -107.88704424 444.51332801 -108.94797957 444.5135529 C-111.03457427 444.51399637 -113.12116897 444.51444293 -115.20776367 444.51489258 C-116.7602952 444.51522472 -116.7602952 444.51522472 -118.344191 444.51556358 C-135.11063163 444.51951055 -151.87702877 444.5369616 -168.6434526 444.5602521 C-185.86166469 444.58397689 -203.07985497 444.59642848 -220.29808366 444.59759402 C-229.96367599 444.59851019 -239.62921166 444.60424774 -249.29478836 444.62241364 C-257.52631707 444.63782988 -265.75777161 444.64292611 -273.98931201 444.63467553 C-278.18711775 444.63077433 -282.38477421 444.63167265 -286.58256149 444.64573288 C-290.4306707 444.65850367 -294.27851895 444.65724659 -298.12662797 444.64514217 C-300.16721111 444.64227101 -302.2077989 444.65409684 -304.24834597 444.66656423 C-320.82267047 444.57784067 -335.14069415 439.21305822 -346.98364258 427.40356445 C-357.11511295 416.50535054 -361.22437105 403.14120526 -361.14085388 388.52970886 C-361.14893219 386.81555903 -361.14893219 386.81555903 -361.15717369 385.06677991 C-361.17141814 381.25860134 -361.16435796 377.45077209 -361.15722656 373.64257812 C-361.16129058 370.90360112 -361.16979694 368.16464167 -361.17802429 365.42567444 C-361.1951756 358.77044461 -361.19605985 352.11530936 -361.19081139 345.46006318 C-361.18676114 340.04707395 -361.18822338 334.63411256 -361.19355965 329.22112465 C-361.19430807 328.4491318 -361.19505649 327.67713895 -361.19582759 326.88175238 C-361.19735916 325.31316222 -361.19889751 323.74457206 -361.20044256 322.17598192 C-361.21415465 307.48245219 -361.20873929 292.78897578 -361.19725735 278.09544728 C-361.18732914 264.67383686 -361.20026077 251.25236437 -361.22419154 237.83077522 C-361.24861651 224.02728006 -361.2581819 210.22384906 -361.25153881 196.42033273 C-361.24805377 188.67963259 -361.25023112 180.93903845 -361.26778984 173.19835472 C-361.28255452 166.60800934 -361.283092 160.01784459 -361.26571893 153.42750259 C-361.25724069 150.06976883 -361.25717174 146.71262016 -361.27037048 143.35486221 C-361.3801973 113.09578326 -361.3801973 113.09578326 -353.25317383 101.2746582 C-352.68598633 100.4290332 -352.11879883 99.5834082 -351.53442383 98.7121582 C-342.61188948 86.50237435 -330.75617251 78.86762956 -315.75317383 76.2746582 C-314.1390407 76.18966352 -312.52199642 76.15086309 -310.90562725 76.15161037 C-309.95167181 76.14961933 -308.99771636 76.14762828 -308.01485318 76.14557689 C-306.45502901 76.14994616 -306.45502901 76.14994616 -304.86369324 76.15440369 C-303.75277842 76.15354926 -302.64186361 76.15269484 -301.49728471 76.15181452 C-297.76770475 76.1501649 -294.03816958 76.15567268 -290.30859375 76.16113281 C-287.63793842 76.16141482 -284.96728585 76.16130073 -282.29663086 76.16069031 C-276.54322532 76.16016607 -270.78983113 76.16330241 -265.03642845 76.16892815 C-256.71798444 76.17705671 -248.39954591 76.17965976 -240.08109836 76.18091614 C-226.58482418 76.18310452 -213.08855605 76.18975883 -199.59228516 76.19921875 C-186.48225942 76.20839838 -173.37223533 76.21547652 -160.26220703 76.21972656 C-159.45404485 76.21998929 -158.64588266 76.22025201 -157.81323072 76.22052269 C-153.75890059 76.22182774 -149.70457045 76.22309144 -145.6502403 76.2243346 C-112.01788043 76.23470056 -78.38552787 76.25231308 -44.75317383 76.2746582 C-44.77412109 74.96907959 -44.79506836 73.66350098 -44.81665039 72.31835938 C-44.88957713 67.4299638 -44.93516374 62.54161537 -44.97290039 57.65283203 C-44.99289661 55.54532763 -45.02010276 53.43787787 -45.05493164 51.33056641 C-45.29483023 36.43215824 -45.3538777 23.84137346 -34.75317383 12.2746582 C-24.76551526 2.14599739 -13.78419029 -0.02861456 0 0 Z " fill="#052A75" transform="translate(360.753173828125,33.725341796875)"/>
<path d="M0 0 C1.10531098 -0.00256327 2.21062197 -0.00512655 3.34942722 -0.0077675 C7.0421833 -0.01269726 10.73452786 0.00377477 14.42724609 0.02018738 C17.07864805 0.02103382 19.73002504 0.02069017 22.38142395 0.01885986 C28.08406816 0.01728988 33.78660907 0.02667021 39.48922729 0.04357338 C47.73415032 0.06799626 55.9790236 0.075772 64.22397888 0.07953735 C77.60214701 0.08609669 90.98026015 0.10604377 104.35839844 0.13444519 C117.35090867 0.16199918 130.34340394 0.1832262 143.3359375 0.19596863 C144.13733752 0.1967568 144.93873755 0.19754497 145.76442242 0.19835702 C149.78497241 0.20227225 153.80552252 0.20606335 157.82607269 0.20979273 C191.15931621 0.24087251 224.49249315 0.29369417 257.82568359 0.36076355 C257.82932922 1.1381337 257.83297485 1.91550385 257.83673096 2.71643066 C257.87478896 10.08606614 257.93184057 17.45520598 258.00958633 24.82452106 C258.04889225 28.61209007 258.08116245 32.39943247 258.09667969 36.18717957 C258.111959 39.85090935 258.14659946 43.51401541 258.19399261 47.17746544 C258.20869148 48.56665271 258.21671792 49.95592909 258.21756744 51.34519386 C258.23150439 62.72131626 259.73387831 73.74830591 267.82568359 82.36076355 C278.52381088 92.4603942 290.91226102 94.11088637 304.96630859 94.0677948 C306.40366685 94.08035414 307.84100751 94.09512338 309.27832031 94.11210632 C314.54393761 94.15912578 319.80986496 94.16375143 325.07568359 94.17326355 C336.87318359 94.23513855 348.67068359 94.29701355 360.82568359 94.36076355 C360.82568359 130.00076355 360.82568359 165.64076355 360.82568359 202.36076355 C352.9518229 195.6117401 352.9518229 195.6117401 350.12797546 192.75639343 C349.16338409 191.7851931 349.16338409 191.7851931 348.17930603 190.79437256 C347.50017654 190.10536362 346.82104706 189.41635468 346.12133789 188.70646667 C345.0173616 187.59307167 345.0173616 187.59307167 343.89108276 186.45718384 C342.30339466 184.85571628 340.71678046 183.25318347 339.13113976 181.64968872 C336.61515496 179.10689593 334.09467049 176.56864764 331.57270813 174.03178406 C324.40575375 166.82224803 317.24143376 159.61016625 310.09350586 152.38175964 C305.71102036 147.95059227 301.31869467 143.52938656 296.91990089 139.1144104 C295.2525879 137.4372402 293.58892674 135.75643095 291.92911339 134.07183838 C289.60141474 131.71016218 287.26133894 129.36141769 284.91821289 127.01506042 C283.9086277 125.98154701 283.9086277 125.98154701 282.87864685 124.92715454 C276.63863217 118.72596272 269.43718232 113.92411236 261.07568359 111.04826355 C260.21458984 110.74275574 259.35349609 110.43724792 258.46630859 110.1224823 C245.86003309 106.48605667 232.05909596 107.26190996 220.49880314 113.64570808 C212.67602343 118.37825276 206.42252341 124.22507386 200.05200195 130.69621277 C198.92150443 131.8294823 197.79010983 132.96185754 196.65789795 134.09341431 C193.61445059 137.13995888 190.58337009 140.19853774 187.55436778 143.25943518 C184.37448953 146.46822841 181.18270226 149.66513091 177.99208069 152.86323547 C171.96270148 158.91014375 165.94317305 164.96675368 159.92755944 171.02735341 C151.08056713 179.93978281 142.22063571 188.83933585 133.35838413 197.73658943 C132.70871597 198.38882701 132.0590478 199.04106458 131.38969272 199.71306694 C130.09492017 201.01293646 128.80011517 202.31277366 127.50527674 203.61257756 C123.7115364 207.421586 119.92137167 211.2341081 116.1342324 215.04967952 C113.78651094 217.41437097 111.43686994 219.7771487 109.08683777 222.13954353 C107.99506664 223.23799913 106.90417941 224.33733404 105.81422615 225.43759346 C104.33108881 226.93459069 102.84494023 228.4285328 101.35801697 229.92176819 C100.52609801 230.75980421 99.69417906 231.59784023 98.83705044 232.46127129 C95.75803278 235.36903038 93.28093253 235.91276977 89.01318359 235.80607605 C83.93980033 234.77328017 80.73074267 230.32976281 77.26904297 226.75187683 C65.84184869 214.96880707 55.04069343 205.14541749 37.78271484 204.1927948 C17.28649269 204.06548907 5.27607162 211.14978675 -9.06607056 225.21614075 C-13.86219419 229.96280368 -18.61372233 234.75363583 -23.36181641 239.54826355 C-26.14412851 242.35709491 -28.92971252 245.16262283 -31.71728516 247.9662323 C-32.35256638 248.60981186 -32.9878476 249.25339142 -33.64237976 249.91647339 C-35.13424803 251.41681136 -36.65159491 252.89174884 -38.17431641 254.36076355 C-38.50431641 254.36076355 -38.83431641 254.36076355 -39.17431641 254.36076355 C-39.26564188 225.61255601 -39.33639381 196.86436563 -39.37857772 168.11604149 C-39.38358032 164.71909965 -39.38875763 161.32215809 -39.39404297 157.92521667 C-39.39509221 157.24897023 -39.39614145 156.57272378 -39.39722249 155.87598501 C-39.41460963 144.93809983 -39.44613793 134.00029906 -39.48292759 123.06246389 C-39.5203842 111.83236022 -39.54226297 100.60229859 -39.55067039 89.37212932 C-39.55588145 83.06718156 -39.56811467 76.76242503 -39.59723663 70.4575386 C-39.62443921 64.51994403 -39.63275147 58.58261901 -39.62674713 52.64496803 C-39.62784519 50.46897605 -39.63576994 48.29297481 -39.65113831 46.11703682 C-39.6711417 43.13806581 -39.66621763 40.16010259 -39.65533447 37.18110657 C-39.67281152 35.89993129 -39.67281152 35.89993129 -39.69064164 34.59287369 C-39.58947974 24.29603603 -35.48571878 16.81366162 -28.47119141 9.4896698 C-20.24204572 1.86231538 -10.85366247 -0.09267978 0 0 Z " fill="#FEFEFE" transform="translate(59.17431640625,129.6392364501953)"/>
<path d="M0 0 C7.74270425 3.87718499 14.35070328 10.69034124 20.80396938 16.37694263 C22.16615597 17.57721576 22.16615597 17.57721576 23.55586147 18.80173683 C35.34740111 29.24924248 46.89630495 39.9511203 58.30763149 50.81175709 C58.85387173 51.33083149 59.40011196 51.8499059 59.96290493 52.38470984 C110.11406894 100.1129653 110.11406894 100.1129653 110.92214394 129.18371582 C110.9038748 132.91724271 110.62982522 136.59962433 110.24513149 140.31175709 C110.13577204 141.38222593 110.13577204 141.38222593 110.0242033 142.47432041 C109.01014452 151.61539072 106.9867165 160.34339474 104.24513149 169.12425709 C103.70685765 170.98696141 103.16860722 172.8496725 102.6303854 174.71239185 C100.11589844 183.35618561 94.37552142 190.02710989 86.90919399 194.90550709 C78.04747955 198.95954654 69.83654891 199.55696245 60.170928 199.51193714 C58.76357584 199.5161165 57.35622704 199.52159731 55.94888443 199.52825695 C52.10471005 199.54265123 48.26075117 199.53848583 44.4165653 199.53109014 C40.26173407 199.52634582 36.10694862 199.53887942 31.95213223 199.54910755 C23.8216856 199.56627583 15.69131633 199.56713971 7.56085629 199.56189465 C0.95076905 199.55784826 -5.65929537 199.55930207 -12.26938152 199.56464291 C-13.21124885 199.56539133 -14.15311619 199.56613975 -15.12352495 199.56691085 C-17.03710357 199.56844237 -18.95068219 199.56998072 -20.8642608 199.57152582 C-38.79630702 199.58524358 -56.72830958 199.57981813 -74.6603548 199.56834061 C-91.05467561 199.55840766 -107.44888356 199.57135125 -123.84318697 199.5952748 C-140.69092329 199.61967418 -157.53860707 199.62927169 -174.3863607 199.62262207 C-183.8395008 199.61913189 -193.2925541 199.62134873 -202.74568081 199.6388731 C-210.79229885 199.6536055 -218.83876896 199.65421688 -226.88538413 199.63680219 C-230.98807387 199.62829861 -235.09049946 199.62612682 -239.19317532 199.64145374 C-242.95420069 199.65533002 -246.71473638 199.65050048 -250.47573365 199.63121451 C-252.46935097 199.62569597 -254.46299341 199.63970139 -256.45656294 199.65456861 C-268.35775562 199.55752272 -278.15745401 196.63787612 -286.75486851 188.12425709 C-294.2395596 179.01815589 -297.04675687 169.26179013 -296.52510166 157.641469 C-295.6277017 149.88519299 -290.39606197 145.47038054 -284.91502476 140.42113209 C-283.7894342 139.32159346 -282.66762573 138.21817133 -281.54940891 137.11113453 C-278.61754471 134.23051737 -275.63460518 131.40914139 -272.63780308 128.59636402 C-270.21273647 126.30228321 -267.82723465 123.96930124 -265.44277382 121.63314915 C-237.14365032 93.91722238 -237.14365032 93.91722238 -223.50486851 93.74925709 C-206.04034855 94.12590394 -195.7511237 107.97915454 -184.27655125 119.52740955 C-182.24454079 121.57234936 -180.20927718 123.61400299 -178.17320347 125.65489674 C-173.86424435 129.9751845 -169.55928211 134.29944114 -165.25486851 138.62425709 C-160.23590797 143.66683823 -155.21531219 148.7077693 -150.19052219 153.74454212 C-148.1842437 155.75730713 -146.18099402 157.77305391 -144.17784214 159.78892994 C-142.95691959 161.01348223 -141.73585799 162.23789591 -140.51463413 163.46214771 C-139.67936695 164.30516438 -139.67936695 164.30516438 -138.82722569 165.16521168 C-135.38116544 168.93313305 -135.38116544 168.93313305 -130.69627476 170.14378834 C-125.88717843 169.77623031 -125.88717843 169.77623031 -121.69236851 167.62425709 C-120.14519268 163.49845488 -119.53328569 160.35049966 -120.75486851 156.12425709 C-124.29849364 151.39864927 -128.52004816 147.46909681 -132.81736851 143.43675709 C-133.96455578 142.32619424 -135.10975937 141.21357844 -136.25291538 140.09886646 C-140.73718635 135.75163989 -145.25785977 131.47410291 -150.06346226 127.47972584 C-150.95162632 126.70242115 -151.83979038 125.92511646 -152.75486851 125.12425709 C-152.75486851 124.46425709 -152.75486851 123.80425709 -152.75486851 123.12425709 C-151.39478016 122.00172138 -151.39478016 122.00172138 -149.44804478 120.68419361 C-143.61417844 116.44160309 -138.70574107 111.29068455 -133.66404819 106.16527271 C-132.56953682 105.06035607 -131.47452659 103.9559334 -130.37905979 102.851964 C-128.03288872 100.48601522 -125.68969964 98.1171669 -123.34867191 95.74612904 C-119.63871735 91.98975331 -115.91875734 88.24339333 -112.19682407 84.49889088 C-101.61838123 73.853825 -91.04836488 63.20049298 -80.49949741 52.52611256 C-74.66400178 46.62135379 -68.81767067 40.72754813 -62.9592917 34.84548998 C-59.26407411 31.13416976 -55.58232093 27.4101623 -51.91020346 23.67599201 C-49.61288965 21.34642996 -47.30285454 19.02980561 -44.98917675 16.716506 C-43.92781353 15.65034175 -42.87152477 14.57909482 -41.82108974 13.50216198 C-30.28865476 1.6913567 -16.7142141 -6.77985419 0 0 Z " fill="#B0D851" transform="translate(315.75486850738525,258.8757429122925)"/>
<path d="M0 0 C1.04288681 -0.0071553 2.08577362 -0.01431061 3.16026306 -0.02168274 C4.30418015 -0.02437164 5.44809723 -0.02706055 6.62667847 -0.02983093 C7.83185623 -0.03640213 9.037034 -0.04297333 10.2787323 -0.04974365 C14.27736661 -0.06949509 18.27596078 -0.08114715 22.27462769 -0.09111023 C23.65350235 -0.09515902 25.03237681 -0.09927598 26.41125107 -0.10346031 C32.89270443 -0.12251132 39.37414644 -0.13674022 45.85562241 -0.14507228 C53.32382328 -0.1548324 60.7917268 -0.18111988 68.25982296 -0.22157317 C74.04002123 -0.25180247 79.82013461 -0.26654775 85.60041034 -0.26985329 C89.04872456 -0.27219685 92.49672109 -0.28106509 95.9449501 -0.30631447 C99.79859002 -0.33407584 103.65184384 -0.32974324 107.50558472 -0.32279968 C109.20324226 -0.34201477 109.20324226 -0.34201477 110.93519592 -0.36161804 C118.64911666 -0.31107665 125.08301525 0.88602162 131.11056519 5.96357727 C131.55400269 6.53978821 131.99744019 7.11599915 132.45431519 7.70967102 C132.91837769 8.28846008 133.38244019 8.86724915 133.86056519 9.46357727 C135.92417597 12.64006386 136.0837638 15.4092626 136.10148621 19.08569336 C136.11221916 20.61432762 136.11221916 20.61432762 136.12316895 22.17384338 C136.12585785 23.2912793 136.12854675 24.40871521 136.13131714 25.56001282 C136.13788834 26.73753616 136.14445953 27.91505951 136.15122986 29.12826538 C136.17097831 33.03430025 136.18263202 36.94032167 136.19259644 40.84638977 C136.19664517 42.19309319 136.20076212 43.5397964 136.20494652 44.8864994 C136.22399555 51.21577886 136.23822569 57.54504669 136.24655849 63.8743493 C136.25632226 71.16937169 136.28262013 78.46408996 136.32305938 85.75900525 C136.353274 91.40415722 136.36803251 97.0492223 136.3713395 102.69445354 C136.37368444 106.0628143 136.38257108 109.43085008 136.40780067 112.79912376 C136.43214956 116.56211398 136.43123411 120.32431167 136.42428589 124.08735657 C136.44350098 125.7483287 136.44350098 125.7483287 136.46310425 127.44285583 C136.41397736 134.75257266 135.49972851 140.55601043 130.13790894 145.98701477 C129.561698 146.34924133 128.98548706 146.7114679 128.39181519 147.08467102 C127.52363159 147.65508118 127.52363159 147.65508118 126.63790894 148.23701477 C123.28530419 150.04944379 120.51485893 150.27722362 116.78128052 150.29434204 C115.71026093 150.30149734 114.63924133 150.30865265 113.5357666 150.31602478 C112.36065521 150.31871368 111.18554382 150.32140259 109.974823 150.32417297 C108.73717194 150.33074417 107.49952087 150.33731537 106.22436523 150.34408569 C102.1187211 150.36383551 98.01311605 150.37548675 93.90744019 150.38545227 C92.49261201 150.38950068 91.07778402 150.39361763 89.66295624 150.39780235 C83.01491888 150.41685033 76.3668926 150.43108172 69.71883321 150.43941432 C62.05195427 150.44918324 54.3853643 150.47549508 46.71858716 150.51591522 C40.78810295 150.54610535 34.85770145 150.56088596 28.9271419 150.56419533 C25.38723342 150.5665427 21.84763378 150.57546155 18.30780792 150.60065651 C14.35557373 150.62833255 10.40371774 150.62409718 6.4513855 150.61714172 C4.7008638 150.63635681 4.7008638 150.63635681 2.91497803 150.65596008 C-4.53201123 150.60818166 -9.13119038 149.73023229 -14.75271606 144.58467102 C-18.2771593 140.00164943 -20.29085319 136.95823642 -20.31311035 131.12635803 C-20.32164032 130.11430801 -20.33017029 129.102258 -20.33895874 128.05953979 C-20.33805237 126.9550499 -20.337146 125.85056 -20.33621216 124.71260071 C-20.34292938 123.54468491 -20.34964661 122.3767691 -20.35656738 121.17346191 C-20.3755938 117.30528021 -20.37947417 113.43727163 -20.38162231 109.56904602 C-20.38446944 108.23441237 -20.38766128 106.89977941 -20.39119339 105.5651474 C-20.40969403 98.57277709 -20.41786433 91.58048297 -20.41629028 84.58808899 C-20.41509019 78.08286347 -20.4361661 71.57797044 -20.46777761 65.07282901 C-20.49398811 59.47859863 -20.50465553 53.88447648 -20.50337946 48.29018521 C-20.50287104 44.95309267 -20.51034183 41.61653003 -20.52973557 38.27945709 C-20.54936427 34.55246551 -20.54356823 30.82632519 -20.53152466 27.09931946 C-20.54276367 26.00292648 -20.55400269 24.90653351 -20.56558228 23.7769165 C-20.50441032 16.31485575 -19.46841313 10.60931656 -14.01052856 5.08857727 C-13.34150513 4.63353821 -12.67248169 4.17849915 -11.98318481 3.70967102 C-11.31158325 3.23658508 -10.63998169 2.76349915 -9.94802856 2.27607727 C-6.58405577 0.27979773 -3.82366222 0.0180091 0 0 Z " fill="#FB6051" transform="translate(356.0456848144531,53.85282897949219)"/>
<path d="M0 0 C8.06538742 6.42784299 15.2193999 14.09762286 22.47831726 21.40315247 C24.51032772 23.44809227 26.54559132 25.4897459 28.58166504 27.53063965 C32.89062415 31.85092741 37.1955864 36.17518406 41.5 40.5 C46.51896054 45.54258114 51.53955632 50.58351221 56.56434631 55.62028503 C58.57062481 57.63305004 60.57387449 59.64879682 62.57702637 61.66467285 C63.79794892 62.88922514 65.01901052 64.11363882 66.24023438 65.33789062 C66.79707916 65.89990173 67.35392395 66.46191284 67.92764282 67.04095459 C71.37370306 70.80887596 71.37370306 70.80887596 76.05859375 72.01953125 C80.86769008 71.65197322 80.86769008 71.65197322 85.0625 69.5 C86.60967583 65.37419779 87.22158281 62.22624257 86 58 C82.45637487 53.27439218 78.23482035 49.34483972 73.9375 45.3125 C72.79031273 44.20193716 71.64510914 43.08932135 70.50195312 41.97460938 C66.01768216 37.6273828 61.49700874 33.34984583 56.69140625 29.35546875 C55.80324219 28.57816406 54.91507813 27.80085938 54 27 C54 26.34 54 25.68 54 25 C55.50390625 23.73828125 55.50390625 23.73828125 57.5625 22.3125 C61.80669209 19.24851106 65.40762557 15.79444549 69 12 C72.84408485 13.32066976 75.28560831 14.91227753 78.21875 17.70703125 C114.90346355 51.28171648 168.7831899 67.54568152 217.75 67.3125 C218.92305695 67.31026428 218.92305695 67.31026428 220.11981201 67.3079834 C232.63890345 67.26527244 244.7017533 66.46724085 257 64 C258.43740452 63.74165567 259.87490366 63.48383725 261.3125 63.2265625 C277.98372851 60.04308335 294.18212224 54.05256203 310 48 C310.14667378 52.45798044 310.23453375 56.91533054 310.3125 61.375 C310.35439453 62.62667969 310.39628906 63.87835938 310.43945312 65.16796875 C310.56976775 75.12400592 308.34253601 81.17189244 302.75 89.25 C293.55321441 98.44678559 283.65179117 101.31582367 270.83543783 101.40589231 C269.5452562 101.39988227 268.25507456 101.39387222 266.92579651 101.38768005 C265.51844434 101.39185942 264.11109555 101.39734023 262.70375293 101.40399987 C258.85957856 101.41839414 255.01561968 101.41422874 251.17143381 101.40683305 C247.01660258 101.40208874 242.86181713 101.41462233 238.70700073 101.42485046 C230.57655411 101.44201874 222.44618484 101.44288262 214.3157248 101.43763756 C207.70563756 101.43359117 201.09557313 101.43504499 194.48548698 101.44038582 C193.54361965 101.44113424 192.60175232 101.44188266 191.63134355 101.44265376 C189.71776493 101.44418529 187.80418632 101.44572363 185.89060771 101.44726873 C167.95856148 101.46098649 150.02655893 101.45556104 132.09451371 101.44408352 C115.7001929 101.43415058 99.30598494 101.44709416 82.91168154 101.47101771 C66.06394522 101.49541709 49.21626144 101.5050146 32.3685078 101.49836498 C22.91536771 101.4948748 13.46231441 101.49709164 4.0091877 101.51461601 C-4.03743034 101.52934841 -12.08390046 101.52995979 -20.13051563 101.5125451 C-24.23320536 101.50404152 -28.33563096 101.50186974 -32.43830681 101.51719666 C-36.19933219 101.53107294 -39.95986788 101.52624339 -43.72086514 101.50695742 C-45.71448246 101.50143888 -47.7081249 101.51544431 -49.70169443 101.53031152 C-61.60288711 101.43326563 -71.40258551 98.51361903 -80 90 C-87.48469109 80.8938988 -90.29188837 71.13753304 -89.77023315 59.51721191 C-88.87283319 51.7609359 -83.64119346 47.34612345 -78.16015625 42.296875 C-77.03456569 41.19733637 -75.91275722 40.09391424 -74.79454041 38.98687744 C-71.86267621 36.10626029 -68.87973668 33.28488431 -65.88293457 30.47210693 C-63.45786796 28.17802612 -61.07236614 25.84504415 -58.68790531 23.50889206 C-21.79820925 -12.6205702 -21.79820925 -12.6205702 0 0 Z " fill="#8FB506" transform="translate(109,357)"/>
<path d="M0 0 C1.10531098 -0.00256327 2.21062197 -0.00512655 3.34942722 -0.0077675 C7.0421833 -0.01269726 10.73452786 0.00377477 14.42724609 0.02018738 C17.07864805 0.02103382 19.73002504 0.02069017 22.38142395 0.01885986 C28.08406816 0.01728988 33.78660907 0.02667021 39.48922729 0.04357338 C47.73415032 0.06799626 55.9790236 0.075772 64.22397888 0.07953735 C77.60214701 0.08609669 90.98026015 0.10604377 104.35839844 0.13444519 C117.35090867 0.16199918 130.34340394 0.1832262 143.3359375 0.19596863 C144.13733752 0.1967568 144.93873755 0.19754497 145.76442242 0.19835702 C149.78497241 0.20227225 153.80552252 0.20606335 157.82607269 0.20979273 C191.15932507 0.24087252 224.49247513 0.29616688 257.82568359 0.36076355 C257.82568359 20.49076355 257.82568359 40.62076355 257.82568359 61.36076355 C257.49568359 61.36076355 257.16568359 61.36076355 256.82568359 61.36076355 C256.82568359 41.56076355 256.82568359 21.76076355 256.82568359 1.36076355 C191.15568359 1.69076355 125.48568359 2.02076355 57.82568359 2.36076355 C49.99999412 29.7506767 46.88541726 53.59795473 46.16699219 81.82804871 C46.11986084 83.58254333 46.11986084 83.58254333 46.07177734 85.3724823 C46.03588501 86.92648743 46.03588501 86.92648743 45.99926758 88.5118866 C45.83409993 91.22263377 45.39545441 93.71046598 44.82568359 96.36076355 C44.02656495 106.97201111 45.26664388 115.40280809 50.74755859 124.57804871 C52.76196788 128.08960542 54.09251702 131.62244987 55.34130859 135.4818573 C55.7875889 136.83553689 56.23438482 138.18904658 56.68164062 139.54240417 C56.90901917 140.23825623 57.13639771 140.93410828 57.3706665 141.65104675 C61.33465897 153.72387638 65.54686747 165.27827485 71.82568359 176.36076355 C72.51859345 177.66005241 73.20860066 178.9608926 73.89599609 180.2631073 C81.40166522 194.28752919 90.4530445 207.22253118 101.16870117 218.98429871 C104.82568359 223.05580055 104.82568359 223.05580055 104.82568359 226.36076355 C103.14599609 228.36857605 103.14599609 228.36857605 100.95068359 230.48576355 C100.23138672 231.18959167 99.51208984 231.8934198 98.77099609 232.61857605 C95.69624621 235.37226771 93.17102526 235.91002209 89.01318359 235.80607605 C83.93980033 234.77328017 80.73074267 230.32976281 77.26904297 226.75187683 C65.84184869 214.96880707 55.04069343 205.14541749 37.78271484 204.1927948 C17.28649269 204.06548907 5.27607162 211.14978675 -9.06607056 225.21614075 C-13.86219419 229.96280368 -18.61372233 234.75363583 -23.36181641 239.54826355 C-26.14412851 242.35709491 -28.92971252 245.16262283 -31.71728516 247.9662323 C-32.35256638 248.60981186 -32.9878476 249.25339142 -33.64237976 249.91647339 C-35.13424803 251.41681136 -36.65159491 252.89174884 -38.17431641 254.36076355 C-38.50431641 254.36076355 -38.83431641 254.36076355 -39.17431641 254.36076355 C-39.26564188 225.61255601 -39.33639381 196.86436563 -39.37857772 168.11604149 C-39.38358032 164.71909965 -39.38875763 161.32215809 -39.39404297 157.92521667 C-39.39509221 157.24897023 -39.39614145 156.57272378 -39.39722249 155.87598501 C-39.41460963 144.93809983 -39.44613793 134.00029906 -39.48292759 123.06246389 C-39.5203842 111.83236022 -39.54226297 100.60229859 -39.55067039 89.37212932 C-39.55588145 83.06718156 -39.56811467 76.76242503 -39.59723663 70.4575386 C-39.62443921 64.51994403 -39.63275147 58.58261901 -39.62674713 52.64496803 C-39.62784519 50.46897605 -39.63576994 48.29297481 -39.65113831 46.11703682 C-39.6711417 43.13806581 -39.66621763 40.16010259 -39.65533447 37.18110657 C-39.67281152 35.89993129 -39.67281152 35.89993129 -39.69064164 34.59287369 C-39.58947974 24.29603603 -35.48571878 16.81366162 -28.47119141 9.4896698 C-20.24204572 1.86231538 -10.85366247 -0.09267978 0 0 Z " fill="#D1DBFC" transform="translate(59.17431640625,129.6392364501953)"/>
<path d="M0 0 C8.15055861 5.8167504 14.55344229 13.32232819 17.375 23.0625 C18.9879418 33.22403334 17.78446953 42.57119226 12.45703125 51.62109375 C5.46287039 61.11202599 -2.52562679 65.49881274 -14 68 C-23.39138524 69.31420328 -32.23860686 66.25510975 -39.83203125 60.78515625 C-48.20301881 53.89228902 -53.27562083 46.4519466 -54.33984375 35.50390625 C-54.64139347 24.29831869 -52.25199067 15.66122029 -45 7 C-32.8981968 -4.75405023 -15.19571476 -8.59391795 0 0 Z " fill="#FCCB51" transform="translate(157,201)"/>
<path d="M0 0 C0.70759964 -0.00817749 1.41519928 -0.01635498 2.14424133 -0.02478027 C4.49255531 -0.04964477 6.84080851 -0.06615851 9.18920898 -0.08056641 C9.9925511 -0.08589008 10.79589321 -0.09121376 11.62357903 -0.09669876 C15.88087892 -0.12344299 20.13814944 -0.14280829 24.39550781 -0.15722656 C27.90977194 -0.17053294 31.42345087 -0.19832157 34.9375 -0.23925781 C39.18685617 -0.28875843 43.43568394 -0.3133697 47.68531609 -0.32045364 C49.29955751 -0.32714017 50.91378836 -0.34229416 52.52786446 -0.36634445 C62.42886894 -0.50537936 70.43142966 -0.26153722 77.95484924 6.94863892 C84.55394328 13.87397106 85.58961427 20.90559328 85.81030273 30.13037109 C85.84446289 31.10039063 85.87862305 32.07041016 85.91381836 33.06982422 C85.99568847 35.44405746 86.06503352 37.81794986 86.12280273 40.19287109 C86.78280273 39.86287109 87.44280273 39.53287109 88.12280273 39.19287109 C92.86070362 38.54129337 96.11799485 38.53667003 100.18530273 41.19287109 C102.16372639 44.25623675 102.99573969 46.36810723 102.70874023 50.04443359 C100.10486421 59.591979 88.33556243 68.72790579 81.12280273 75.19287109 C77.36922137 77.06966178 74.0885078 77.25865433 70.12280273 76.19287109 C65.80318956 73.03354728 62.25440743 69.21728262 58.62280273 65.31787109 C57.61445138 64.27290544 56.60404992 63.22991398 55.59155273 62.18896484 C47.25657994 53.55293937 47.25657994 53.55293937 46.74780273 48.38037109 C46.81489163 45.03202545 47.14341527 44.16095492 49.06030273 41.19287109 C53.08404949 38.56511811 56.42520239 38.35715568 61.12280273 39.19287109 C62.60780273 40.18287109 62.60780273 40.18287109 64.12280273 41.19287109 C64.15168788 38.04705686 64.16956196 34.9012764 64.18530273 31.75537109 C64.19787109 30.40862305 64.19787109 30.40862305 64.21069336 29.03466797 C64.21552734 27.75366211 64.21552734 27.75366211 64.22045898 26.44677734 C64.22831421 25.26063843 64.22831421 25.26063843 64.23632812 24.05053711 C64.32776183 22.17694421 64.32776183 22.17694421 63.12280273 21.19287109 C61.00720633 21.09523941 58.88835564 21.06770842 56.77050781 21.06689453 C56.10700317 21.0650264 55.44349854 21.06315826 54.7598877 21.06123352 C53.31391095 21.05722025 51.86792783 21.05515384 50.42194557 21.05477142 C47.34587423 21.05136378 44.27001575 21.03000637 41.19401836 21.00954056 C35.46281456 20.97149614 29.73183262 20.94025136 24.00048828 20.94238281 C20.01789664 20.94317122 16.03607631 20.91974716 12.05368614 20.88050079 C10.53753823 20.87005338 9.02130113 20.86850757 7.50513649 20.87615204 C5.37660519 20.88580862 3.25039256 20.8645307 1.12207031 20.83642578 C-0.0873674 20.83278015 -1.29680511 20.82913452 -2.54289246 20.82537842 C-7.0010724 19.97967545 -8.66531771 18.35548073 -11.87719727 15.19287109 C-13.42744191 12.09238181 -13.16711742 9.61392892 -12.87719727 6.19287109 C-9.09834903 0.39863713 -6.69845424 0.06714254 0 0 Z " fill="#FEFDFD" transform="translate(377.877197265625,72.80712890625)"/>
<path d="M0 0 C4.21140263 1.36187375 6.98312627 4.58395966 10.03540039 7.65820312 C11.45928255 8.95080073 12.88639526 10.23984824 14.31665039 11.52539062 C15.72550327 12.85858289 17.13174898 14.19453558 18.53540039 15.53320312 C19.26243164 16.18933594 19.98946289 16.84546875 20.73852539 17.52148438 C25.75777416 22.36147426 25.75777416 22.36147426 26.55078125 26.06542969 C26.6184803 29.84586691 26.24723614 32.21611114 24.59790039 35.65820312 C21.04163446 38.43382532 17.5130789 38.97980434 13.03540039 38.65820312 C12.04540039 37.99820313 11.05540039 37.33820313 10.03540039 36.65820312 C10.00856052 39.63742906 9.98864002 42.61641607 9.97290039 45.59570312 C9.96033203 46.8709082 9.96033203 46.8709082 9.94750977 48.171875 C9.94428711 48.98076172 9.94106445 49.78964844 9.93774414 50.62304688 C9.93250732 51.37191162 9.92727051 52.12077637 9.921875 52.89233398 C9.84198287 54.68488051 9.84198287 54.68488051 11.03540039 55.65820312 C13.18691425 55.75587522 15.34163176 55.78336604 17.49536133 55.78417969 C18.17022583 55.78604782 18.84509033 55.78791595 19.54040527 55.7898407 C21.0109392 55.79385382 22.48147939 55.79592037 23.95201874 55.7963028 C27.0782052 55.79970896 30.20418192 55.82106265 33.33029556 55.84153366 C39.15552675 55.879595 44.98053863 55.91082056 50.8059082 55.90869141 C54.85332932 55.90790394 58.89998973 55.93128611 62.94721222 55.97057343 C64.48930694 55.98103395 66.03148947 55.98255698 67.57360077 55.97492218 C69.73585541 55.96528842 71.89581391 55.98650044 74.05786133 56.01464844 C75.90199615 56.02011688 75.90199615 56.02011688 77.78338623 56.0256958 C81.90584493 56.82750206 83.37165266 58.49854369 86.03540039 61.65820312 C86.36540039 61.98820312 86.69540039 62.31820312 87.03540039 62.65820312 C87.12314218 65.74796771 86.81581066 68.66750337 86.03540039 71.65820312 C83.03892993 74.73150616 80.55109118 76.58216455 76.23594666 76.79864502 C75.04175613 76.80547302 73.84756561 76.81230103 72.6171875 76.81933594 C71.62893982 76.82678329 71.62893982 76.82678329 70.62072754 76.8343811 C68.43472249 76.84901744 66.24879021 76.85581 64.06274414 76.86132812 C62.5401662 76.86708196 61.01758828 76.87283967 59.49501038 76.87860107 C56.29631208 76.8891177 53.09763894 76.89495484 49.89892578 76.8984375 C45.81927185 76.90389888 41.73995563 76.92787303 37.66040707 76.95640945 C34.51092089 76.97513326 31.36151411 76.98024676 28.21197701 76.98177338 C26.70941907 76.98478264 25.20686196 76.99275224 23.70435905 77.00595856 C12.30409529 77.0989411 3.33055724 76.58205899 -5.30444336 68.42773438 C-9.90919407 63.51961185 -11.10044461 59.0235424 -11.06225586 52.45507812 C-11.0590332 51.47539062 -11.05581055 50.49570313 -11.05249023 49.48632812 C-11.04411133 48.47054687 -11.03573242 47.45476562 -11.02709961 46.40820312 C-11.02258789 45.37695312 -11.01807617 44.34570312 -11.01342773 43.28320312 C-11.00166049 40.74147739 -10.98521972 38.19986993 -10.96459961 35.65820312 C-11.72901367 36.14289063 -12.49342773 36.62757813 -13.28100586 37.12695312 C-16.58475005 39.01205898 -18.21301328 39.27070702 -21.96459961 38.65820312 C-24.88612663 36.82375592 -27.39726051 34.79288132 -28.96459961 31.65820312 C-29.56975426 28.7534608 -29.73484001 27.45292674 -28.96459961 24.65820312 C-26.78899294 21.51254503 -24.18794419 18.87730474 -21.47583008 16.18994141 C-19.77872878 14.46980998 -18.15706764 12.69165822 -16.53100586 10.90429688 C-15.32271658 9.61267169 -14.11308502 8.32230085 -12.90209961 7.03320312 C-12.05494385 6.09045532 -12.05494385 6.09045532 -11.19067383 5.12866211 C-7.75839085 1.57355095 -5.08886814 -0.44532949 0 0 Z " fill="#FEFCFC" transform="translate(375.964599609375,109.341796875)"/>
</svg>
