<?xml version="1.0" encoding="UTF-8"?>
<svg version="1.1" xmlns="http://www.w3.org/2000/svg" width="512" height="512">
<path d="M0 0 C1.87743028 -0.00532808 3.7548563 -0.01239528 5.63227421 -0.02104706 C10.78044194 -0.03966641 15.92832185 -0.03337176 21.07650149 -0.02289402 C26.63284917 -0.01590008 32.18913784 -0.03190144 37.74546814 -0.04489136 C48.62631307 -0.06653317 59.50705342 -0.06640398 70.3879128 -0.05826581 C79.23154018 -0.05196596 88.07513706 -0.05310272 96.91876411 -0.05953789 C98.17744684 -0.06043954 99.43612957 -0.0613412 100.73295419 -0.06227018 C103.28995808 -0.06412138 105.84696196 -0.06598394 108.40396584 -0.06785773 C125.57144827 -0.07972779 142.73891899 -0.08413681 159.90640163 -0.07292271 C160.91298427 -0.07226575 160.91298427 -0.07226575 161.93990191 -0.07159552 C167.38908334 -0.06798882 172.83826461 -0.06415399 178.28744588 -0.06030459 C199.54316442 -0.04545694 220.79875447 -0.0542378 242.05445862 -0.08226013 C265.94518645 -0.11369623 289.83583872 -0.12858759 313.72659451 -0.11846012 C316.27449706 -0.11743757 318.82239963 -0.11644296 321.3703022 -0.11547661 C323.25071444 -0.11476202 323.25071444 -0.11476202 325.16911481 -0.114033 C334.00112856 -0.11186868 342.83308246 -0.12167394 351.66508293 -0.13624763 C362.42988281 -0.15376287 373.19450806 -0.15366505 383.95930105 -0.13089598 C389.45120706 -0.11974666 394.94280531 -0.11660726 400.4346981 -0.13519669 C405.46389945 -0.15200087 410.49252457 -0.14565083 415.52168859 -0.1209799 C417.33921416 -0.11609607 419.15678621 -0.11961374 420.9742729 -0.13246734 C431.98022156 -0.20467519 440.4963643 0.43886332 449.33253479 7.6552887 C450.23165588 8.69942932 450.23165588 8.69942932 451.14894104 9.7646637 C451.76640198 10.45044495 452.38386292 11.1362262 453.02003479 11.8427887 C458.02344253 19.7465552 458.13665091 27.80247582 458.07220459 36.93521118 C458.07351467 38.28354065 458.07614481 39.63186936 458.07997209 40.98019403 C458.08664934 44.66547046 458.07472278 48.3504831 458.0596379 52.03572595 C458.0466417 56.01719966 458.05106953 59.99865936 458.05334473 63.98014832 C458.0549152 70.87177089 458.04552965 77.76330804 458.02863121 84.65490913 C458.0042151 94.61890419 457.99643327 104.58285809 457.99266724 114.54687982 C457.98610685 130.71414302 457.96615689 146.88136073 457.9377594 163.04859924 C457.91020815 178.75041985 457.88897978 194.45222808 457.87623596 210.15406799 C457.87544779 211.12247704 457.87465962 212.0908861 457.87384757 213.08864088 C457.86993236 217.94702825 457.86614126 222.8054157 457.86241186 227.66380322 C457.8313288 267.94745502 457.77850424 308.23105675 457.71144104 348.5146637 C454.08461331 344.95112744 450.91599297 341.28508417 447.89894104 337.2021637 C442.93849413 330.63885443 437.83297194 324.68912275 431.08131409 319.90333557 C430.45041367 319.45534607 429.81951324 319.00735657 429.16949463 318.54579163 C428.68833694 318.20551941 428.20717926 317.86524719 427.71144104 317.5146637 C427.51124081 322.95471997 427.36739378 328.39255982 427.27198792 333.83546448 C427.23215631 335.68024614 427.17786704 337.52478201 427.10792542 339.3686676 C426.61712979 352.65623741 428.14789666 360.49550898 435.71144104 371.5146637 C435.71144104 372.1746637 435.71144104 372.8346637 435.71144104 373.5146637 C432.74144104 373.5146637 429.77144104 373.5146637 426.71144104 373.5146637 C426.71144104 383.4146637 426.71144104 393.3146637 426.71144104 403.5146637 C429.02144104 403.8446637 431.33144104 404.1746637 433.71144104 404.5146637 C437.47334016 406.56730237 440.15814158 409.5185933 441.71144104 413.5146637 C441.97886658 416.1572113 441.97886658 416.1572113 442.00196838 419.19776917 C442.01472809 420.3393045 442.02748779 421.48083984 442.04063416 422.65696716 C442.04397263 424.50078476 442.04397263 424.50078476 442.04737854 426.3818512 C442.05403534 427.64933197 442.06069214 428.91681274 442.06755066 430.22270203 C442.07767773 432.90431256 442.08323278 435.58551766 442.08204651 438.2671051 C442.08184344 441.69252631 442.10913698 445.11711674 442.14359093 448.54234123 C442.17126254 451.82214633 442.1700106 455.10194525 442.17237854 458.3818512 C442.18674957 459.60701447 442.20112061 460.83217773 442.21592712 462.09446716 C442.18147563 468.52110835 442.13747907 472.68100429 437.71144104 477.5146637 C434.01154631 480.94383442 431.13220614 481.81436118 426.21144104 482.0146637 C421.29067594 481.81436118 418.41133577 480.94383442 414.71144104 477.5146637 C411.74355731 473.76575793 410.71144104 472.35696752 410.71144104 467.5146637 C409.87483948 468.03415588 409.03823792 468.55364807 408.17628479 469.08888245 C388.71030523 480.8634124 366.12907714 485.48410731 343.64894104 480.0146637 C331.4098521 476.0826487 320.2286389 470.19733115 310.71144104 461.5146637 C310.10300354 460.99774963 309.49456604 460.48083557 308.86769104 459.94825745 C304.81645939 456.27452693 301.86723378 452.00698843 298.89894104 447.4521637 C298.51343079 446.86225647 298.12792053 446.27234924 297.73072815 445.66456604 C295.44958473 442.04487538 293.99444293 438.57791824 292.71144104 434.5146637 C297.97657145 434.34066353 303.24000312 434.21415459 308.50733948 434.13014221 C310.29604773 434.095098 312.08455775 434.04744569 313.87257385 433.98658752 C330.66392343 433.42968379 330.66392343 433.42968379 335.61378479 437.8662262 C336.66395983 439.06718701 337.69941853 440.28138152 338.71144104 441.5146637 C341.31525809 443.2220136 341.31525809 443.2220136 343.77394104 444.3271637 C344.93603088 444.89370667 344.93603088 444.89370667 346.12159729 445.47169495 C357.39163799 450.01030862 370.50725031 450.29424353 381.90675354 445.9365387 C386.937075 443.38634787 391.34233402 440.0581127 395.71144104 436.5146637 C395.13700256 436.50008118 394.56256409 436.48549866 393.97071838 436.47047424 C391.34198408 436.39552645 388.71445552 436.29902376 386.08644104 436.2021637 C385.18280823 436.1796051 384.27917542 436.15704651 383.34815979 436.13380432 C377.34759456 435.89290572 372.64544487 435.25353188 368.06690979 430.97950745 C363.70909033 425.28082046 362.92239532 421.64806352 363.71144104 414.5146637 C365.19538624 410.48156511 367.09018658 407.92883334 370.71144104 405.5146637 C332.76144104 405.1846637 294.81144104 404.8546637 255.71144104 404.5146637 C261.77685975 442.42353064 272.79026004 470.28632209 304.03175354 493.2177887 C304.66855042 493.66638245 305.30534729 494.1149762 305.96144104 494.5771637 C306.86894104 495.2165387 307.77644104 495.8559137 308.71144104 496.5146637 C308.71144104 496.8446637 308.71144104 497.1746637 308.71144104 497.5146637 C267.62301819 497.60625262 226.53460866 497.67671938 185.44610409 497.71892501 C180.59338746 497.72392774 175.74067104 497.72910504 170.88795471 497.73439026 C169.92188094 497.7354395 168.95580717 497.73648874 167.96045844 497.73756978 C152.32533087 497.75496706 136.69026223 497.78650103 121.0551696 497.82327488 C105.00781407 497.86070312 88.96048935 497.88290353 72.91309196 497.89101768 C63.01385513 497.89650154 53.11478488 497.91381142 43.21559934 497.94632956 C36.42402906 497.96750069 29.6325447 497.97385786 22.84094384 497.96866921 C18.92462658 497.96611146 15.00860008 497.96998593 11.09233475 497.9914856 C7.50116812 498.01105579 3.91048576 498.01186672 0.3192961 497.99825928 C-1.5833574 497.99578839 -3.48600582 498.01294639 -5.38857538 498.03098893 C-15.95459276 497.95784836 -24.83771922 495.8250455 -32.63230896 488.3818512 C-38.21228623 482.09121645 -39.43927206 476.14022553 -39.42557335 467.94450188 C-39.42822518 467.17467244 -39.430877 466.404843 -39.43360919 465.6116854 C-39.44130452 463.01690382 -39.44186145 460.42216955 -39.44245911 457.82737732 C-39.44647357 455.95426693 -39.45091176 454.08115741 -39.45573866 452.20804894 C-39.46771171 447.04867702 -39.4733543 441.88931445 -39.47791982 436.72993135 C-39.48387307 431.17010668 -39.49548355 425.6102932 -39.50621033 420.05047607 C-39.53073973 406.61779621 -39.54536179 393.18511264 -39.55827039 379.75241727 C-39.56198178 375.95935539 -39.56595505 372.16629388 -39.57002306 368.37323236 C-39.5952578 344.82561206 -39.61732991 321.27799078 -39.62975121 297.73036003 C-39.6326725 292.27532321 -39.63564003 286.82028641 -39.63865662 281.36524963 C-39.63902753 280.68753534 -39.63939843 280.00982105 -39.63978058 279.31156997 C-39.65193534 257.33983742 -39.68287879 235.36818499 -39.72457814 213.39649007 C-39.76858743 190.16528136 -39.79428626 166.93411816 -39.79967177 143.70286191 C-39.80308739 131.0398021 -39.81486057 118.37686871 -39.84777451 105.71384811 C-39.87575626 94.93064902 -39.88678249 84.14760226 -39.87557904 73.36436968 C-39.87038778 67.86235731 -39.87331002 62.36066403 -39.89804459 56.85869789 C-39.92050717 51.82006963 -39.91982019 46.78199024 -39.90084071 41.74335255 C-39.89803655 39.92230276 -39.90366233 38.10121598 -39.91865365 36.28022574 C-39.9985208 25.9454124 -39.89822743 16.91635492 -32.73136365 8.73760974 C-31.00691046 7.10978866 -29.27445249 5.80778694 -27.28855896 4.5146637 C-26.73019771 4.14728987 -26.17183646 3.77991605 -25.59655517 3.40140969 C-17.65052481 -0.86016338 -8.75204962 -0.0432811 0 0 Z " fill="#FEFEFE" transform="translate(39.28855895996094,-0.5146636962890625)"/>
<path d="M0 0 C1.87743028 -0.00532808 3.7548563 -0.01239528 5.63227421 -0.02104706 C10.78044194 -0.03966641 15.92832185 -0.03337176 21.07650149 -0.02289402 C26.63284917 -0.01590008 32.18913784 -0.03190144 37.74546814 -0.04489136 C48.62631307 -0.06653317 59.50705342 -0.06640398 70.3879128 -0.05826581 C79.23154018 -0.05196596 88.07513706 -0.05310272 96.91876411 -0.05953789 C98.17744684 -0.06043954 99.43612957 -0.0613412 100.73295419 -0.06227018 C103.28995808 -0.06412138 105.84696196 -0.06598394 108.40396584 -0.06785773 C125.57144827 -0.07972779 142.73891899 -0.08413681 159.90640163 -0.07292271 C160.91298427 -0.07226575 160.91298427 -0.07226575 161.93990191 -0.07159552 C167.38908334 -0.06798882 172.83826461 -0.06415399 178.28744588 -0.06030459 C199.54316442 -0.04545694 220.79875447 -0.0542378 242.05445862 -0.08226013 C265.94518645 -0.11369623 289.83583872 -0.12858759 313.72659451 -0.11846012 C316.27449706 -0.11743757 318.82239963 -0.11644296 321.3703022 -0.11547661 C323.25071444 -0.11476202 323.25071444 -0.11476202 325.16911481 -0.114033 C334.00112856 -0.11186868 342.83308246 -0.12167394 351.66508293 -0.13624763 C362.42988281 -0.15376287 373.19450806 -0.15366505 383.95930105 -0.13089598 C389.45120706 -0.11974666 394.94280531 -0.11660726 400.4346981 -0.13519669 C405.46389945 -0.15200087 410.49252457 -0.14565083 415.52168859 -0.1209799 C417.33921416 -0.11609607 419.15678621 -0.11961374 420.9742729 -0.13246734 C431.98022156 -0.20467519 440.4963643 0.43886332 449.33253479 7.6552887 C450.23165588 8.69942932 450.23165588 8.69942932 451.14894104 9.7646637 C451.76640198 10.45044495 452.38386292 11.1362262 453.02003479 11.8427887 C458.02344253 19.7465552 458.13665091 27.80247582 458.07220459 36.93521118 C458.07351467 38.28354065 458.07614481 39.63186936 458.07997209 40.98019403 C458.08664934 44.66547046 458.07472278 48.3504831 458.0596379 52.03572595 C458.0466417 56.01719966 458.05106953 59.99865936 458.05334473 63.98014832 C458.0549152 70.87177089 458.04552965 77.76330804 458.02863121 84.65490913 C458.0042151 94.61890419 457.99643327 104.58285809 457.99266724 114.54687982 C457.98610685 130.71414302 457.96615689 146.88136073 457.9377594 163.04859924 C457.91020815 178.75041985 457.88897978 194.45222808 457.87623596 210.15406799 C457.87544779 211.12247704 457.87465962 212.0908861 457.87384757 213.08864088 C457.86993236 217.94702825 457.86614126 222.8054157 457.86241186 227.66380322 C457.8313288 267.94745502 457.77850424 308.23105675 457.71144104 348.5146637 C454.08458969 344.95110424 450.91619808 341.28493663 447.89894104 337.2021637 C441.07354174 328.17752559 441.07354174 328.17752559 432.39660722 321.02328306 C426.22098199 317.01158179 426.22098199 317.01158179 424.88420522 313.08442867 C424.57159593 310.12624779 424.54657263 307.28518873 424.61810303 304.31115723 C424.60915191 303.1905163 424.6002008 302.06987538 424.59097844 300.91527563 C424.5718212 297.16320787 424.61677886 293.41466784 424.66139221 289.66285706 C424.66061672 286.97199672 424.6562541 284.28136808 424.64732361 281.59054565 C424.63503518 275.79811981 424.65513147 270.00653962 424.69693565 264.21426201 C424.75702328 255.83325026 424.76351567 247.45285143 424.7563018 239.07165832 C424.74566824 225.46453589 424.77219691 211.85776321 424.82496643 198.25074768 C424.87602711 185.04991124 424.91959696 171.84911989 424.94606018 158.64820862 C424.94851887 157.42840066 424.94851887 157.42840066 424.95102724 156.18395012 C424.96846429 147.30506011 424.98096652 138.4261789 424.98557758 129.54727268 C424.98598296 128.76683314 424.98638834 127.9863936 424.98680601 127.18230437 C424.98830731 124.06234172 424.98967327 120.94237933 424.99031679 117.82241637 C424.99220464 108.69096396 425.00973084 99.55987898 425.05583004 90.42853726 C425.08414946 84.70187602 425.09913777 78.97528604 425.10365798 73.24855679 C425.10687341 69.94437821 425.11910405 66.64064402 425.14451408 63.33655167 C425.17124403 59.7545286 425.17354562 56.17328823 425.16986084 52.59118652 C425.18376033 51.54731858 425.19765983 50.50345063 425.21198052 49.42795032 C425.17676537 43.68298379 424.894716 39.84792875 420.71144104 35.5146637 C415.74073618 32.9766227 412.1061826 32.13903296 406.44812679 32.13434696 C405.74792588 32.12968704 405.04772496 32.12502712 404.32630584 32.120226 C401.98630592 32.10830054 399.64688926 32.11766159 397.30688477 32.12698364 C395.609823 32.12280966 393.91276402 32.11733179 392.21571022 32.11066383 C387.55700687 32.09619929 382.89848027 32.10045709 378.23976719 32.10783064 C373.21380837 32.11255741 368.18788805 32.10005692 363.16194153 32.08981323 C353.31824321 32.07261122 343.47460869 32.071788 333.63089924 32.07702614 C325.63196846 32.08106587 317.63305654 32.07962662 309.63412666 32.07427788 C308.49613396 32.07352946 307.35814126 32.07278103 306.18566393 32.07200993 C303.87394205 32.07047848 301.56222017 32.06894013 299.2504983 32.06739496 C277.56928663 32.05366526 255.88811104 32.05911129 234.20690019 32.07058018 C214.36235979 32.08051668 194.51791259 32.06756548 174.67338657 32.04364599 C154.30352274 32.01927793 133.93370235 32.00964124 113.56382424 32.01629871 C102.12498487 32.01979557 90.68621721 32.01752795 79.24738884 32.00004768 C69.51157524 31.98535453 59.77588386 31.98465259 50.04007273 32.00211859 C45.07122537 32.01065411 40.10259663 32.01271598 35.13376045 31.99746704 C30.58709298 31.98368615 26.04083278 31.98829758 21.49418927 32.00770628 C19.84760131 32.0114869 18.20098123 32.00848533 16.55442172 31.99809463 C14.31875903 31.98498721 12.08451514 31.9964502 9.84891415 32.01409245 C8.60646653 32.01419978 7.36401892 32.01430712 6.08392137 32.01441771 C0.66799449 32.81777175 -2.20691654 35.19842473 -5.63182092 39.36615384 C-7.4751008 42.86917287 -7.79090927 44.9580632 -7.79636765 48.89082146 C-7.81353903 50.7949996 -7.81353903 50.7949996 -7.83105731 52.73764598 C-7.82357529 54.13881489 -7.81572324 55.53998186 -7.80754089 56.94114685 C-7.8134176 58.43538577 -7.82104541 59.92961865 -7.83027196 61.42384064 C-7.85054119 65.5263588 -7.84597604 69.62853135 -7.83736444 73.73107672 C-7.83242299 78.15641021 -7.85050027 82.58165652 -7.86578369 87.00695801 C-7.88910785 94.67291632 -7.8978437 102.33878 -7.89667511 110.00477219 C-7.8950066 121.08849094 -7.91533314 132.17208346 -7.94103041 143.25576855 C-7.98212489 161.23821964 -8.00542775 179.22064803 -8.01756287 197.20314026 C-8.02938914 214.67158698 -8.04962729 232.13999076 -8.08103943 249.6084137 C-8.0839577 251.23997961 -8.0839577 251.23997961 -8.08693492 252.90450644 C-8.10221578 261.41110141 -8.11798458 269.91769545 -8.13390756 278.42428923 C-8.21183228 320.12107372 -8.24719712 361.81779594 -8.28855896 403.5146637 C78.83144104 403.5146637 165.95144104 403.5146637 255.71144104 403.5146637 C256.70144104 410.7746637 257.69144104 418.0346637 258.71144104 425.5146637 C265.35506242 452.46878471 279.39359543 474.46861253 301.64503479 491.1396637 C304.22914721 493.14111637 306.43599178 495.18483958 308.71144104 497.5146637 C267.62301819 497.60625262 226.53460866 497.67671938 185.44610409 497.71892501 C180.59338746 497.72392774 175.74067104 497.72910504 170.88795471 497.73439026 C169.92188094 497.7354395 168.95580717 497.73648874 167.96045844 497.73756978 C152.32533087 497.75496706 136.69026223 497.78650103 121.0551696 497.82327488 C105.00781407 497.86070312 88.96048935 497.88290353 72.91309196 497.89101768 C63.01385513 497.89650154 53.11478488 497.91381142 43.21559934 497.94632956 C36.42402906 497.96750069 29.6325447 497.97385786 22.84094384 497.96866921 C18.92462658 497.96611146 15.00860008 497.96998593 11.09233475 497.9914856 C7.50116812 498.01105579 3.91048576 498.01186672 0.3192961 497.99825928 C-1.5833574 497.99578839 -3.48600582 498.01294639 -5.38857538 498.03098893 C-15.95459276 497.95784836 -24.83771922 495.8250455 -32.63230896 488.3818512 C-38.21228623 482.09121645 -39.43927206 476.14022553 -39.42557335 467.94450188 C-39.42822518 467.17467244 -39.430877 466.404843 -39.43360919 465.6116854 C-39.44130452 463.01690382 -39.44186145 460.42216955 -39.44245911 457.82737732 C-39.44647357 455.95426693 -39.45091176 454.08115741 -39.45573866 452.20804894 C-39.46771171 447.04867702 -39.4733543 441.88931445 -39.47791982 436.72993135 C-39.48387307 431.17010668 -39.49548355 425.6102932 -39.50621033 420.05047607 C-39.53073973 406.61779621 -39.54536179 393.18511264 -39.55827039 379.75241727 C-39.56198178 375.95935539 -39.56595505 372.16629388 -39.57002306 368.37323236 C-39.5952578 344.82561206 -39.61732991 321.27799078 -39.62975121 297.73036003 C-39.6326725 292.27532321 -39.63564003 286.82028641 -39.63865662 281.36524963 C-39.63902753 280.68753534 -39.63939843 280.00982105 -39.63978058 279.31156997 C-39.65193534 257.33983742 -39.68287879 235.36818499 -39.72457814 213.39649007 C-39.76858743 190.16528136 -39.79428626 166.93411816 -39.79967177 143.70286191 C-39.80308739 131.0398021 -39.81486057 118.37686871 -39.84777451 105.71384811 C-39.87575626 94.93064902 -39.88678249 84.14760226 -39.87557904 73.36436968 C-39.87038778 67.86235731 -39.87331002 62.36066403 -39.89804459 56.85869789 C-39.92050717 51.82006963 -39.91982019 46.78199024 -39.90084071 41.74335255 C-39.89803655 39.92230276 -39.90366233 38.10121598 -39.91865365 36.28022574 C-39.9985208 25.9454124 -39.89822743 16.91635492 -32.73136365 8.73760974 C-31.00691046 7.10978866 -29.27445249 5.80778694 -27.28855896 4.5146637 C-26.73019771 4.14728987 -26.17183646 3.77991605 -25.59655517 3.40140969 C-17.65052481 -0.86016338 -8.75204962 -0.0432811 0 0 Z " fill="#CCCCCC" transform="translate(39.28855895996094,-0.5146636962890625)"/>
<path d="M0 0 C4.20899489 1.4029983 5.81420073 4.46609724 8.3125 7.9375 C9.38778064 9.40217517 10.46466714 10.86567246 11.54296875 12.328125 C12.10677246 13.09447266 12.67057617 13.86082031 13.25146484 14.65039062 C16.14856934 18.54340008 19.13583548 22.36499512 22.125 26.1875 C23.30999644 27.70565064 24.49489407 29.22387842 25.6796875 30.7421875 C26.24397461 31.4650293 26.80826172 32.18787109 27.38964844 32.93261719 C31.28602331 37.93481586 35.13962505 42.97000814 39 48 C40.66609253 50.16710847 42.33305199 52.33354953 44 54.5 C44.83334905 55.58332124 45.66668241 56.66665456 46.5 57.75 C46.9125 58.28625 47.325 58.8225 47.75 59.375 C61.5 77.25000001 61.5 77.25000001 62.75073242 78.87597656 C63.58159287 79.9560789 64.41248464 81.03615715 65.2434082 82.11621094 C67.36483817 84.87377866 69.48567227 87.63180134 71.60546875 90.390625 C72.03424316 90.94838623 72.46301758 91.50614746 72.90478516 92.08081055 C73.75008454 93.18079377 74.59482483 94.28120689 75.43896484 95.38208008 C78.51740629 99.39168544 81.65001782 103.35566729 84.8203125 107.29296875 C86 109 86 109 86 111 C78.42063528 113.42594495 73.00413132 114.78308128 65.28125 112.03125 C53.56763885 107.97207782 41.08453139 106.7316294 29.4296875 111.7265625 C25.38651041 113.84565532 21.64186714 116.25142103 18 119 C17.16339844 119.61746094 16.32679688 120.23492187 15.46484375 120.87109375 C12.88694178 123.09764933 11.25884846 125.19313665 9.4375 128.0625 C8.87933594 128.91972656 8.32117188 129.77695312 7.74609375 130.66015625 C-4.37380269 153.84250851 1.54801693 170.31105204 1 201 C-80.84 201 -162.68 201 -247 201 C-245.03778861 197.07557722 -242.74601278 193.58787994 -240.25 190 C-239.76829346 189.30358398 -239.28658691 188.60716797 -238.7902832 187.88964844 C-233.15790251 179.75925813 -227.47832572 171.66161753 -221.79833984 163.56445312 C-218.86275016 159.37826875 -215.93156391 155.18900408 -213 151 C-211.83335519 149.33331803 -210.6666885 147.66665138 -209.5 146 C-208.9225 145.175 -208.345 144.35 -207.75 143.5 C-191.125 119.75 -191.125 119.75 -174.5 96 C-173.6332666 94.7617749 -173.6332666 94.7617749 -172.74902344 93.49853516 C-171.58569942 91.83669009 -170.42228836 90.17490595 -169.25878906 88.51318359 C-165.68424712 83.40769638 -162.11316896 78.29980667 -158.54418945 73.19042969 C-156.79170751 70.68463566 -155.03494176 68.18189477 -153.27734375 65.6796875 C-151.16814807 62.67607433 -149.07781937 59.6608781 -147.00390625 56.6328125 C-146.10690832 55.33844638 -145.20978179 54.04416936 -144.3125 52.75 C-143.71550293 51.86368896 -143.71550293 51.86368896 -143.10644531 50.95947266 C-141.98828125 49.359375 -141.98828125 49.359375 -140 47 C-139.01 47 -138.02 47 -137 47 C-135.24332219 48.95866516 -133.68698837 50.89344466 -132.125 53 C-131.13946387 54.29276804 -130.1524242 55.58439092 -129.1640625 56.875 C-128.6474707 57.55304688 -128.13087891 58.23109375 -127.59863281 58.9296875 C-124.96508057 62.3402744 -122.23096528 65.66729661 -119.5 69 C-114.9911936 74.5223935 -110.55155293 80.09187081 -106.1640625 85.7109375 C-102.13022009 90.8639963 -98.00452242 95.93953848 -93.86010742 101.00390625 C-91.13126145 104.34638485 -88.43585343 107.70793259 -85.80078125 111.125 C-85.04474609 112.10339844 -85.04474609 112.10339844 -84.2734375 113.1015625 C-83.31874073 114.34215776 -82.3692769 115.58680241 -81.42578125 116.8359375 C-80.32924904 118.26009213 -79.17025037 119.63577371 -78 121 C-77.34 121 -76.68 121 -76 121 C-74.82374146 119.58629477 -74.82374146 119.58629477 -73.70703125 117.6875 C-73.24965576 116.95442627 -72.79228027 116.22135254 -72.32104492 115.46606445 C-71.8232251 114.65226318 -71.32540527 113.83846191 -70.8125 113 C-70.28567627 112.15203857 -69.75885254 111.30407715 -69.21606445 110.43041992 C-68.07128061 108.58733294 -66.92939663 106.74244241 -65.79003906 104.89599609 C-63.39460008 101.02056003 -60.97572997 97.15998942 -58.55737305 93.29882812 C-56.6542333 90.25937058 -54.75437536 87.21788503 -52.85546875 84.17578125 C-49.07260995 78.11575044 -45.28661089 72.0576868 -41.5 66 C-40.24998536 64.00000915 -38.99998538 62.00000914 -37.75 60 C-35.25 56 -32.75 52 -30.25 48 C-29.32054565 46.51282471 -29.32054565 46.51282471 -28.37231445 44.99560547 C-27.13138348 43.01018064 -25.89033669 41.02482821 -24.64916992 39.03955078 C-21.38442459 33.81716058 -18.12213246 28.59325809 -14.86328125 23.3671875 C-14.18523437 22.28050781 -13.5071875 21.19382813 -12.80859375 20.07421875 C-11.51227577 17.99655843 -10.21666204 15.91845848 -8.921875 13.83984375 C-6.01324463 9.17964257 -3.08430204 4.54609284 0 0 Z " fill="#75A64B" transform="translate(294,187)"/>
<path d="M0 0 C4.97321159 3.39082608 7.67653057 7.31433197 9.75 12.875 C10.63300781 12.34390625 11.51601563 11.8128125 12.42578125 11.265625 C32.00439071 -0.33671712 52.57460691 -4.33919534 74.9921875 0.77734375 C95.19576289 6.67880392 113.37369441 19.73000044 124.0703125 38.1484375 C126.75 43.33916084 126.75 43.33916084 126.75 45.875 C123.78 45.875 120.81 45.875 117.75 45.875 C117.75 55.775 117.75 65.675 117.75 75.875 C120.06 76.205 122.37 76.535 124.75 76.875 C128.51189912 78.92763867 131.19670054 81.8789296 132.75 85.875 C133.01742554 88.51754761 133.01742554 88.51754761 133.04052734 91.55810547 C133.05328705 92.69964081 133.06604675 93.84117615 133.07919312 95.01730347 C133.08141876 96.2465152 133.08364441 97.47572693 133.0859375 98.7421875 C133.0959227 100.64340866 133.0959227 100.64340866 133.10610962 102.58303833 C133.11623669 105.26464886 133.12179174 107.94585397 133.12060547 110.62744141 C133.1204024 114.05286261 133.14769594 117.47745304 133.18214989 120.90267754 C133.2098215 124.18248263 133.20856956 127.46228155 133.2109375 130.7421875 C133.22530853 131.96735077 133.23967957 133.19251404 133.25448608 134.45480347 C133.22003459 140.88144465 133.17603803 145.0413406 128.75 149.875 C125.05010527 153.30417072 122.1707651 154.17469749 117.25 154.375 C112.3292349 154.17469749 109.44989473 153.30417072 105.75 149.875 C102.78211627 146.12609423 101.75 144.71730383 101.75 139.875 C100.91339844 140.39449219 100.07679688 140.91398438 99.21484375 141.44921875 C79.74886419 153.2237487 57.1676361 157.84444362 34.6875 152.375 C22.44841106 148.442985 11.26719786 142.55766746 1.75 133.875 C0.83734375 133.09962891 0.83734375 133.09962891 -0.09375 132.30859375 C-4.14498165 128.63486323 -7.09420726 124.36732474 -10.0625 119.8125 C-10.64076538 118.92763916 -10.64076538 118.92763916 -11.23071289 118.02490234 C-13.51185631 114.40521168 -14.96699811 110.93825454 -16.25 106.875 C-10.98486959 106.70099983 -5.72143792 106.5744909 -0.45410156 106.49047852 C1.33460669 106.4554343 3.12311671 106.40778199 4.91113281 106.34692383 C21.70248239 105.79002009 21.70248239 105.79002009 26.65234375 110.2265625 C27.70251879 111.42752332 28.73797749 112.64171782 29.75 113.875 C32.35381705 115.58234991 32.35381705 115.58234991 34.8125 116.6875 C35.58722656 117.06519531 36.36195313 117.44289063 37.16015625 117.83203125 C48.43019695 122.37064493 61.54580927 122.65457984 72.9453125 118.296875 C77.97563396 115.74668417 82.38089298 112.418449 86.75 108.875 C86.17556152 108.86041748 85.60112305 108.84583496 85.00927734 108.83081055 C82.38054304 108.75586275 79.75301448 108.65936006 77.125 108.5625 C76.22136719 108.53994141 75.31773437 108.51738281 74.38671875 108.49414062 C68.38615352 108.25324202 63.68400383 107.61386818 59.10546875 103.33984375 C54.74764929 97.64115676 53.96095428 94.00839983 54.75 86.875 C56.2339452 82.84190141 58.12874554 80.28916964 61.75 77.875 C60.87827148 77.87135437 60.00654297 77.86770874 59.10839844 77.86395264 C50.8696242 77.82599397 42.63124265 77.76905214 34.39274597 77.69109726 C30.1578116 77.65168638 25.92308317 77.61946681 21.68798828 77.60400391 C17.59636587 77.58879487 13.50530987 77.55427507 9.41394043 77.50669098 C7.85759419 77.49192072 6.30116707 77.48396149 4.74475098 77.48311615 C-10.48397129 77.46653507 -10.48397129 77.46653507 -17.25 72.875 C-21.15033841 68.67463556 -22.36924672 66.17732507 -22.44287109 60.52661133 C-22.45893402 59.40817337 -22.47499695 58.28973541 -22.49154663 57.1374054 C-22.5359748 52.01016052 -22.57751727 46.88300498 -22.60009766 41.75561523 C-22.61340885 39.05214385 -22.64120617 36.34943236 -22.68212891 33.64624023 C-22.73694059 29.74960616 -22.75878152 25.85399914 -22.7734375 21.95703125 C-22.79610687 20.75262894 -22.81877625 19.54822662 -22.84213257 18.30732727 C-22.82403144 11.10381187 -22.21284963 7.20999366 -17.25 1.875 C-12.19510116 -2.47782956 -6.02736789 -2.08639658 0 0 Z " fill="#49A0DC" transform="translate(348.25,327.125)"/>
<path d="M0 0 C1.79284927 -0.00218285 1.79284927 -0.00218285 3.62191772 -0.00440979 C6.13826953 -0.00275577 8.65463198 0.00874942 11.17089844 0.02954102 C15.01801531 0.05855286 18.86375767 0.05012652 22.7109375 0.03710938 C25.16146501 0.04334565 27.61198819 0.05173572 30.0625 0.0625 C31.78299057 0.05809654 31.78299057 0.05809654 33.53823853 0.05360413 C39.19392918 0.12034521 43.57841112 0.17978471 48.3984375 3.49609375 C52.28541413 7.80328407 53.51943131 10.21817506 53.57543945 15.95214844 C53.59469231 17.66467804 53.59469231 17.66467804 53.61433411 19.4118042 C53.62172104 20.6513385 53.62910797 21.8908728 53.63671875 23.16796875 C53.6447905 24.43827942 53.65286224 25.70859009 53.66117859 27.01739502 C53.67503076 29.71085263 53.68604344 32.40418737 53.69360352 35.09765625 C53.704649 38.53877959 53.73902573 41.97925286 53.77877522 45.42014694 C53.81129828 48.71102286 53.81572577 52.00195661 53.82421875 55.29296875 C53.84172684 56.52440613 53.85923492 57.75584351 53.87727356 59.02459717 C53.86093801 65.46985801 53.84693492 69.65207252 49.3984375 74.49609375 C45.69854277 77.92526447 42.8192026 78.79579124 37.8984375 78.99609375 C32.9776724 78.79579124 30.09833223 77.92526447 26.3984375 74.49609375 C23.43055377 70.74718798 22.3984375 69.33839758 22.3984375 64.49609375 C21.56183594 65.01558594 20.72523438 65.53507812 19.86328125 66.0703125 C0.39730169 77.84484245 -22.1839264 82.46553737 -44.6640625 76.99609375 C-56.90315144 73.06407875 -68.08436464 67.17876121 -77.6015625 58.49609375 C-78.21 57.97917969 -78.8184375 57.46226562 -79.4453125 56.9296875 C-83.49654415 53.25595698 -86.44576976 48.98841849 -89.4140625 44.43359375 C-89.79957275 43.84368652 -90.18508301 43.2537793 -90.58227539 42.64599609 C-92.86341881 39.02630543 -94.31856061 35.55934829 -95.6015625 31.49609375 C-90.33643209 31.32209358 -85.07300042 31.19558465 -79.80566406 31.11157227 C-78.01695581 31.07652805 -76.22844579 31.02887574 -74.44042969 30.96801758 C-57.64908011 30.41111384 -57.64908011 30.41111384 -52.69921875 34.84765625 C-51.64904371 36.04861707 -50.61358501 37.26281157 -49.6015625 38.49609375 C-46.99774545 40.20344366 -46.99774545 40.20344366 -44.5390625 41.30859375 C-43.76433594 41.68628906 -42.98960937 42.06398438 -42.19140625 42.453125 C-30.92136555 46.99173868 -17.80575323 47.27567359 -6.40625 42.91796875 C-1.37592854 40.36777792 3.02933048 37.03954275 7.3984375 33.49609375 C6.82399902 33.48151123 6.24956055 33.46692871 5.65771484 33.4519043 C3.02898054 33.3769565 0.40145198 33.28045381 -2.2265625 33.18359375 C-3.13019531 33.16103516 -4.03382813 33.13847656 -4.96484375 33.11523438 C-10.96540898 32.87433577 -15.66755867 32.23496193 -20.24609375 27.9609375 C-24.62522705 22.23437857 -25.34183443 18.65205579 -24.6015625 11.49609375 C-23.33697559 7.21905141 -21.13719566 4.48328396 -17.23291016 2.33178711 C-11.65410937 -0.30737175 -6.0657525 -0.05962012 0 0 Z " fill="#48A0DC" transform="translate(427.6015625,402.50390625)"/>
<path d="M0 0 C9.33702304 7.6634057 16.63130571 18.11848975 18.31787109 30.29492188 C18.47168819 32.6225877 18.51880143 34.91741773 18.5 37.25 C18.49500488 38.07411377 18.49000977 38.89822754 18.48486328 39.74731445 C18.17646028 50.66584409 14.2917355 59.89807166 7 68 C6.40316406 68.68835938 5.80632812 69.37671875 5.19140625 70.0859375 C-3.27298304 79.24859633 -14.20884955 83.1927499 -26.48828125 84.3203125 C-39.87869297 84.75934239 -51.9165082 79.91498688 -61.75 70.75 C-71.48222752 60.32917147 -75.41975898 47.49655058 -75.27734375 33.4765625 C-74.35084799 21.86274236 -68.45968459 10.53014628 -59.98046875 2.59375 C-41.87344518 -11.97758258 -19.2488001 -12.88881644 0 0 Z " fill="#FFCC66" transform="translate(168,102)"/>
<path d="M0 0 C0.73508789 0.8453833 1.47017578 1.6907666 2.22753906 2.56176758 C5.65420762 5.57534092 7.3271314 5.64749513 11.83203125 5.70703125 C12.99710205 5.73514893 14.16217285 5.7632666 15.36254883 5.79223633 C16.83103271 5.79892334 18.2995166 5.80561035 19.8125 5.8125 C24.494375 5.874375 29.17625 5.93625 34 6 C34 16.23 34 26.46 34 37 C27.19461692 37.14485042 20.38923526 37.28800081 13.58374023 37.42724609 C11.28098657 37.47482431 8.97825104 37.52329029 6.67553711 37.57275391 C-9.55203821 37.92051301 -25.76872168 38.0690382 -42 38 C-40.0283713 36.68558087 -38.02817985 35.41285866 -36 34.1875 C-32.75603403 31.82210815 -31.42925182 30.73193531 -30 27 C-29.29139887 22.38335625 -28.94435918 18.04235665 -31.13671875 13.80078125 C-34.30980137 9.82818175 -37.01141954 8.24147627 -42 7 C-45.45466311 6.63750013 -48.90437857 6.49382299 -52.375 6.375 C-53.30183594 6.33632813 -54.22867187 6.29765625 -55.18359375 6.2578125 C-57.4555377 6.16412409 -59.72748596 6.07840652 -62 6 C-46.75243677 -13.38387028 -19.51719013 -13.38145421 0 0 Z " fill="#FDFEFE" transform="translate(432,366)"/>
</svg>
