<?xml version="1.0" encoding="UTF-8"?>
<svg version="1.1" xmlns="http://www.w3.org/2000/svg" width="512" height="512">
<path d="M0 0 C4.60458492 2.18111917 6.76700282 4.48225954 9 9 C9.36076355 12.10688782 9.36076355 12.10688782 9.34057617 15.6262207 C9.34123329 16.59291939 9.34123329 16.59291939 9.34190369 17.57914734 C9.3398249 19.69500746 9.31653869 21.81006072 9.29296875 23.92578125 C9.28736952 25.39836698 9.28310096 26.87095831 9.28010559 28.34355164 C9.26868248 32.20866479 9.23923756 36.07343668 9.20599365 39.93841553 C9.17523783 43.88663111 9.16158851 47.83490213 9.14648438 51.78320312 C9.11436504 59.52229055 9.06319987 67.26109735 9 75 C9.68117988 74.99848112 10.36235976 74.99696224 11.06418145 74.99539733 C51.42225931 74.90591576 91.78032438 74.83726933 132.13848133 74.79573868 C136.98262053 74.79073576 141.82675953 74.78555848 146.67089844 74.78027344 C147.63529315 74.7792242 148.59968785 74.77817495 149.59330665 74.77709392 C165.21564566 74.75968118 180.83792589 74.7281387 196.46023001 74.69138882 C212.48609118 74.65400358 228.51192152 74.63176927 244.53782451 74.62364602 C254.4293983 74.61815323 264.32080594 74.60079491 274.2123286 74.56833413 C280.99218236 74.54721608 287.77195003 74.5407938 294.5518343 74.54599449 C298.4655066 74.5485605 302.37888825 74.54458342 306.29250908 74.5231781 C309.87539646 74.5037246 313.45779753 74.50272176 317.04070722 74.51640442 C318.95103303 74.51889698 320.86135306 74.50163406 322.77159607 74.48367476 C333.37583747 74.55794747 333.37583747 74.55794747 338 79 C340.61395302 82.68096045 341.37437242 85.16451053 341.36914349 89.65964985 C341.37511663 90.79474186 341.38108978 91.92983388 341.38724393 93.09932262 C341.3785054 94.34153471 341.36976688 95.5837468 341.36076355 96.86360168 C341.36207198 98.20022935 341.3646991 99.53685626 341.36853105 100.87347907 C341.37524063 104.54498926 341.36323699 108.21623703 341.34819686 111.88771379 C341.33524753 115.84744468 341.33962518 119.80716064 341.34190369 123.76690674 C341.34347712 130.62695131 341.33406061 137.48691032 341.31719017 144.34693336 C341.29281422 154.2653743 341.28499634 164.18377384 341.2812262 174.10224148 C341.27465951 190.19407963 341.25469244 206.28587217 341.22631836 222.37768555 C341.19878342 238.00984468 341.17754707 253.64199143 341.16479492 269.27416992 C341.16400675 270.23765588 341.16321858 271.20114183 341.16240653 272.19382433 C341.15849143 277.02732609 341.1547003 281.86082795 341.15097082 286.69432986 C341.11986814 326.79625184 341.06702641 366.89812291 341 407 C341.81352936 406.99111755 342.62705872 406.98223511 343.46524048 406.9730835 C351.14516535 406.89281838 358.82488584 406.83197542 366.50512123 406.79275131 C370.45330373 406.77190753 374.40113863 406.74364951 378.34912109 406.69824219 C382.16169001 406.65466848 385.97392532 406.63083876 389.78672409 406.62049103 C391.23876571 406.61312019 392.69078979 406.59872644 394.14268875 406.57707977 C396.18227333 406.54789024 398.22049289 406.54405014 400.26025391 406.54589844 C401.41941315 406.53701599 402.57857239 406.52813354 403.77285767 406.51898193 C408.663963 407.24802013 411.84109709 409.50788187 414.84765625 413.37890625 C416.93568681 418.12829103 416.61920957 422.92248151 416 428 C413.81888083 432.60458492 411.51774046 434.76700282 407 437 C403.89311218 437.36076355 403.89311218 437.36076355 400.3737793 437.34057617 C399.72931351 437.34101425 399.08484772 437.34145233 398.42085266 437.34190369 C396.30499254 437.3398249 394.18993928 437.31653869 392.07421875 437.29296875 C390.60163302 437.28736952 389.12904169 437.28310096 387.65644836 437.28010559 C383.79133521 437.26868248 379.92656332 437.23923756 376.06158447 437.20599365 C372.11336889 437.17523783 368.16509787 437.16158851 364.21679688 437.14648438 C356.47770945 437.11436504 348.73890265 437.06319987 341 437 C341.00888245 437.81352936 341.01776489 438.62705872 341.0269165 439.46524048 C341.10718162 447.14516535 341.16802458 454.82488584 341.20724869 462.50512123 C341.22809247 466.45330373 341.25635049 470.40113863 341.30175781 474.34912109 C341.34533152 478.16169001 341.36916124 481.97392532 341.37950897 485.78672409 C341.38687981 487.23876571 341.40127356 488.69078979 341.42292023 490.14268875 C341.45210976 492.18227333 341.45594986 494.22049289 341.45410156 496.26025391 C341.46298401 497.41941315 341.47186646 498.57857239 341.48101807 499.77285767 C340.75197987 504.663963 338.49211813 507.84109709 334.62109375 510.84765625 C329.87170897 512.93568681 325.07751849 512.61920957 320 512 C315.39541508 509.81888083 313.23299718 507.51774046 311 503 C310.63923645 499.89311218 310.63923645 499.89311218 310.65942383 496.3737793 C310.65898575 495.72931351 310.65854767 495.08484772 310.65809631 494.42085266 C310.6601751 492.30499254 310.68346131 490.18993928 310.70703125 488.07421875 C310.71263048 486.60163302 310.71689904 485.12904169 310.71989441 483.65644836 C310.73131752 479.79133521 310.76076244 475.92656332 310.79400635 472.06158447 C310.82476217 468.11336889 310.83841149 464.16509787 310.85351562 460.21679688 C310.88563496 452.47770945 310.93680013 444.73890265 311 437 C310.31882012 437.00151888 309.63764024 437.00303776 308.93581855 437.00460267 C268.57774069 437.09408424 228.21967562 437.16273067 187.86151867 437.20426132 C183.01737947 437.20926424 178.17324047 437.21444152 173.32910156 437.21972656 C171.8825095 437.22130043 171.8825095 437.22130043 170.40669335 437.22290608 C154.78435434 437.24031882 139.16207411 437.2718613 123.53976999 437.30861118 C107.51390882 437.34599642 91.48807848 437.36823073 75.46217549 437.37635398 C65.5706017 437.38184677 55.67919406 437.39920509 45.7876714 437.43166587 C39.00781764 437.45278392 32.22804997 437.4592062 25.4481657 437.45400551 C21.5344934 437.4514395 17.62111175 437.45541658 13.70749092 437.4768219 C10.12460354 437.4962754 6.54220247 437.49727824 2.95929278 437.48359558 C1.04896697 437.48110302 -0.86135306 437.49836594 -2.77159607 437.51632524 C-13.37583747 437.44205253 -13.37583747 437.44205253 -18 433 C-20.61395302 429.31903955 -21.37437242 426.83548947 -21.36914349 422.34035015 C-21.37511663 421.20525814 -21.38108978 420.07016612 -21.38724393 418.90067738 C-21.3785054 417.65846529 -21.36976688 416.4162532 -21.36076355 415.13639832 C-21.36207198 413.79977065 -21.3646991 412.46314374 -21.36853105 411.12652093 C-21.37524063 407.45501074 -21.36323699 403.78376297 -21.34819686 400.11228621 C-21.33524753 396.15255532 -21.33962518 392.19283936 -21.34190369 388.23309326 C-21.34347712 381.37304869 -21.33406061 374.51308968 -21.31719017 367.65306664 C-21.29281422 357.7346257 -21.28499634 347.81622616 -21.2812262 337.89775852 C-21.27465951 321.80592037 -21.25469244 305.71412783 -21.22631836 289.62231445 C-21.19878342 273.99015532 -21.17754707 258.35800857 -21.16479492 242.72583008 C-21.16400675 241.76234412 -21.16321858 240.79885817 -21.16240653 239.80617567 C-21.15849143 234.97267391 -21.1547003 230.13917205 -21.15097082 225.30567014 C-21.11986814 185.20374816 -21.06702641 145.10187709 -21 105 C-21.81352936 105.00888245 -22.62705872 105.01776489 -23.46524048 105.0269165 C-31.14516535 105.10718162 -38.82488584 105.16802458 -46.50512123 105.20724869 C-50.45330373 105.22809247 -54.40113863 105.25635049 -58.34912109 105.30175781 C-62.16169001 105.34533152 -65.97392532 105.36916124 -69.78672409 105.37950897 C-71.23876571 105.38687981 -72.69078979 105.40127356 -74.14268875 105.42292023 C-76.18227333 105.45210976 -78.22049289 105.45594986 -80.26025391 105.45410156 C-81.99899277 105.46742523 -81.99899277 105.46742523 -83.77285767 105.48101807 C-88.663963 104.75197987 -91.84109709 102.49211813 -94.84765625 98.62109375 C-96.93568681 93.87170897 -96.61920957 89.07751849 -96 84 C-93.81888083 79.39541508 -91.51774046 77.23299718 -87 75 C-83.89311218 74.63923645 -83.89311218 74.63923645 -80.3737793 74.65942383 C-79.72931351 74.65898575 -79.08484772 74.65854767 -78.42085266 74.65809631 C-76.30499254 74.6601751 -74.18993928 74.68346131 -72.07421875 74.70703125 C-70.60163302 74.71263048 -69.12904169 74.71689904 -67.65644836 74.71989441 C-63.79133521 74.73131752 -59.92656332 74.76076244 -56.06158447 74.79400635 C-52.11336889 74.82476217 -48.16509787 74.83841149 -44.21679688 74.85351562 C-36.47770945 74.88563496 -28.73890265 74.93680013 -21 75 C-21.00888245 74.18647064 -21.01776489 73.37294128 -21.0269165 72.53475952 C-21.10718162 64.85483465 -21.16802458 57.17511416 -21.20724869 49.49487877 C-21.22809247 45.54669627 -21.25635049 41.59886137 -21.30175781 37.65087891 C-21.34533152 33.83830999 -21.36916124 30.02607468 -21.37950897 26.21327591 C-21.38687981 24.76123429 -21.40127356 23.30921021 -21.42292023 21.85731125 C-21.45210976 19.81772667 -21.45594986 17.77950711 -21.45410156 15.73974609 C-21.46298401 14.58058685 -21.47186646 13.42142761 -21.48101807 12.22714233 C-20.75197987 7.336037 -18.49211813 4.15890291 -14.62109375 1.15234375 C-9.87170897 -0.93568681 -5.07751849 -0.61920957 0 0 Z " fill="#AEDBFD" transform="translate(96,0)"/>
<path d="M0 0 C4.60458492 2.18111917 6.76700282 4.48225954 9 9 C9.36076355 12.10688782 9.36076355 12.10688782 9.34057617 15.6262207 C9.34123329 16.59291939 9.34123329 16.59291939 9.34190369 17.57914734 C9.3398249 19.69500746 9.31653869 21.81006072 9.29296875 23.92578125 C9.28736952 25.39836698 9.28310096 26.87095831 9.28010559 28.34355164 C9.26868248 32.20866479 9.23923756 36.07343668 9.20599365 39.93841553 C9.17523783 43.88663111 9.16158851 47.83490213 9.14648438 51.78320312 C9.11436504 59.52229055 9.06319987 67.26109735 9 75 C9.68117988 74.99848112 10.36235976 74.99696224 11.06418145 74.99539733 C51.42225931 74.90591576 91.78032438 74.83726933 132.13848133 74.79573868 C136.98262053 74.79073576 141.82675953 74.78555848 146.67089844 74.78027344 C147.63529315 74.7792242 148.59968785 74.77817495 149.59330665 74.77709392 C165.21564566 74.75968118 180.83792589 74.7281387 196.46023001 74.69138882 C212.48609118 74.65400358 228.51192152 74.63176927 244.53782451 74.62364602 C254.4293983 74.61815323 264.32080594 74.60079491 274.2123286 74.56833413 C280.99218236 74.54721608 287.77195003 74.5407938 294.5518343 74.54599449 C298.4655066 74.5485605 302.37888825 74.54458342 306.29250908 74.5231781 C309.87539646 74.5037246 313.45779753 74.50272176 317.04070722 74.51640442 C318.95103303 74.51889698 320.86135306 74.50163406 322.77159607 74.48367476 C333.37583747 74.55794747 333.37583747 74.55794747 338 79 C340.61395302 82.68096045 341.37437242 85.16451053 341.36914349 89.65964985 C341.37511663 90.79474186 341.38108978 91.92983388 341.38724393 93.09932262 C341.3785054 94.34153471 341.36976688 95.5837468 341.36076355 96.86360168 C341.36207198 98.20022935 341.3646991 99.53685626 341.36853105 100.87347907 C341.37524063 104.54498926 341.36323699 108.21623703 341.34819686 111.88771379 C341.33524753 115.84744468 341.33962518 119.80716064 341.34190369 123.76690674 C341.34347712 130.62695131 341.33406061 137.48691032 341.31719017 144.34693336 C341.29281422 154.2653743 341.28499634 164.18377384 341.2812262 174.10224148 C341.27465951 190.19407963 341.25469244 206.28587217 341.22631836 222.37768555 C341.19878342 238.00984468 341.17754707 253.64199143 341.16479492 269.27416992 C341.16400675 270.23765588 341.16321858 271.20114183 341.16240653 272.19382433 C341.15849143 277.02732609 341.1547003 281.86082795 341.15097082 286.69432986 C341.11986814 326.79625184 341.06702641 366.89812291 341 407 C341.81352936 406.99111755 342.62705872 406.98223511 343.46524048 406.9730835 C351.14516535 406.89281838 358.82488584 406.83197542 366.50512123 406.79275131 C370.45330373 406.77190753 374.40113863 406.74364951 378.34912109 406.69824219 C382.16169001 406.65466848 385.97392532 406.63083876 389.78672409 406.62049103 C391.23876571 406.61312019 392.69078979 406.59872644 394.14268875 406.57707977 C396.18227333 406.54789024 398.22049289 406.54405014 400.26025391 406.54589844 C401.41941315 406.53701599 402.57857239 406.52813354 403.77285767 406.51898193 C408.663963 407.24802013 411.84109709 409.50788187 414.84765625 413.37890625 C416.93568681 418.12829103 416.61920957 422.92248151 416 428 C413.81888083 432.60458492 411.51774046 434.76700282 407 437 C403.89311218 437.36076355 403.89311218 437.36076355 400.3737793 437.34057617 C399.72931351 437.34101425 399.08484772 437.34145233 398.42085266 437.34190369 C396.30499254 437.3398249 394.18993928 437.31653869 392.07421875 437.29296875 C390.60163302 437.28736952 389.12904169 437.28310096 387.65644836 437.28010559 C383.79133521 437.26868248 379.92656332 437.23923756 376.06158447 437.20599365 C372.11336889 437.17523783 368.16509787 437.16158851 364.21679688 437.14648438 C356.47770945 437.11436504 348.73890265 437.06319987 341 437 C341.00888245 437.81352936 341.01776489 438.62705872 341.0269165 439.46524048 C341.10718162 447.14516535 341.16802458 454.82488584 341.20724869 462.50512123 C341.22809247 466.45330373 341.25635049 470.40113863 341.30175781 474.34912109 C341.34533152 478.16169001 341.36916124 481.97392532 341.37950897 485.78672409 C341.38687981 487.23876571 341.40127356 488.69078979 341.42292023 490.14268875 C341.45210976 492.18227333 341.45594986 494.22049289 341.45410156 496.26025391 C341.46298401 497.41941315 341.47186646 498.57857239 341.48101807 499.77285767 C340.75197987 504.663963 338.49211813 507.84109709 334.62109375 510.84765625 C329.87170897 512.93568681 325.07751849 512.61920957 320 512 C315.39541508 509.81888083 313.23299718 507.51774046 311 503 C310.63923645 499.89311218 310.63923645 499.89311218 310.65942383 496.3737793 C310.65898575 495.72931351 310.65854767 495.08484772 310.65809631 494.42085266 C310.6601751 492.30499254 310.68346131 490.18993928 310.70703125 488.07421875 C310.71263048 486.60163302 310.71689904 485.12904169 310.71989441 483.65644836 C310.73131752 479.79133521 310.76076244 475.92656332 310.79400635 472.06158447 C310.82476217 468.11336889 310.83841149 464.16509787 310.85351562 460.21679688 C310.88563496 452.47770945 310.93680013 444.73890265 311 437 C310.31882012 437.00151888 309.63764024 437.00303776 308.93581855 437.00460267 C268.57774069 437.09408424 228.21967562 437.16273067 187.86151867 437.20426132 C183.01737947 437.20926424 178.17324047 437.21444152 173.32910156 437.21972656 C171.8825095 437.22130043 171.8825095 437.22130043 170.40669335 437.22290608 C154.78435434 437.24031882 139.16207411 437.2718613 123.53976999 437.30861118 C107.51390882 437.34599642 91.48807848 437.36823073 75.46217549 437.37635398 C65.5706017 437.38184677 55.67919406 437.39920509 45.7876714 437.43166587 C39.00781764 437.45278392 32.22804997 437.4592062 25.4481657 437.45400551 C21.5344934 437.4514395 17.62111175 437.45541658 13.70749092 437.4768219 C10.12460354 437.4962754 6.54220247 437.49727824 2.95929278 437.48359558 C1.04896697 437.48110302 -0.86135306 437.49836594 -2.77159607 437.51632524 C-13.37583747 437.44205253 -13.37583747 437.44205253 -18 433 C-20.61395302 429.31903955 -21.37437242 426.83548947 -21.36914349 422.34035015 C-21.37511663 421.20525814 -21.38108978 420.07016612 -21.38724393 418.90067738 C-21.3785054 417.65846529 -21.36976688 416.4162532 -21.36076355 415.13639832 C-21.36207198 413.79977065 -21.3646991 412.46314374 -21.36853105 411.12652093 C-21.37524063 407.45501074 -21.36323699 403.78376297 -21.34819686 400.11228621 C-21.33524753 396.15255532 -21.33962518 392.19283936 -21.34190369 388.23309326 C-21.34347712 381.37304869 -21.33406061 374.51308968 -21.31719017 367.65306664 C-21.29281422 357.7346257 -21.28499634 347.81622616 -21.2812262 337.89775852 C-21.27465951 321.80592037 -21.25469244 305.71412783 -21.22631836 289.62231445 C-21.19878342 273.99015532 -21.17754707 258.35800857 -21.16479492 242.72583008 C-21.16400675 241.76234412 -21.16321858 240.79885817 -21.16240653 239.80617567 C-21.15849143 234.97267391 -21.1547003 230.13917205 -21.15097082 225.30567014 C-21.11986814 185.20374816 -21.06702641 145.10187709 -21 105 C-21.81352936 105.00888245 -22.62705872 105.01776489 -23.46524048 105.0269165 C-31.14516535 105.10718162 -38.82488584 105.16802458 -46.50512123 105.20724869 C-50.45330373 105.22809247 -54.40113863 105.25635049 -58.34912109 105.30175781 C-62.16169001 105.34533152 -65.97392532 105.36916124 -69.78672409 105.37950897 C-71.23876571 105.38687981 -72.69078979 105.40127356 -74.14268875 105.42292023 C-76.18227333 105.45210976 -78.22049289 105.45594986 -80.26025391 105.45410156 C-81.99899277 105.46742523 -81.99899277 105.46742523 -83.77285767 105.48101807 C-88.663963 104.75197987 -91.84109709 102.49211813 -94.84765625 98.62109375 C-96.93568681 93.87170897 -96.61920957 89.07751849 -96 84 C-93.81888083 79.39541508 -91.51774046 77.23299718 -87 75 C-83.89311218 74.63923645 -83.89311218 74.63923645 -80.3737793 74.65942383 C-79.72931351 74.65898575 -79.08484772 74.65854767 -78.42085266 74.65809631 C-76.30499254 74.6601751 -74.18993928 74.68346131 -72.07421875 74.70703125 C-70.60163302 74.71263048 -69.12904169 74.71689904 -67.65644836 74.71989441 C-63.79133521 74.73131752 -59.92656332 74.76076244 -56.06158447 74.79400635 C-52.11336889 74.82476217 -48.16509787 74.83841149 -44.21679688 74.85351562 C-36.47770945 74.88563496 -28.73890265 74.93680013 -21 75 C-21.00888245 74.18647064 -21.01776489 73.37294128 -21.0269165 72.53475952 C-21.10718162 64.85483465 -21.16802458 57.17511416 -21.20724869 49.49487877 C-21.22809247 45.54669627 -21.25635049 41.59886137 -21.30175781 37.65087891 C-21.34533152 33.83830999 -21.36916124 30.02607468 -21.37950897 26.21327591 C-21.38687981 24.76123429 -21.40127356 23.30921021 -21.42292023 21.85731125 C-21.45210976 19.81772667 -21.45594986 17.77950711 -21.45410156 15.73974609 C-21.46298401 14.58058685 -21.47186646 13.42142761 -21.48101807 12.22714233 C-20.75197987 7.336037 -18.49211813 4.15890291 -14.62109375 1.15234375 C-9.87170897 -0.93568681 -5.07751849 -0.61920957 0 0 Z M9 105 C9 204.66 9 304.32 9 407 C108.66 407 208.32 407 311 407 C311 307.34 311 207.68 311 105 C211.34 105 111.68 105 9 105 Z " fill="#505C62" transform="translate(96,0)"/>
<path d="M0 0 C3.50964913 2.05464384 5.72430846 4.2830524 8.421875 7.3203125 C8.8947998 7.85003662 9.36772461 8.37976074 9.85498047 8.92553711 C14.43259165 14.09284056 18.78895521 19.43736632 23.109375 24.8203125 C24.5031842 26.5302977 25.89906595 28.23859538 27.296875 29.9453125 C28.039375 30.8528125 28.781875 31.7603125 29.546875 32.6953125 C34.44507325 38.67330525 39.36401174 44.63428818 44.27880859 50.59863281 C46.64402343 53.4691923 49.00853802 56.34032786 51.37280273 59.21166992 C52.52696569 60.61311874 53.68142354 62.01432473 54.83618164 63.4152832 C57.88431709 67.11398508 60.9266216 70.81729319 63.9609375 74.52734375 C64.59257812 75.29820312 65.22421875 76.0690625 65.875 76.86328125 C67.082476 78.33711225 68.28830244 79.81229682 69.4921875 81.2890625 C72.23060473 84.62812313 74.97051193 87.84222047 78.109375 90.8203125 C78.33753906 90.28148437 78.56570313 89.74265625 78.80078125 89.1875 C80.50581323 86.10317349 82.73968252 83.58478542 85.046875 80.9453125 C89.00605024 76.34817209 92.83340983 71.68041239 96.546875 66.8828125 C100.79926557 61.40498873 105.22605105 56.11016587 109.76269531 50.86621094 C114.31594316 45.60105463 118.72569517 40.22738817 123.109375 34.8203125 C124.5041842 33.11114289 125.9000467 31.40283239 127.296875 29.6953125 C128.39128906 28.35726563 128.39128906 28.35726563 129.5078125 26.9921875 C133.40624568 22.23403569 137.32196972 17.49005313 141.23706055 12.74560547 C141.80980713 12.05096191 142.38255371 11.35631836 142.97265625 10.640625 C143.78935791 9.65147095 143.78935791 9.65147095 144.62255859 8.64233398 C145.89019763 7.08890375 147.12629006 5.50981848 148.35546875 3.92578125 C151.62701111 -0.00152684 155.00640279 -1.03736851 159.984375 -1.6796875 C165.05950405 -1.391873 168.37579514 0.42068432 172.109375 3.8203125 C174.93136169 7.12208055 177.56708159 10.52440025 180.1796875 13.9921875 C183.05251844 17.79554482 186.10882803 21.41102003 189.234375 25.0078125 C194.30074659 30.860415 199.23417697 36.80697082 204.109375 42.8203125 C209.59410994 49.54119036 215.09828051 56.24604306 220.609375 62.9453125 C221.23352295 63.70473145 221.8576709 64.46415039 222.50073242 65.24658203 C223.08314697 65.95411621 223.66556152 66.66165039 224.265625 67.390625 C224.78962891 68.02758301 225.31363281 68.66454102 225.85351562 69.32080078 C227.03020285 70.77050182 227.03020285 70.77050182 228.109375 71.8203125 C228.109375 105.1503125 228.109375 138.4803125 228.109375 172.8203125 C128.449375 172.8203125 28.789375 172.8203125 -73.890625 172.8203125 C-73.890625 71.16306137 -73.890625 71.16306137 -56.765625 51.6328125 C-51.69688479 45.78237123 -46.76442866 39.83460404 -41.890625 33.8203125 C-36.15772558 26.76523087 -30.36553713 19.76616392 -24.46875 12.84765625 C-22.90745401 11.01431627 -21.35325136 9.17485807 -19.8125 7.32421875 C-14.17640399 0.64667022 -9.11436989 -3.71964825 0 0 Z " fill="#93CA59" transform="translate(178.890625,234.1796875)"/>
<path d="M0 0 C5.06194079 2.39776143 6.02214649 4.03691082 9 9 C9 30.78 9 52.56 9 75 C58.83 75 108.66 75 160 75 C160 84.9 160 94.8 160 105 C110.17 105 60.34 105 9 105 C9 204.66 9 304.32 9 407 C58.83 407 108.66 407 160 407 C160 416.9 160 426.8 160 437 C137.67764483 437.09258773 115.3553359 437.16397427 93.03282738 437.20724869 C82.66814005 437.22787564 72.3035742 437.25599886 61.93896484 437.30175781 C52.90537549 437.34162141 43.87187412 437.36743184 34.83819926 437.37635398 C30.05471508 437.38156952 25.2714826 437.3938308 20.48807907 437.42292023 C15.98519046 437.45008175 11.48265712 437.4584435 6.97969437 437.45243073 C5.32771117 437.45353063 3.67571603 437.46148024 2.02380371 437.4768219 C-0.23412831 437.49676216 -2.49072397 437.49192558 -4.74868774 437.48101807 C-6.01154413 437.48470524 -7.27440052 437.48839241 -8.57552528 437.49219131 C-12.72011375 436.89649982 -14.79883875 435.67215214 -18 433 C-20.6371607 429.33682436 -21.37436507 426.82917368 -21.36914349 422.34035015 C-21.37511663 421.20525814 -21.38108978 420.07016612 -21.38724393 418.90067738 C-21.3785054 417.65846529 -21.36976688 416.4162532 -21.36076355 415.13639832 C-21.36207198 413.79977065 -21.3646991 412.46314374 -21.36853105 411.12652093 C-21.37524063 407.45501074 -21.36323699 403.78376297 -21.34819686 400.11228621 C-21.33524753 396.15255532 -21.33962518 392.19283936 -21.34190369 388.23309326 C-21.34347712 381.37304869 -21.33406061 374.51308968 -21.31719017 367.65306664 C-21.29281422 357.7346257 -21.28499634 347.81622616 -21.2812262 337.89775852 C-21.27465951 321.80592037 -21.25469244 305.71412783 -21.22631836 289.62231445 C-21.19878342 273.99015532 -21.17754707 258.35800857 -21.16479492 242.72583008 C-21.16400675 241.76234412 -21.16321858 240.79885817 -21.16240653 239.80617567 C-21.15849143 234.97267391 -21.1547003 230.13917205 -21.15097082 225.30567014 C-21.11986814 185.20374816 -21.06702641 145.10187709 -21 105 C-21.81352936 105.00888245 -22.62705872 105.01776489 -23.46524048 105.0269165 C-31.14516535 105.10718162 -38.82488584 105.16802458 -46.50512123 105.20724869 C-50.45330373 105.22809247 -54.40113863 105.25635049 -58.34912109 105.30175781 C-62.16169001 105.34533152 -65.97392532 105.36916124 -69.78672409 105.37950897 C-71.23876571 105.38687981 -72.69078979 105.40127356 -74.14268875 105.42292023 C-76.18227333 105.45210976 -78.22049289 105.45594986 -80.26025391 105.45410156 C-81.99899277 105.46742523 -81.99899277 105.46742523 -83.77285767 105.48101807 C-88.663963 104.75197987 -91.84109709 102.49211813 -94.84765625 98.62109375 C-96.93568681 93.87170897 -96.61920957 89.07751849 -96 84 C-93.81888083 79.39541508 -91.51774046 77.23299718 -87 75 C-83.89311218 74.63923645 -83.89311218 74.63923645 -80.3737793 74.65942383 C-79.72931351 74.65898575 -79.08484772 74.65854767 -78.42085266 74.65809631 C-76.30499254 74.6601751 -74.18993928 74.68346131 -72.07421875 74.70703125 C-70.60163302 74.71263048 -69.12904169 74.71689904 -67.65644836 74.71989441 C-63.79133521 74.73131752 -59.92656332 74.76076244 -56.06158447 74.79400635 C-52.11336889 74.82476217 -48.16509787 74.83841149 -44.21679688 74.85351562 C-36.47770945 74.88563496 -28.73890265 74.93680013 -21 75 C-21.00888245 74.18647064 -21.01776489 73.37294128 -21.0269165 72.53475952 C-21.10718162 64.85483465 -21.16802458 57.17511416 -21.20724869 49.49487877 C-21.22809247 45.54669627 -21.25635049 41.59886137 -21.30175781 37.65087891 C-21.34533152 33.83830999 -21.36916124 30.02607468 -21.37950897 26.21327591 C-21.38687981 24.76123429 -21.40127356 23.30921021 -21.42292023 21.85731125 C-21.45210976 19.81772667 -21.45594986 17.77950711 -21.45410156 15.73974609 C-21.46298401 14.58058685 -21.47186646 13.42142761 -21.48101807 12.22714233 C-20.75197987 7.336037 -18.49211813 4.15890291 -14.62109375 1.15234375 C-9.87170897 -0.93568681 -5.07751849 -0.61920957 0 0 Z " fill="#5E6B74" transform="translate(96,0)"/>
<path d="M0 0 C49.83 0 99.66 0 151 0 C151 66.33 151 132.66 151 201 C147.3824632 198.10597056 145.23114177 196.29467691 142.5625 192.8125 C138.90178919 188.12843851 135.1613093 183.52070802 131.375 178.9375 C130.77502197 178.21022705 130.17504395 177.4829541 129.55688477 176.73364258 C128.32038584 175.23483123 127.08364856 173.73621649 125.84667969 172.23779297 C123.47390198 169.36247826 121.10399451 166.48480807 118.73461914 163.60668945 C117.58059281 162.20512813 116.42613486 160.80392209 115.27124023 159.40307617 C112.23379883 155.71808011 109.2036408 152.02739483 106.18359375 148.328125 C105.55646484 147.56177734 104.92933594 146.79542969 104.28320312 146.00585938 C103.08829537 144.54541656 101.89544916 143.08328357 100.70507812 141.61914062 C94.89621895 133.93888429 94.89621895 133.93888429 87 129 C80.83590965 128.39369603 77.09340981 129.26478497 72 133 C70.102261 135.10612908 68.46024916 137.09708016 66.8125 139.375 C65.86611857 140.63104909 64.91680249 141.88489141 63.96484375 143.13671875 C63.2375708 144.09650635 63.2375708 144.09650635 62.49560547 145.07568359 C60.0628412 148.20579263 57.4744449 151.19556876 54.875 154.1875 C49.80868985 160.0401572 44.87519993 165.98665596 40 172 C34.19596523 179.11214109 28.36856294 186.20485794 22.52929688 193.28808594 C19.3788987 197.10968545 16.23257138 200.93450868 13.09375 204.765625 C12.46041748 205.5376123 11.82708496 206.30959961 11.17456055 207.10498047 C9.95860769 208.58733653 8.74387144 210.07069161 7.53051758 211.55517578 C6.98032959 212.22532715 6.4301416 212.89547852 5.86328125 213.5859375 C5.38157471 214.1742334 4.89986816 214.7625293 4.40356445 215.36865234 C3.01422903 216.98346175 1.50629717 218.49370283 0 220 C0 187 0 154 0 120 C5.61 118.68 11.22 117.36 17 116 C29.79259275 109.78645495 36.96756488 102.28399877 42 89 C42.433125 87.88625 42.86625 86.7725 43.3125 85.625 C45.5709503 73.71680751 44.12154778 61.79912819 37.9375 51.3125 C31.33685454 41.74294497 23.26492253 35.18023323 12 32 C6.06 31.01 6.06 31.01 0 30 C0 20.1 0 10.2 0 0 Z " fill="#9ECAFC" transform="translate(256,105)"/>
<path d="M0 0 C3.50964913 2.05464384 5.72430846 4.2830524 8.421875 7.3203125 C8.8947998 7.85003662 9.36772461 8.37976074 9.85498047 8.92553711 C14.43259165 14.09284056 18.78895521 19.43736632 23.109375 24.8203125 C24.5031842 26.5302977 25.89906595 28.23859538 27.296875 29.9453125 C28.039375 30.8528125 28.781875 31.7603125 29.546875 32.6953125 C34.44507325 38.67330525 39.36401174 44.63428818 44.27880859 50.59863281 C47.79822921 54.8700022 51.31645246 59.14235832 54.83398438 63.4152832 C57.88532978 67.12153265 60.93903172 70.82580764 63.99609375 74.52734375 C64.63224609 75.29820312 65.26839844 76.0690625 65.92382812 76.86328125 C67.14185506 78.33913871 68.36056802 79.81443035 69.58007812 81.2890625 C70.12986328 81.95550781 70.67964844 82.62195313 71.24609375 83.30859375 C71.72780029 83.89165283 72.20950684 84.47471191 72.70581055 85.07543945 C73.16898682 85.65124756 73.63216309 86.22705566 74.109375 86.8203125 C74.62629913 87.3516832 75.14322327 87.88305389 75.67581177 88.43052673 C77.70292434 91.80977409 77.50470762 94.97788395 77.44995117 98.80175781 C77.45031278 99.61503918 77.45067438 100.42832054 77.45104694 101.2662468 C77.44881112 103.89389575 77.42598118 106.52090304 77.40234375 109.1484375 C77.39793186 110.77262057 77.39487196 112.3968079 77.39318848 114.02099609 C77.37747183 120.03750002 77.33558807 126.05391259 77.296875 132.0703125 C77.235 145.5178125 77.173125 158.9653125 77.109375 172.8203125 C27.279375 172.8203125 -22.550625 172.8203125 -73.890625 172.8203125 C-74.1175 156.6090625 -74.344375 140.3978125 -74.578125 123.6953125 C-74.67826904 118.60206543 -74.77841309 113.50881836 -74.8815918 108.26123047 C-74.93127441 101.97680664 -74.93127441 101.97680664 -74.94050598 99.02224731 C-74.95725049 96.98592583 -74.9956334 94.9497043 -75.05195618 92.91409302 C-75.36490776 80.99354002 -75.31053601 72.13864191 -67.04632854 62.96861839 C-65.68644125 61.56091448 -64.28973951 60.18903538 -62.890625 58.8203125 C-61.74716381 57.48608425 -60.61411328 56.14254231 -59.5078125 54.77734375 C-58.59649378 53.72678026 -57.68253242 52.67850185 -56.765625 51.6328125 C-51.69688479 45.78237123 -46.76442866 39.83460404 -41.890625 33.8203125 C-36.15772558 26.76523087 -30.36553713 19.76616392 -24.46875 12.84765625 C-22.90745401 11.01431627 -21.35325136 9.17485807 -19.8125 7.32421875 C-14.17640399 0.64667022 -9.11436989 -3.71964825 0 0 Z " fill="#AEDC4E" transform="translate(178.890625,234.1796875)"/>
<path d="M0 0 C10.8742524 6.86093719 19.00532007 16.77277608 22.3125 29.3125 C24.78254189 42.93370185 22.21446128 55.06590066 14.74609375 66.6875 C7.69282235 76.02874534 -3.1509707 82.75290518 -14.73828125 84.75 C-28.70863008 86.29421818 -40.89688314 82.72635591 -52 74 C-61.52311888 65.55153863 -66.19074018 54.68458472 -67.23828125 42.1484375 C-67.60173283 28.56682594 -63.20097375 17.60251504 -53.8984375 7.78125 C-39.15693224 -6.17890339 -18.04607229 -9.85688914 0 0 Z " fill="#EEBF43" transform="translate(278,140)"/>
<path d="M0 0 C0 29.7 0 59.4 0 90 C-14.59541295 88.67314428 -24.69449973 84.90787722 -34.77734375 74.09375 C-40.26874167 67.27491493 -44.53621863 58.81184594 -45 50 C-45.061875 49.12988281 -45.12375 48.25976562 -45.1875 47.36328125 C-45.7044445 35.00507682 -42.10663212 24.35627106 -34 15 C-28.40167967 9.08950568 -22.47398242 5.17194787 -15 2 C-13.989375 1.566875 -12.97875 1.13375 -11.9375 0.6875 C-9 0 -9 0 0 0 Z " fill="#F3D753" transform="translate(256,135)"/>
</svg>
