<?xml version="1.0" encoding="UTF-8"?>
<svg version="1.1" xmlns="http://www.w3.org/2000/svg" width="512" height="512">
<path d="M0 0 C0.83055985 -0.00865438 1.6611197 -0.01730876 2.51684803 -0.02622539 C5.29258582 -0.04777134 8.06631018 -0.02654334 10.84202576 -0.00532532 C12.83478247 -0.0118201 14.82753224 -0.02088224 16.82026672 -0.03231812 C22.2273424 -0.05539474 27.63371205 -0.04068303 33.04076505 -0.01784873 C38.69856348 0.0010648 44.35631446 -0.01009055 50.01412964 -0.01675415 C59.51433021 -0.02309443 69.01424783 -0.00482516 78.51438904 0.02787781 C89.50042395 0.06538284 100.48592308 0.06358874 111.47198635 0.04083663 C122.03864204 0.01989551 132.60509955 0.02715641 143.17175102 0.04715538 C147.669699 0.05514544 152.16747954 0.05314501 156.66542244 0.04313087 C161.96058386 0.03258828 167.25512004 0.04668236 172.55018234 0.07987404 C174.4944266 0.08808926 176.43872807 0.08778789 178.382967 0.07839584 C181.0353105 0.06698938 183.68570284 0.08631401 186.33789062 0.11352539 C187.1090962 0.1030539 187.88030178 0.09258241 188.67487723 0.08179361 C192.65843395 0.15804591 194.42821487 0.61405362 197.58459663 3.12719536 C199.9355932 6.18449541 200.2168799 7.5610748 200.17308044 11.37162781 C200.17270279 12.47239151 200.17232513 13.57315521 200.17193604 14.70727539 C200.14612961 15.88452682 200.12032318 17.06177826 200.09373474 18.27470398 C200.08666 19.48841171 200.07958527 20.70211945 200.07229614 21.9526062 C200.04433238 25.82492485 199.9815844 29.6957919 199.91795349 33.56767273 C199.89287345 36.19460496 199.87005978 38.82155987 199.84959412 41.4485321 C199.79449879 47.88457333 199.71085004 54.31976932 199.60545349 60.75517273 C200.16167955 60.74964197 200.71790562 60.74411121 201.29098701 60.73841286 C214.83722123 60.60579577 228.38334143 60.50694835 241.93008614 60.4442997 C248.48130097 60.4129845 255.03204734 60.37050606 261.58299255 60.30253601 C267.90482564 60.23735347 274.22620809 60.20146812 280.54835129 60.18590927 C282.96054555 60.1748212 285.37271509 60.15316862 287.78471756 60.12079239 C291.16316814 60.07724629 294.53975579 60.07123822 297.91844177 60.07402039 C298.91610062 60.05244873 299.91375946 60.03087708 300.94165039 60.00865173 C301.86704117 60.01689972 302.79243195 60.02514771 303.74586487 60.03364563 C304.54413759 60.02811487 305.34241032 60.02258411 306.16487312 60.01688576 C310.00797052 61.17944069 312.36980829 63.45361785 314.60545349 66.75517273 C315.2015991 69.66767856 315.42141665 71.75052072 315.36735535 74.64945984 C315.37671529 75.42622794 315.38607523 76.20299604 315.39571881 77.00330257 C315.41958537 79.59707589 315.40072352 82.18872884 315.38182068 84.78251648 C315.38995382 86.64557628 315.40063856 88.50862643 315.41368103 90.37165833 C315.44102085 95.42550459 315.43043465 100.47861549 315.41140652 105.53247452 C315.39620948 110.82279178 315.41030558 116.11304634 315.41972351 121.40336609 C315.43063759 130.28735146 315.41625848 139.1710375 315.38768005 148.05497742 C315.35502671 158.32420432 315.36560384 168.59271649 315.39863849 178.86192608 C315.42587154 187.68081369 315.42970608 196.49948621 315.41400647 205.31840229 C315.40465506 210.5847069 315.40339748 215.85067562 315.4232254 221.11695862 C315.44056562 226.06831675 315.42852198 231.01875397 315.39385986 235.97001266 C315.38593026 237.7864466 315.38819839 239.60295811 315.40143585 241.41936111 C315.41785258 243.90091312 315.39725543 246.37952097 315.36735535 248.86088562 C315.38073968 249.57859603 315.39412401 250.29630644 315.40791392 251.03576565 C315.31488294 255.01999929 314.51023037 257.33847881 311.86155891 260.20347023 C309.19922487 262.53962918 307.36993075 263.50180883 303.74586487 263.47669983 C302.3577787 263.48907181 302.3577787 263.48907181 300.94165039 263.50169373 C299.94399155 263.48012207 298.9463327 263.45855042 297.91844177 263.43632507 C296.85442642 263.43720123 295.79041107 263.43807739 294.69415283 263.4389801 C291.18726966 263.43480951 287.68231382 263.38817851 284.17576599 263.34111023 C281.74054509 263.32991631 279.30531066 263.32137705 276.87007141 263.31538391 C270.46806882 263.29250154 264.0668861 263.23358136 257.66520691 263.16716003 C251.12977692 263.10572596 244.59421415 263.07836636 238.05857849 263.04814148 C225.24052085 262.98383927 212.42303083 262.88262256 199.60545349 262.75517273 C199.61655655 263.58345078 199.62765961 264.41172882 199.63909912 265.2651062 C199.73935925 273.07773023 199.81544766 280.89013765 199.86451435 288.70325756 C199.89058856 292.71994701 199.92594527 296.73610411 199.98265076 300.75248718 C200.03705058 304.62990854 200.06689041 308.50681848 200.07983971 312.38459206 C200.08906551 313.86260847 200.10708207 315.34059744 200.13410378 316.81839561 C200.17050437 318.89192647 200.17539488 320.96335526 200.17308044 323.03715515 C200.1841835 324.2162999 200.19528656 325.39544464 200.20672607 326.61032104 C199.3814315 330.92688077 198.13158433 332.12466769 194.60545349 334.75517273 C190.99067672 335.49970356 187.42957789 335.42969145 183.74961853 335.39009094 C182.08853805 335.40179087 182.08853805 335.40179087 180.39390039 335.41372716 C176.67567026 335.43370314 172.95845722 335.41785945 169.24021912 335.40214539 C166.5776469 335.40891901 163.91514524 335.41763941 161.25259399 335.42869568 C154.76707268 335.45093477 148.2818406 335.44612408 141.79630792 335.43163247 C136.5256598 335.4203428 131.25509277 335.41880813 125.98443604 335.42425156 C124.85943329 335.4254008 124.85943329 335.4254008 123.71170321 335.42657327 C122.18811251 335.42817189 120.66452184 335.42979295 119.14093119 335.43143623 C104.85250408 335.44569568 90.56423734 335.42929798 76.27583653 335.40243439 C64.01437202 335.38009538 51.75314419 335.38397546 39.49168396 335.4070282 C25.25457471 335.4337828 11.01760602 335.44432237 -3.21952486 335.42896688 C-4.73752624 335.42737413 -6.25552763 335.42580227 -7.77352905 335.42425156 C-8.52042444 335.42348018 -9.26731982 335.4227088 -10.0368484 335.42191405 C-15.30147572 335.41759601 -20.56601392 335.4248858 -25.83062744 335.43664932 C-32.24607162 335.45066914 -38.66120991 335.44688565 -45.07661903 335.4202456 C-48.3503049 335.40709985 -51.62337495 335.40465602 -54.89707375 335.41849136 C-58.44479915 335.43210498 -61.99107888 335.41507893 -65.53871155 335.39009094 C-66.57518373 335.40124455 -67.61165591 335.41239816 -68.67953634 335.42388976 C-73.22309499 335.36158666 -75.68174496 335.22864607 -79.53293324 332.67052174 C-81.86751027 329.01449557 -82.02553483 326.80281676 -82.03619385 322.47467041 C-82.04469937 321.75184291 -82.05320489 321.02901542 -82.06196815 320.28428406 C-82.08421647 317.86726152 -82.07080888 315.45178177 -82.05738831 313.03471375 C-82.06580244 311.29987995 -82.07632798 309.5650553 -82.08880615 307.83024597 C-82.11587438 303.1214497 -82.11114813 298.41318283 -82.0991056 293.70434308 C-82.091977 289.7728332 -82.10047174 285.8414214 -82.10901099 281.9099192 C-82.1289692 272.63485865 -82.12338742 263.36005582 -82.10133362 254.08500671 C-82.0789705 244.51732451 -82.09656645 234.95031704 -82.1343829 225.3826986 C-82.16561576 217.16680845 -82.17353307 208.9511272 -82.16242915 200.73518509 C-82.15594081 195.82878029 -82.15795033 190.92276486 -82.18175316 186.01640511 C-82.20299754 181.4024018 -82.19503782 176.78935066 -82.1646595 172.17540741 C-82.15832926 170.48313247 -82.16219988 168.79078368 -82.17707062 167.09856224 C-82.29294286 152.74855933 -82.29294286 152.74855933 -79.21762085 148.73867798 C-74.20483792 145.10349521 -67.33904292 146.02966226 -61.46485901 146.16923523 C-60.10581848 146.18043854 -58.74675357 146.18897337 -57.38768005 146.19496155 C-53.82618744 146.21777217 -50.26618423 146.27662267 -46.70527649 146.34318542 C-43.06544643 146.40477927 -39.42537352 146.43201265 -35.78517151 146.46220398 C-28.65435718 146.5263777 -21.52454954 146.62865895 -14.39454651 146.75517273 C-14.40007727 146.03918097 -14.40560802 145.3231892 -14.41130638 144.58550072 C-14.54384929 127.158704 -14.64311839 109.7320354 -14.70541954 92.30484581 C-14.73634931 83.87713386 -14.77851257 75.44975848 -14.84718323 67.02226257 C-14.90701272 59.67627856 -14.94570206 52.33053831 -14.95907748 44.98431742 C-14.96689545 41.09489871 -14.98524953 37.20617733 -15.02892685 33.31698227 C-15.06972502 29.65440273 -15.08220169 25.9928061 -15.0731926 22.3300209 C-15.07562429 20.348645 -15.10787563 18.36737561 -15.1410675 16.38627625 C-15.12869553 14.60693192 -15.12869553 14.60693192 -15.11607361 12.79164124 C-15.12160437 11.76476385 -15.12713512 10.73788647 -15.13283348 9.67989159 C-13.16856143 1.89844113 -7.52648282 -0.13767797 0 0 Z " fill="#8692A7" transform="translate(139.39454650878906,88.24482727050781)"/>
<path d="M0 0 C48.51 0 97.02 0 147 0 C147 7.92 147 15.84 147 24 C144.36 24 141.72 24 139 24 C138.78085938 25.06734375 138.56171875 26.1346875 138.3359375 27.234375 C136.42282833 36.31260971 134.14951909 45.18640674 131.42114258 54.05297852 C129.36609649 60.73744709 127.43728041 67.45030165 125.5625 74.1875 C125.26939941 75.24042236 124.97629883 76.29334473 124.67431641 77.37817383 C124.07800052 79.52266138 123.48213602 81.6672745 122.88671875 83.81201172 C121.73865526 87.93960341 120.58024242 92.06425541 119.421875 96.18896484 C115.23215723 111.11245388 111.11194628 126.05493557 107 141 C110.63 141 114.26 141 118 141 C118.10054688 140.07960938 118.20109375 139.15921875 118.3046875 138.2109375 C119.06983785 132.88687737 120.64009543 127.78467246 122.125 122.625 C122.76190955 120.38416881 123.39862272 118.14328179 124.03515625 115.90234375 C124.3614502 114.75878418 124.68774414 113.61522461 125.02392578 112.43701172 C125.96336828 109.12898982 126.88912261 105.81752909 127.80859375 102.50390625 C130.66741194 92.2031229 133.5979659 81.93551617 136.7175293 71.71069336 C140.08738273 60.55208105 143.01960931 49.26752521 146 38 C146.33 38 146.66 38 147 38 C147.00546844 39.11420319 147.00546844 39.11420319 147.01104736 40.25091553 C147.04893096 47.25482986 147.10578713 54.25827399 147.18390274 61.26183701 C147.22339452 64.86240193 147.25557421 68.4627217 147.27099609 72.06347656 C147.28615218 75.5391659 147.3205771 79.01418133 147.36830902 82.48957062 C147.39034372 84.4592312 147.39247465 86.4290818 147.39434814 88.39886475 C147.41406677 89.59980774 147.4337854 90.80075073 147.45410156 92.03808594 C147.46298401 93.09509705 147.47186646 94.15210815 147.48101807 95.2411499 C148.12601545 98.66988408 149.30260923 99.85748215 152 102 C154.00404944 102.62671015 154.00404944 102.62671015 156.109375 102.609375 C156.86347656 102.64160156 157.61757812 102.67382812 158.39453125 102.70703125 C159.17183594 102.72121094 159.94914063 102.73539062 160.75 102.75 C161.93916016 102.79447266 161.93916016 102.79447266 163.15234375 102.83984375 C165.10102094 102.91027787 167.05051495 102.95743482 169 103 C166.7448078 105.2551922 164.9952413 105.97723468 162 107 C161.01 107 160.02 107 159 107 C159 111.62 159 116.24 159 121 C159.97904297 120.45472656 160.95808594 119.90945313 161.96679688 119.34765625 C194.43474538 101.68190428 219.84605871 101.35278093 257 103 C257 123.13 257 143.26 257 164 C172.19 164 87.38 164 0 164 C0 109.88 0 55.76 0 0 Z " fill="#CDEFF9" transform="translate(70,247)"/>
<path d="M0 0 C69.96 0 139.92 0 212 0 C212 39.27 212 78.54 212 119 C204.22495606 112.33567663 204.22495606 112.33567663 201.0625 109.0625 C197.86400933 105.81480178 194.54412138 102.81018116 191.05859375 99.875 C189 98 189 98 186.84765625 95.5625 C181.98605785 90.04580684 181.98605785 90.04580684 175.25 87.6875 C167.48039886 88.46685814 162.11439272 95.68785268 157 101 C155.17426367 102.83849343 153.33981188 104.66800053 151.50512695 106.49755859 C150.29891221 107.70199115 149.09559028 108.90932819 147.89526367 110.11962891 C143.75910206 114.28553868 139.50709804 118.2357199 135 122 C133.66573745 123.14475117 132.3323713 124.29054816 131 125.4375 C130.01 126.283125 129.02 127.12875 128 128 C126.7315625 126.71416016 126.7315625 126.71416016 125.4375 125.40234375 C124.2918054 124.24725821 123.14596412 123.09231815 122 121.9375 C121.17048828 121.09541992 121.17048828 121.09541992 120.32421875 120.23632812 C117.34004987 117.23500885 114.30264897 114.35841588 111.09375 111.59765625 C105.90340098 107.11297968 101.15877719 102.20720665 96.35546875 97.31640625 C92.35455746 93.27160928 88.26317959 89.43845344 83.95117188 85.72851562 C80.64947781 82.80359145 77.58687167 79.64818956 74.5 76.5 C69.9755715 71.92622226 65.45163181 67.43244827 60.515625 63.296875 C59 62 59 62 57.6706543 60.45629883 C55.02798719 58.15270256 52.7331611 58.3676746 49.34033203 58.48779297 C45.0510613 59.42654636 42.74021137 62.35708155 39.9375 65.5625 C38.80360028 66.79556702 37.66686374 68.02603123 36.52734375 69.25390625 C35.66955322 70.18916138 35.66955322 70.18916138 34.79443359 71.14331055 C32.3621464 73.65998321 29.72510931 75.8923775 27.06860352 78.16723633 C22.60107159 82.12542848 18.5110324 86.49102674 14.35546875 90.77148438 C13.65035156 91.48755859 12.94523438 92.20363281 12.21875 92.94140625 C11.59935547 93.57763916 10.97996094 94.21387207 10.34179688 94.86938477 C7.09828518 97.82039879 3.50805718 100.36895711 0 103 C0 69.01 0 35.02 0 0 Z " fill="#DEF5FB" transform="translate(229,162)"/>
<path d="M0 0 C62.37 0 124.74 0 189 0 C189 16.17 189 32.34 189 49 C181.46671875 49.02578125 173.9334375 49.0515625 166.171875 49.078125 C161.40491364 49.1032857 156.63801622 49.12961265 151.87109375 49.16015625 C144.30159239 49.20854553 136.73223897 49.25256957 129.16259766 49.27099609 C123.06108561 49.28611855 116.95996002 49.3204859 110.85861969 49.36830902 C108.5286113 49.38316835 106.19854775 49.39104361 103.86849213 49.39188385 C100.60949802 49.39424151 97.35158239 49.42122539 94.09277344 49.45410156 C92.64160378 49.44655602 92.64160378 49.44655602 91.16111755 49.43885803 C90.27213272 49.45277084 89.38314789 49.46668365 88.46722412 49.48101807 C87.31129572 49.48654882 87.31129572 49.48654882 86.13201523 49.49219131 C83.34113674 49.96016045 83.34113674 49.96016045 80 54 C79.67 57.96 79.34 61.92 79 66 C67.45 66 55.9 66 44 66 C44 69.96 44 73.92 44 78 C55.55 78 67.1 78 79 78 C79 89.55 79 101.1 79 113 C67.45 113 55.9 113 44 113 C44 116.96 44 120.92 44 125 C55.55 125 67.1 125 79 125 C79 128.3 79 131.6 79 135 C52.93 135 26.86 135 0 135 C0 90.45 0 45.9 0 0 Z " fill="#AFE6F7" transform="translate(138,101)"/>
<path d="M0 0 C6.21735886 3.61829901 10.87929159 8.69431137 15.875 13.8125 C21.12807736 19.17189902 26.37326474 24.41742282 32.07470703 29.29956055 C36.25769615 32.99402152 40.09406973 37.05684453 44 41.0390625 C47.26063786 44.33791096 50.54806625 47.51981936 54.07421875 50.53515625 C56.72070509 52.80846154 59.12744508 55.14907889 61.45703125 57.74609375 C62.01326172 58.35517578 62.56949219 58.96425781 63.14257812 59.59179688 C64.26433482 60.83163322 65.36587084 62.09004124 66.44726562 63.36523438 C69.78693802 66.94318029 72.406034 68.53106406 77.34375 68.9765625 C84.53517932 68.51559711 88.12068533 64.07185585 92.6875 58.9375 C94.27242968 57.23612651 95.85964256 55.53687686 97.44921875 53.83984375 C98.21282715 53.01218506 98.97643555 52.18452637 99.76318359 51.33178711 C102.4018269 48.58111234 105.20309426 46.11276248 108.10473633 43.64624023 C111.22237106 40.93823934 114.10345128 38.00293582 117 35.0625 C117.58394531 34.47404297 118.16789063 33.88558594 118.76953125 33.27929688 C120.18204805 31.85520207 121.5913781 30.4279475 123 29 C133.11901365 37.50917057 142.66801677 46.5275181 151.92382812 55.96069336 C152.52646484 56.57178955 153.12910156 57.18288574 153.75 57.8125 C154.54664063 58.62654297 154.54664063 58.62654297 155.359375 59.45703125 C157.11800928 61.11098492 159.06864072 62.55148054 161 64 C161 77.53 161 91.06 161 105 C91.04 105 21.08 105 -51 105 C-51 86.52 -51 68.04 -51 49 C-33 31 -33 31 -25 24 C-23.57472621 22.63416215 -22.16411129 21.25251296 -20.78125 19.84375 C-19.72357422 18.77447266 -19.72357422 18.77447266 -18.64453125 17.68359375 C-17.93683594 16.96300781 -17.22914063 16.24242187 -16.5 15.5 C-11.18746619 10.09069872 -5.78080055 4.90940128 0 0 Z " fill="#78CFA9" transform="translate(280,233)"/>
<path d="M0 0 C1.12994385 0.00966797 1.12994385 0.00966797 2.28271484 0.01953125 C9.6868669 0.26265744 14.31296855 2.2649669 19.671875 7.40234375 C26.55902204 14.81598757 28.21095436 20.80024757 27.96484375 30.87109375 C27.31686921 39.34952116 23.90774101 44.73957147 17.6875 50.5 C10.15191548 55.9589725 2.73045547 56.07536211 -6.3125 55.5 C-13.52873435 54.19123204 -19.41539249 49.49917722 -23.66796875 43.62890625 C-28.16318436 36.08278619 -28.07328877 28.03675767 -27.3125 19.5 C-24.8635886 11.47809865 -18.55016072 6.07891924 -11.578125 1.8359375 C-7.57245168 0.19725296 -4.28617371 -0.03810779 0 0 Z " fill="#8891A7" transform="translate(357.3125,192.5)"/>
<path d="M0 0 C0 4.62 0 9.24 0 14 C-1.02134033 14.4125 -2.04268066 14.825 -3.0949707 15.25 C-7.83484687 17.16493805 -12.5737675 19.08223386 -17.3125 21 C-18.15857819 21.34225616 -19.00465637 21.68451233 -19.87637329 22.03713989 C-30.2695081 26.24311454 -40.65702504 30.45603503 -50.94458008 34.91601562 C-55.79480562 37 -55.79480562 37 -58 37 C-58 37.66 -58 38.32 -58 39 C-57.47602631 39.16535248 -56.95205261 39.33070496 -56.41220093 39.50106812 C-50.19746466 41.51166068 -44.18909031 43.89723347 -38.1640625 46.4140625 C-37.16289398 46.82917084 -36.16172546 47.24427917 -35.13021851 47.67196655 C-31.96058787 48.98671831 -28.79271531 50.30564103 -25.625 51.625 C-22.43556312 52.95076743 -19.24576208 54.27564866 -16.05551147 55.59945679 C-14.07728862 56.4206025 -12.09958802 57.24300774 -10.12246704 58.06680298 C-9.23078827 58.43743866 -8.3391095 58.80807434 -7.42041016 59.18994141 C-6.24534409 59.67933701 -6.24534409 59.67933701 -5.04653931 60.17861938 C-3.38683701 60.84474258 -1.69661387 61.43446204 0 62 C0 66.62 0 71.24 0 76 C-3.97456188 75.20508762 -6.83802213 74.35185295 -10.48608398 72.77856445 C-12.09947914 72.0869799 -12.09947914 72.0869799 -13.74546814 71.38142395 C-14.90067459 70.88043686 -16.05588104 70.37944977 -17.24609375 69.86328125 C-18.4487941 69.34622116 -19.65149445 68.82916107 -20.89064026 68.2964325 C-24.09119538 66.9204101 -27.28923019 65.53862443 -30.48675537 64.15557861 C-33.69218311 62.77024732 -36.89987365 61.39017832 -40.10742188 60.00976562 C-44.85600792 57.96558573 -49.60324902 55.91831667 -54.34936523 53.8684082 C-61.22726781 50.89902677 -68.11319985 47.94867829 -75 45 C-75 40.38 -75 35.76 -75 31 C-56.74635988 22.8363117 -38.34425313 15.04101354 -19.91333008 7.2878418 C-18.94445862 6.88012039 -17.97558716 6.47239899 -16.97735596 6.05232239 C-15.13476126 5.27718271 -13.29187729 4.50273021 -11.44866943 3.72904968 C-10.62779846 3.38388809 -9.80692749 3.0387265 -8.96118164 2.68310547 C-7.88182091 2.22990433 -7.88182091 2.22990433 -6.78065491 1.76754761 C-2.68007236 0 -2.68007236 0 0 0 Z " fill="#8793A9" transform="translate(168,292)"/>
<path d="M0 0 C33 0 66 0 100 0 C100 3.96 100 7.92 100 12 C67 12 34 12 0 12 C0 8.04 0 4.08 0 0 Z " fill="#8693A8" transform="translate(182,121)"/>
<path d="M0 0 C3.61459766 2.82881556 5.70230878 5.31759357 6.515625 9.9140625 C6.68163572 14.69279952 6.40151683 18.13519451 4.375 22.5 C0.00562265 27.09934457 -3.09477633 29.23927176 -9.5 29.5 C-15.90522367 29.23927176 -19.00562265 27.09934457 -23.375 22.5 C-25.79012588 17.29819041 -26.1044553 12.62535901 -25 7 C-22.6292192 2.78822182 -19.62127155 -0.02723707 -15.5 -2.5 C-9.50644379 -3.69871124 -5.15442548 -3.39972745 0 0 Z " fill="#F5838E" transform="translate(367,207)"/>
</svg>
