<?xml version="1.0" encoding="UTF-8"?>
<svg version="1.1" xmlns="http://www.w3.org/2000/svg" width="512" height="512">
<path d="M0 0 C1.4615389 -0.00461426 2.92307315 -0.01097069 4.38459778 -0.01890898 C8.38317269 -0.03555357 12.38136403 -0.02737832 16.37994003 -0.0149641 C20.69903873 -0.00589589 25.0180725 -0.01989211 29.3371582 -0.03088379 C37.79128338 -0.04865471 46.24526638 -0.04483539 54.69939709 -0.03323323 C61.57125705 -0.02419356 68.44307721 -0.02297721 75.31494141 -0.02732849 C76.29360137 -0.02794142 77.27226133 -0.02855436 78.28057766 -0.02918586 C80.26881028 -0.03046478 82.2570429 -0.03176164 84.2452755 -0.03307623 C102.88164333 -0.04447785 121.51793242 -0.03137488 140.15428734 -0.00987476 C156.13935599 0.00799584 172.12430844 0.00489161 188.109375 -0.0135498 C206.67981377 -0.03496389 225.25018354 -0.04337925 243.82063293 -0.03110075 C245.80148314 -0.02982658 247.78233336 -0.02856909 249.76318359 -0.02732849 C251.2250442 -0.02640284 251.2250442 -0.02640284 252.71643734 -0.02545848 C259.57871598 -0.0220072 266.4409508 -0.02782915 273.30322266 -0.0372467 C281.66796252 -0.04847404 290.03255227 -0.04541118 298.39727497 -0.02412373 C302.66374789 -0.0136232 306.92997067 -0.0094744 311.19644165 -0.02272034 C315.10482155 -0.03467086 319.01272028 -0.0280383 322.92105675 -0.00681013 C324.33210464 -0.00235528 325.74319347 -0.00458521 327.15421486 -0.01431328 C337.0587417 -0.0773412 344.74554705 0.87531276 352.3515625 7.57043457 C360.36674421 16.38285826 360.1122339 27.72057098 360.03353882 38.95140076 C360.0367198 40.60384308 360.04165175 42.25628279 360.04817164 43.90871531 C360.06093853 48.42549631 360.04890972 52.94191604 360.03264308 57.45867312 C360.0194422 62.33864039 360.02939601 67.2185688 360.03640747 72.09854126 C360.04647217 81.6469456 360.03523376 91.19521102 360.01670687 100.7435981 C359.99591173 111.86134625 359.99607992 122.97906458 359.99705203 134.09682853 C359.99805246 153.92765945 359.97974934 173.75842578 359.95068359 193.5892334 C359.92248368 212.83924536 359.90834325 232.0892005 359.90966797 251.3392334 C359.90974788 252.52589306 359.90982779 253.71255273 359.90991013 254.93517178 C359.90999084 256.11976868 359.91007155 257.30436559 359.9101547 258.52485937 C359.91153337 280.43880047 359.8997636 302.35271741 359.88184827 324.26665069 C359.87581074 332.02045424 359.87368861 339.77425336 359.87278366 347.52805901 C359.87142117 356.96883233 359.86251617 366.4095649 359.84411804 375.85032093 C359.83486881 380.66901622 359.82879598 385.48765929 359.83130646 390.30636406 C359.83349115 394.71327159 359.82649298 399.12006346 359.81200941 403.52694685 C359.80837316 405.12492486 359.80813146 406.72291477 359.81154399 408.32089328 C359.81565685 410.48578031 359.80757637 412.65028514 359.79633141 414.81513882 C359.79492256 416.01972443 359.79351371 417.22431004 359.79206216 418.46539825 C359.54495052 421.43712612 359.21207826 423.07043586 357.5390625 425.50793457 C354.5390625 427.50793457 354.5390625 427.50793457 350.5390625 427.50793457 C350.5390625 446.97793457 350.5390625 466.44793457 350.5390625 486.50793457 C357.16548828 486.45572754 357.16548828 486.45572754 363.92578125 486.40246582 C367.45367427 486.38316568 370.98155232 486.36689986 374.50946808 486.35268402 C378.23062273 486.33685826 381.95157156 486.31571845 385.67260742 486.28161621 C389.25822291 486.24896162 392.84363912 486.23106881 396.42939186 486.22330284 C397.79571481 486.21777022 399.16202715 486.20696621 400.528265 486.1907444 C402.44541107 486.16889182 404.36275872 486.1677085 406.2800293 486.1673584 C407.37034958 486.16069656 408.46066986 486.15403473 409.58403015 486.14717102 C412.95168147 486.55830894 414.82576867 487.50391561 417.5390625 489.50793457 C418.68269362 491.7951968 418.80408182 493.33645884 418.9140625 495.88293457 C418.96304687 496.65379395 419.01203125 497.42465332 419.0625 498.21887207 C418.26434398 501.70931556 416.51205089 502.60696318 413.5390625 504.50793457 C410.80671413 504.89401204 408.48089841 505.05003222 405.75379944 505.01688576 C404.9728763 505.02329871 404.19195317 505.02971167 403.3873657 505.03631896 C400.7606326 505.05297226 398.13480529 505.04105333 395.50805664 505.02932739 C393.60989053 505.03536639 391.71172929 505.04314333 389.8135767 505.05251253 C384.58971903 505.0731421 379.36613481 505.06869141 374.14225435 505.06015134 C368.51162508 505.05522949 362.88106274 505.07322928 357.25045776 505.08822632 C346.2170094 505.11375893 335.18365828 505.11730299 324.15018535 505.11262579 C315.18532777 505.10906378 306.22049979 505.11254937 297.25564575 505.12107468 C295.98110065 505.12226505 294.70655554 505.12345543 293.39338785 505.12468188 C290.80440417 505.12710531 288.2154205 505.12953358 285.62643683 505.13196664 C268.23688922 505.14754689 250.84736124 505.15537515 233.45780945 505.14733315 C232.7776499 505.14702039 232.09749035 505.14670764 231.39671991 505.14638541 C227.94930116 505.14477381 224.50188244 505.14308227 221.05446374 505.14135881 C220.0274369 505.14084554 220.0274369 505.14084554 218.97966205 505.14032191 C217.59506388 505.1396286 216.21046571 505.13893154 214.82586755 505.13823074 C193.27544855 505.12751332 171.72519317 505.1433846 150.17480469 505.18029785 C125.97027857 505.22170863 101.76588465 505.24312688 77.56131268 505.23514688 C64.74248685 505.23131588 51.92381011 505.23636562 39.10501099 505.26457596 C28.19356122 505.28834522 17.28235233 505.29127925 6.37089944 505.26699562 C0.80060566 505.25517735 -4.76924689 505.25313027 -10.33951187 505.27700043 C-15.43468917 505.29858158 -20.52905326 505.29267733 -25.6241914 505.26447706 C-27.47135911 505.25914513 -29.31858917 505.26403461 -31.16569602 505.27994879 C-33.67001528 505.30003462 -36.17147264 505.28343801 -38.67567444 505.25739479 C-39.76082633 505.27932283 -39.76082633 505.27932283 -40.86790049 505.30169386 C-43.67212808 505.24090807 -45.83765333 505.02460087 -48.03800285 503.20063917 C-49.94406623 501.00020352 -51.34718544 499.18452235 -51.8359375 496.27746582 C-51.28402751 493.39718555 -50.79898193 490.9842699 -49.0859375 488.57043457 C-42.04725483 483.96821898 -33.9357703 486.50793457 -25.4609375 486.50793457 C-25.4609375 467.03793457 -25.4609375 447.56793457 -25.4609375 427.50793457 C-27.1109375 427.17793457 -28.7609375 426.84793457 -30.4609375 426.50793457 C-32.39178315 424.92188278 -33.34383922 423.74213113 -34.4609375 421.50793457 C-34.5599115 419.36084883 -34.59196921 417.21059784 -34.59515858 415.06123447 C-34.59751081 414.38856125 -34.59986304 413.71588802 -34.60228655 413.02283075 C-34.6089958 410.74649223 -34.60851775 408.47021052 -34.60810852 406.19386292 C-34.61140598 404.55418019 -34.61513129 402.91449828 -34.61925 401.27481741 C-34.62929208 396.75134369 -34.63299035 392.22788324 -34.63563931 387.70439994 C-34.63953598 382.83232613 -34.64911493 377.96026289 -34.65785217 373.0881958 C-34.67763741 361.31134332 -34.68768662 349.53448996 -34.69657996 337.75762501 C-34.70096058 332.21371047 -34.70632807 326.66979689 -34.71156883 321.1258831 C-34.72858521 302.69865269 -34.7430788 284.27142289 -34.75031757 265.84418583 C-34.75222753 261.05949465 -34.75414785 256.27480347 -34.75610352 251.4901123 C-34.75658726 250.30087343 -34.757071 249.11163455 -34.7575694 247.88635813 C-34.76586741 228.62687116 -34.79119865 209.36744635 -34.82368419 190.10798652 C-34.85675492 170.34056191 -34.87476646 150.57316888 -34.87796181 130.80571645 C-34.88012719 119.70477443 -34.88887956 108.60392297 -34.91442299 97.50300789 C-34.93613036 88.04720065 -34.94418029 78.59150596 -34.93445621 69.13567663 C-34.92991128 64.31205229 -34.93180893 59.48866017 -34.95121765 54.66506767 C-34.96884873 50.24501268 -34.96785202 45.82535933 -34.95232036 41.40530007 C-34.94994417 39.81028421 -34.95426843 38.21524054 -34.96614901 36.62026716 C-35.03972648 26.08587642 -34.71789392 15.75572244 -27.2734375 7.57043457 C-19.06233553 0.34269118 -10.56937641 -0.07286893 0 0 Z " fill="#7ECF9E" transform="translate(93.4609375,3.4920654296875)"/>
<path d="M0 0 C1.27025528 -0.00838898 2.54051056 -0.01677795 3.84925842 -0.02542114 C5.25461122 -0.01445462 6.65996095 -0.00308867 8.06530762 0.00863647 C9.54707677 0.0064903 11.02884428 0.00261215 12.51060486 -0.00286865 C16.53340134 -0.01256356 20.5557541 0.0027429 24.57849693 0.02303743 C28.7873522 0.04060378 32.99619367 0.03708343 37.20507812 0.03631592 C44.27330958 0.03818907 51.34136933 0.05555473 58.4095459 0.08285522 C66.58251344 0.1143062 74.75529291 0.12485142 82.92831659 0.12338412 C90.78894314 0.12216346 98.64950843 0.1323752 106.51011658 0.14896774 C109.85611957 0.15603024 113.20210088 0.15969379 116.54811096 0.16075516 C120.48797044 0.16276408 124.42767198 0.17497399 128.36747932 0.19508743 C129.81386918 0.20092959 131.2602772 0.20338975 132.70667839 0.20223236 C134.68003902 0.20125084 136.6533926 0.21379964 138.62670898 0.22705078 C140.2836742 0.23207831 140.2836742 0.23207831 141.97411346 0.23720741 C144.83577007 0.49650744 146.44528287 0.89955622 148.81335449 2.49447632 C150.81335449 5.49447632 150.81335449 5.49447632 150.81335449 8.49447632 C162.36335449 8.49447632 173.91335449 8.49447632 185.81335449 8.49447632 C185.89357211 28.29931506 185.89357211 28.29931506 185.91101074 36.73666382 C185.92296966 42.49549033 185.93712235 48.25425329 185.9642334 54.01303101 C185.9859525 58.65549669 185.99792118 63.29789423 186.00310898 67.9404068 C186.0068064 69.71224287 186.01402648 71.48407518 186.02481461 73.25588226 C186.03931713 75.73621198 186.04133296 78.21625951 186.04040527 80.69662476 C186.04759583 81.43030273 186.05478638 82.16398071 186.06219482 82.91989136 C186.04733692 86.58734482 185.98908608 89.4577216 183.81335449 92.49447632 C180.81335449 94.49447632 180.81335449 94.49447632 176.81335449 94.49447632 C176.81335449 113.96447632 176.81335449 133.43447632 176.81335449 153.49447632 C183.43978027 153.44226929 183.43978027 153.44226929 190.20007324 153.38900757 C193.72796626 153.36970743 197.25584431 153.35344161 200.78376007 153.33922577 C204.50491472 153.3234 208.22586356 153.3022602 211.94689941 153.26815796 C215.53251491 153.23550337 219.11793111 153.21761056 222.70368385 153.20984459 C224.0700068 153.20431196 225.43631914 153.19350795 226.80255699 153.17728615 C228.71970307 153.15543356 230.63705071 153.15425024 232.55432129 153.15390015 C233.64464157 153.14723831 234.73496185 153.14057648 235.85832214 153.13371277 C239.22597346 153.54485069 241.10006066 154.49045735 243.81335449 156.49447632 C244.95698561 158.78173855 245.07837381 160.32300059 245.18835449 162.86947632 C245.23733887 163.64033569 245.28632324 164.41119507 245.33679199 165.20541382 C244.53863597 168.69585731 242.78634288 169.59350493 239.81335449 171.49447632 C237.08100612 171.88055379 234.75519041 172.03657397 232.02809143 172.00342751 C231.2471683 172.00984046 230.46624516 172.01625342 229.66165769 172.02286071 C227.03492459 172.03951401 224.40909728 172.02759508 221.78234863 172.01586914 C219.88418253 172.02190814 217.98602128 172.02968507 216.08786869 172.03905427 C210.86401102 172.05968385 205.6404268 172.05523316 200.41654634 172.04669309 C194.78591707 172.04177124 189.15535473 172.05977103 183.52474976 172.07476807 C172.49130139 172.10030067 161.45795027 172.10384473 150.42447734 172.09916754 C141.45961976 172.09560553 132.49479178 172.09909112 123.52993774 172.10761642 C122.25539264 172.1088068 120.98084753 172.10999718 119.66767985 172.11122363 C117.07869617 172.11364706 114.48971249 172.11607532 111.90072882 172.11850838 C94.51118122 172.13408864 77.12165323 172.1419169 59.73210144 172.13387489 C59.05194189 172.13356214 58.37178235 172.13324939 57.6710119 172.13292716 C54.22359315 172.13131556 50.77617444 172.12962402 47.32875574 172.12790056 C46.64407118 172.12755838 45.95938662 172.1272162 45.25395404 172.12686366 C43.86935587 172.12617035 42.4847577 172.12547329 41.10015954 172.12477249 C19.54974055 172.11405507 -2.00051484 172.12992635 -23.55090332 172.1668396 C-47.75542943 172.20825038 -71.95982336 172.22966863 -96.16439533 172.22168863 C-108.98322116 172.21785763 -121.8018979 172.22290737 -134.62069702 172.25111771 C-145.53214679 172.27488697 -156.44335567 172.277821 -167.35480857 172.25353737 C-172.92510234 172.2417191 -178.4949549 172.23967201 -184.06521988 172.26354218 C-189.16039718 172.28512333 -194.25476127 172.27921907 -199.34989941 172.25101881 C-201.19706712 172.24568688 -203.04429718 172.25057636 -204.89140403 172.26649053 C-207.39572329 172.28657637 -209.89718065 172.26997976 -212.40138245 172.24393654 C-213.12481704 172.25855523 -213.84825164 172.27317392 -214.5936085 172.2882356 C-217.39783609 172.22744981 -219.56336134 172.01114262 -221.76371086 170.18718092 C-223.66977424 167.98674527 -225.07289345 166.1710641 -225.56164551 163.26400757 C-225.00973552 160.3837273 -224.52468993 157.97081165 -222.81164551 155.55697632 C-215.77296284 150.95476073 -207.6614783 153.49447632 -199.18664551 153.49447632 C-199.18664551 134.02447632 -199.18664551 114.55447632 -199.18664551 94.49447632 C-200.83664551 94.16447632 -202.48664551 93.83447632 -204.18664551 93.49447632 C-206.11749116 91.90842453 -207.06954723 90.72867288 -208.18664551 88.49447632 C-208.18664551 62.09447632 -208.18664551 35.69447632 -208.18664551 8.49447632 C-143.17664551 8.49447632 -78.16664551 8.49447632 -11.18664551 8.49447632 C-10.85664551 7.17447632 -10.52664551 5.85447632 -10.18664551 4.49447632 C-7.13874852 0.45853301 -4.95736285 -0.00488956 0 0 Z " fill="#F8E9AF" transform="translate(267.1866455078125,336.5055236816406)"/>
<path d="M0 0 C2.89204498 0.04815111 5.78049474 0.04094379 8.67285156 0.02783203 C10.52964429 0.03896084 12.38642174 0.05316489 14.24316406 0.07080078 C15.52590714 0.06806656 15.52590714 0.06806656 16.83456421 0.0652771 C20.89461533 0.16212649 22.97867195 0.36077071 26.48388672 2.58496094 C30.22389066 6.51624121 29.61799161 10.29300104 29.61689758 15.45233154 C29.62057427 16.37268983 29.62425096 17.29304812 29.62803906 18.24129605 C29.63910638 21.34430057 29.64292489 24.44727164 29.64672852 27.55029297 C29.65299085 29.76742663 29.65963744 31.98455923 29.66664124 34.20169067 C29.68407202 40.23896899 29.69460858 46.27623938 29.70284677 52.31353664 C29.70799233 56.08289923 29.71406825 59.85225934 29.72035789 63.62162018 C29.73723042 74.05640199 29.75186541 84.49118264 29.75910664 94.9259758 C29.76101656 97.63440706 29.76293688 100.34283831 29.76489258 103.05126953 C29.76537632 103.7244436 29.76586006 104.39761768 29.76635846 105.09119096 C29.77465869 115.99609309 29.79999494 126.90088551 29.83247326 137.80573973 C29.86554106 148.99973053 29.88322236 160.19368163 29.88675088 171.38772511 C29.88910496 177.67350155 29.89811206 183.95910464 29.92321205 190.2448349 C29.94644164 196.15783396 29.95074649 202.07054492 29.94045067 207.98357773 C29.93995396 210.15479616 29.94631398 212.32602852 29.96000671 214.49720383 C29.97764731 217.45997026 29.97065775 220.42169405 29.95747375 223.38446045 C29.97392762 224.67522999 29.97392762 224.67522999 29.99071389 225.99207568 C29.93334791 231.32669304 29.10356661 234.49102485 25.46972656 238.67236328 C22.63050611 239.6187701 20.90230743 239.79680002 17.96197987 239.79541111 C17.03290689 239.79740216 16.10383392 239.79939321 15.14660722 239.80144459 C14.12424445 239.79853175 13.10188167 239.79561891 12.04853821 239.7926178 C10.42148123 239.79389944 10.42148123 239.79389944 8.76155442 239.79520696 C5.10867925 239.79686065 1.45584949 239.79134216 -2.19702148 239.78588867 C-4.80826822 239.78560675 -7.41951503 239.78576463 -10.03076172 239.78633118 C-15.66197369 239.78685599 -21.2931741 239.78371364 -26.92438316 239.77809334 C-35.06620465 239.76997256 -43.20802053 239.76736252 -51.34984563 239.76610535 C-64.5588358 239.76391574 -77.76781981 239.75725811 -90.97680664 239.74780273 C-103.80948862 239.73862627 -116.64216892 239.73154658 -129.47485352 239.72729492 C-130.26561917 239.7270322 -131.05638483 239.72676947 -131.87111308 239.72649879 C-135.83808005 239.72519377 -139.80504703 239.72393006 -143.77201402 239.72268689 C-176.69143832 239.71231711 -209.61085505 239.69470126 -242.53027344 239.67236328 C-242.37723425 237.75333683 -242.22223363 235.83446673 -242.06640625 233.91566467 C-241.9803009 232.84707749 -241.89419556 231.77849031 -241.80548096 230.67752171 C-240.73258365 218.96190289 -237.28265812 207.81782917 -233.53027344 196.73486328 C-233.29172638 196.02369354 -233.05317932 195.3125238 -232.80740356 194.57980347 C-224.36245611 169.52579568 -212.45130404 137.13797613 -192.53027344 118.67236328 C-192.53027344 121.97236328 -192.53027344 125.27236328 -192.53027344 128.67236328 C-147.65027344 128.67236328 -102.77027344 128.67236328 -56.53027344 128.67236328 C-57.15195535 114.43334794 -57.15195535 114.43334794 -59.53027344 103.67236328 C-99.46027344 103.34236328 -139.39027344 103.01236328 -180.53027344 102.67236328 C-178.55027344 100.36236328 -176.57027344 98.05236328 -174.53027344 95.67236328 C-173.67369141 94.65916016 -173.67369141 94.65916016 -172.79980469 93.62548828 C-165.40877971 84.98611325 -157.26932425 76.94302546 -148.53027344 69.67236328 C-147.98806152 69.21635742 -147.44584961 68.76035156 -146.88720703 68.29052734 C-92.0957394 22.32890988 -92.0957394 22.32890988 -65.53027344 19.67236328 C-65.53027344 19.01236328 -65.53027344 18.35236328 -65.53027344 17.67236328 C-61.43164342 15.95054338 -57.325371 14.2476664 -53.21777344 12.54736328 C-51.52491211 11.83580078 -51.52491211 11.83580078 -49.79785156 11.10986328 C-46.06273153 9.57003664 -42.3074642 8.10487697 -38.53027344 6.67236328 C-37.82217529 6.39696716 -37.11407715 6.12157104 -36.38452148 5.83782959 C-24.16934403 1.17455326 -13.04303143 -0.23266925 0 0 Z " fill="#71C184" transform="translate(380.5302734375,46.32763671875)"/>
<path d="M0 0 C1.4615389 -0.00461426 2.92307315 -0.01097069 4.38459778 -0.01890898 C8.38317269 -0.03555357 12.38136403 -0.02737832 16.37994003 -0.0149641 C20.69903873 -0.00589589 25.0180725 -0.01989211 29.3371582 -0.03088379 C37.79128338 -0.04865471 46.24526638 -0.04483539 54.69939709 -0.03323323 C61.57125705 -0.02419356 68.44307721 -0.02297721 75.31494141 -0.02732849 C76.29360137 -0.02794142 77.27226133 -0.02855436 78.28057766 -0.02918586 C80.26881028 -0.03046478 82.2570429 -0.03176164 84.2452755 -0.03307623 C102.88164333 -0.04447785 121.51793242 -0.03137488 140.15428734 -0.00987476 C156.13935599 0.00799584 172.12430844 0.00489161 188.109375 -0.0135498 C206.67981377 -0.03496389 225.25018354 -0.04337925 243.82063293 -0.03110075 C245.80148314 -0.02982658 247.78233336 -0.02856909 249.76318359 -0.02732849 C251.2250442 -0.02640284 251.2250442 -0.02640284 252.71643734 -0.02545848 C259.57871598 -0.0220072 266.4409508 -0.02782915 273.30322266 -0.0372467 C281.66796252 -0.04847404 290.03255227 -0.04541118 298.39727497 -0.02412373 C302.66374789 -0.0136232 306.92997067 -0.0094744 311.19644165 -0.02272034 C315.10482155 -0.03467086 319.01272028 -0.0280383 322.92105675 -0.00681013 C324.33210464 -0.00235528 325.74319347 -0.00458521 327.15421486 -0.01431328 C337.0587417 -0.0773412 344.74554705 0.87531276 352.3515625 7.57043457 C359.63871659 15.53215556 360.11912366 25.66257952 360.02008057 35.94120789 C360.02349827 37.25325976 360.02691597 38.56531164 360.03043723 39.91712266 C360.03931656 43.52955247 360.02347191 47.14150149 360.00332499 50.75387013 C359.98596175 54.66032437 359.99190293 58.56675409 359.99493408 62.47323608 C359.99702587 69.2317103 359.98453489 75.99002938 359.96198273 82.74846458 C359.92939797 92.519857 359.9190491 102.29117482 359.91403076 112.06261567 C359.90528824 127.91821039 359.87870104 143.77372254 359.84082031 159.62927246 C359.80407318 175.02640369 359.77577466 190.42351245 359.75878906 205.82067871 C359.75773817 206.77064034 359.75668727 207.72060197 359.75560454 208.69935032 C359.75038418 213.46529193 359.74532939 218.2312337 359.74035692 222.99717557 C359.69892739 262.50082254 359.62740231 302.0043667 359.5390625 341.50793457 C347.9890625 341.50793457 336.4390625 341.50793457 324.5390625 341.50793457 C323.8790625 339.52793457 323.2190625 337.54793457 322.5390625 335.50793457 C319.44025519 333.96453039 315.76700125 334.37397339 312.35241699 334.36076355 C311.08216171 334.35360825 309.81190643 334.34645294 308.50315857 334.33908081 C307.09780908 334.33624081 305.69245933 334.33352905 304.28710938 334.33093262 C302.80534202 334.32466544 301.32357622 334.31801842 299.84181213 334.3110199 C294.98048998 334.29001721 290.11916763 334.27962495 285.2578125 334.26965332 C283.58381636 334.26560514 281.90982039 334.2614882 280.23582458 334.25730324 C272.37522768 334.23826438 264.51464012 334.22402742 256.6540246 334.21569127 C247.57727362 334.20590623 238.50076569 334.17954842 229.4241004 334.13919038 C222.40830192 334.1090641 215.39257329 334.09422595 208.37671137 334.09091026 C204.1857998 334.08855688 199.99514829 334.07955856 195.80430603 334.05444908 C191.86438934 334.03122242 187.92490499 334.02691301 183.98493767 334.03721046 C182.53852338 334.03770717 181.09208817 334.03134708 179.6457386 334.01765442 C177.67247371 334.00001704 175.69902224 334.00940031 173.72570801 334.02018738 C172.62106453 334.01779902 171.51642105 334.01541067 170.37830353 334.01294994 C166.85617637 334.62698686 165.70709898 335.7173914 163.5390625 338.50793457 C163.2090625 339.49793457 162.8790625 340.48793457 162.5390625 341.50793457 C97.5290625 341.50793457 32.5190625 341.50793457 -34.4609375 341.50793457 C-34.6222629 261.89833277 -34.6222629 261.89833277 -34.65625 228.6505127 C-34.66408128 221.04056769 -34.67216315 213.430623 -34.68066406 205.82067871 C-34.68171906 204.86691969 -34.68277405 203.91316066 -34.68386102 202.93049985 C-34.70124977 187.5405315 -34.73278037 172.15062304 -34.76954868 156.76069017 C-34.80697841 140.96193742 -34.82917765 125.16321598 -34.83729148 109.36442071 C-34.84277503 99.61873006 -34.86008323 89.87320863 -34.89260337 80.12757007 C-34.91377634 73.44112343 -34.92013125 66.75476404 -34.91494301 60.06828632 C-34.91238555 56.21272525 -34.91625644 52.35745953 -34.9377594 48.50195122 C-34.96094028 44.31484515 -34.95286248 40.12836382 -34.94195557 35.94120789 C-34.95360693 34.73203664 -34.9652583 33.52286538 -34.97726274 32.27705258 C-34.91351925 23.20795623 -33.60107526 14.48381745 -27.2734375 7.57043457 C-19.06233553 0.34269118 -10.56937641 -0.07286893 0 0 Z M-3.98828125 37.15246582 C-8.08528396 43.70549667 -8.90075027 49.63794171 -8.84861755 57.17906189 C-8.85400309 58.12284779 -8.85938863 59.06663369 -8.86493737 60.03901917 C-8.8791874 63.18561188 -8.87212043 66.33178216 -8.86499023 69.47839355 C-8.87069532 71.74080746 -8.87766011 74.0032185 -8.88578796 76.265625 C-8.90371867 82.39989902 -8.90255114 88.53402998 -8.89684558 94.66832232 C-8.89375375 99.79263273 -8.8998461 104.91691566 -8.90588433 110.04122216 C-8.92073003 122.82200965 -8.91711629 135.60269681 -8.90502102 148.38348038 C-8.89508907 159.47028204 -8.9080308 170.5569168 -8.93195521 181.64369272 C-8.95636654 193.04244985 -8.96554977 204.44109986 -8.95930248 215.83988816 C-8.95593287 222.2335205 -8.95834858 228.62701494 -8.97555351 235.02062798 C-8.99102687 241.03305538 -8.98706236 247.04516421 -8.96824837 253.05757904 C-8.96456369 255.26139579 -8.96766737 257.46523617 -8.97813416 259.66903114 C-8.99135359 262.68299462 -8.97978751 265.69590493 -8.96214294 268.70982361 C-8.97174795 269.57696013 -8.98135296 270.44409666 -8.99124902 271.33751005 C-8.89151576 279.64650899 -5.94486646 286.84056429 -0.2612834 292.95079184 C7.03580147 299.26213606 14.69909078 300.23294445 24.0255127 300.12939453 C25.85921881 300.13897776 25.85921881 300.13897776 27.7299695 300.1487546 C31.09766014 300.16131184 34.4639159 300.15164119 37.83148217 300.13223982 C41.4730048 300.11674218 45.11443959 300.13023282 48.75596619 300.13998413 C55.87950522 300.15447749 63.00275829 300.14231033 70.12627017 300.12087089 C78.42913643 300.09680363 86.73193795 300.09857879 95.03483135 300.1011768 C109.85352099 300.10486343 124.67207633 300.0840722 139.49072266 300.04992676 C153.85631708 300.01683773 168.22177058 300.00266891 182.58740234 300.00891113 C198.24629988 300.01568189 213.90513846 300.01319546 229.56402731 299.99355173 C230.39280165 299.99251225 231.22157598 299.99147276 232.0754647 299.99040177 C233.73981104 299.98831095 235.40415736 299.98619997 237.06850365 299.9840686 C242.85028529 299.97718571 248.63204873 299.97650158 254.41383362 299.97795105 C261.46392269 299.9793938 268.51389716 299.96964452 275.56394827 299.94600469 C279.15812649 299.93418049 282.75214539 299.92699557 286.34634209 299.93284225 C290.24854436 299.93900222 294.15044927 299.92178673 298.0526123 299.90234375 C299.18005623 299.90767168 300.30750016 299.9129996 301.46910906 299.91848898 C311.47405244 299.83262431 319.57297833 298.32994309 326.91796875 291.26574707 C333.15920056 284.49814631 333.83816439 276.81801871 333.79975891 268.0329895 C333.80358446 267.09822513 333.80741001 266.16346076 333.81135148 265.20037019 C333.8216432 262.07838729 333.81769658 258.95658962 333.8137207 255.83459473 C333.8180693 253.5920342 333.82325294 251.34947517 333.82920837 249.10691833 C333.84259387 243.02219511 333.84317752 236.93753402 333.84064507 230.85279894 C333.83957504 225.77079467 333.84445958 220.68880296 333.8492505 215.60680139 C333.86097829 202.93076531 333.86012149 190.25476722 333.85369369 177.5787317 C333.84852568 166.58242667 333.85977824 155.58621025 333.87879191 144.58992274 C333.89818671 133.28613693 333.90613223 121.98239187 333.90266865 110.67858541 C333.90085635 104.337497 333.90348678 97.99648975 333.91738319 91.65541458 C333.92996416 85.6914766 333.92801471 79.72771588 333.91497231 73.76378059 C333.91260757 71.57770159 333.91533751 69.39161011 333.92359543 67.20554543 C333.93407307 64.21577435 333.92595375 61.22659696 333.9132843 58.23684692 C333.92065859 57.37681018 333.92803287 56.51677343 333.93563062 55.63067496 C333.86644266 47.84161487 332.24646029 40.60934899 326.9140625 34.69543457 C325.99753906 33.6338916 325.99753906 33.6338916 325.0625 32.55090332 C317.68607595 26.57896868 310.28837397 25.92667249 301.05897522 25.99327087 C299.82510824 25.98632535 298.59124126 25.97937982 297.31998438 25.97222382 C293.91604273 25.95715163 290.51298055 25.95987286 287.10907948 25.97037685 C283.43003742 25.97739196 279.75108317 25.96135347 276.07206726 25.94837952 C268.87291746 25.9267728 261.67392595 25.92685783 254.4747544 25.93500506 C248.62168292 25.94131304 242.76865748 25.94016072 236.91558647 25.93373299 C236.08153402 25.93283133 235.24748156 25.93192968 234.38815479 25.9310007 C232.69361189 25.92914944 230.99906901 25.92728688 229.30452614 25.92541314 C213.42552248 25.90884626 197.54660775 25.91754439 181.66760945 25.93439872 C167.15104097 25.94909453 152.63467949 25.93446702 138.11813767 25.90562855 C123.19935816 25.87621253 108.28067412 25.86526871 93.36186689 25.87481076 C91.67336271 25.87583327 89.98485851 25.87682788 88.29635429 25.87779427 C87.05030536 25.87850885 87.05030536 25.87850885 85.77908372 25.87923787 C79.93616702 25.8813991 74.09334101 25.87161347 68.25044441 25.85702324 C61.12526509 25.83947867 54.0003496 25.83964758 46.87518055 25.86237489 C43.24241456 25.87349802 39.61011303 25.87672414 35.9773674 25.85807419 C32.03338136 25.83808749 28.09011693 25.85709732 24.14613342 25.87974548 C23.00633453 25.86790976 21.86653564 25.85607403 20.69219738 25.84387964 C10.26369432 25.965363 2.86541477 29.25471783 -3.98828125 37.15246582 Z " fill="#F8E9AF" transform="translate(93.4609375,3.4920654296875)"/>
<path d="M0 0 C124.08 0 248.16 0 376 0 C376 19.47 376 38.94 376 59 C382.62642578 58.94779297 382.62642578 58.94779297 389.38671875 58.89453125 C392.91461177 58.87523111 396.44248982 58.85896529 399.97040558 58.84474945 C403.69156023 58.82892369 407.41250906 58.80778388 411.13354492 58.77368164 C414.71916041 58.74102705 418.30457662 58.72313424 421.89032936 58.71536827 C423.25665231 58.70983565 424.62296465 58.69903164 425.9892025 58.68280983 C427.90634857 58.66095725 429.82369622 58.65977393 431.7409668 58.65942383 C432.83128708 58.65276199 433.92160736 58.64610016 435.04496765 58.63923645 C438.41261897 59.05037437 440.28670617 59.99598104 443 62 C444.14363112 64.28726223 444.26501932 65.82852427 444.375 68.375 C444.42398437 69.14585937 444.47296875 69.91671875 444.5234375 70.7109375 C443.72528148 74.20138099 441.97298839 75.09902861 439 77 C436.26765163 77.38607747 433.94183591 77.54209765 431.21473694 77.50895119 C430.4338138 77.51536414 429.65289067 77.5217771 428.8483032 77.52838439 C426.2215701 77.54503769 423.59574279 77.53311876 420.96899414 77.52139282 C419.07082803 77.52743182 417.17266679 77.53520875 415.2745142 77.54457796 C410.05065653 77.56520753 404.82707231 77.56075684 399.60319185 77.55221677 C393.97256258 77.54729492 388.34200024 77.56529471 382.71139526 77.58029175 C371.6779469 77.60582436 360.64459578 77.60936842 349.61112285 77.60469122 C340.64626527 77.60112921 331.68143729 77.6046148 322.71658325 77.61314011 C321.44203815 77.61433048 320.16749304 77.61552086 318.85432535 77.61674731 C316.26534167 77.61917074 313.676358 77.62159901 311.08737433 77.62403207 C293.69782672 77.63961232 276.30829874 77.64744058 258.91874695 77.63939857 C258.2385874 77.63908582 257.55842785 77.63877307 256.85765741 77.63845084 C253.41023866 77.63683924 249.96281994 77.6351477 246.51540124 77.63342424 C245.4883744 77.63291097 245.4883744 77.63291097 244.44059955 77.63238734 C243.05600138 77.63169403 241.67140321 77.63099697 240.28680505 77.63029617 C218.73638605 77.61957875 197.18613067 77.63545003 175.63574219 77.67236328 C151.43121607 77.71377406 127.22682215 77.73519231 103.02225018 77.72721231 C90.20342435 77.72338131 77.38474761 77.72843105 64.56594849 77.75664139 C53.65449872 77.78041065 42.74328983 77.78334468 31.83183694 77.75906105 C26.26154316 77.74724278 20.69169061 77.7451957 15.12142563 77.76906586 C10.02624833 77.79064701 4.93188424 77.78474276 -0.1632539 77.75654249 C-2.01042161 77.75121056 -3.85765167 77.75610004 -5.70475852 77.77201422 C-8.20907778 77.79210005 -10.71053514 77.77550344 -13.21473694 77.74946022 C-13.93817154 77.76407891 -14.66160613 77.7786976 -15.40696299 77.79375929 C-18.21119058 77.7329735 -20.37671583 77.5166663 -22.57706535 75.6927046 C-24.48312873 73.49226895 -25.88624794 71.67658778 -26.375 68.76953125 C-25.82309001 65.88925098 -25.33804443 63.47633533 -23.625 61.0625 C-16.58631733 56.46028441 -8.4748328 59 0 59 C0 39.53 0 20.06 0 0 Z " fill="#CD9669" transform="translate(68,431)"/>
<path d="M0 0 C1.85080047 -0.01041829 1.85080047 -0.01041829 3.73899084 -0.02104706 C7.14293249 -0.03611924 10.54599467 -0.03339801 13.94989574 -0.02289402 C17.62893779 -0.01587892 21.30789205 -0.0319174 24.98690796 -0.04489136 C32.18605775 -0.06649808 39.38504927 -0.06641304 46.58422082 -0.05826581 C52.4372923 -0.05195784 58.29031774 -0.05311015 64.14338875 -0.05953789 C65.39446743 -0.06089037 65.39446743 -0.06089037 66.67082043 -0.06227018 C68.36536333 -0.06412144 70.05990621 -0.065984 71.75444908 -0.06785773 C87.63345274 -0.08442462 103.51236747 -0.07572648 119.39136577 -0.05887216 C133.90793425 -0.04417635 148.42429573 -0.05880385 162.94083755 -0.08764232 C177.85961706 -0.11705834 192.7783011 -0.12800216 207.69710833 -0.11846012 C209.38561251 -0.1174376 211.07411671 -0.11644299 212.76262093 -0.11547661 C213.59332022 -0.11500022 214.42401951 -0.11452383 215.2798915 -0.114033 C221.1228082 -0.11187178 226.96563421 -0.12165741 232.80853081 -0.13624763 C239.93371013 -0.1537922 247.05862562 -0.1536233 254.18379467 -0.13089598 C257.81656066 -0.11977286 261.44886219 -0.11654673 265.08160782 -0.13519669 C269.02559386 -0.15518338 272.96885829 -0.13617355 276.9128418 -0.11352539 C278.05264069 -0.12536112 279.19243958 -0.13719685 280.36677784 -0.14939123 C289.765244 -0.03990694 296.8060818 2.50413245 303.45741272 9.2646637 C309.14102689 15.68840453 309.96495906 24.00602785 309.90086365 32.2301178 C309.90554362 33.16659102 309.91022359 34.10306424 309.91504538 35.06791544 C309.92694393 38.1837755 309.91755822 41.29919154 309.90809631 44.41505432 C309.91216429 46.65791072 309.91750744 48.90076511 309.92402649 51.14361572 C309.93767888 57.21998974 309.93240993 63.29621058 309.92288923 69.3725872 C309.91528193 75.73851299 309.92234123 82.10442586 309.92704773 88.47035217 C309.93285129 99.84403855 309.92354161 111.21764733 309.90826972 122.59131819 C309.89486757 132.89115919 309.89719599 143.19089874 309.911026 153.49073792 C309.92710225 165.4689588 309.93304505 177.44711812 309.92418921 189.42535353 C309.91951761 195.75969852 309.91887379 202.09397373 309.92879868 208.42831421 C309.93747894 214.38408154 309.93142683 220.3396577 309.91411591 226.29540443 C309.91015676 228.47825618 309.91127528 230.66112407 309.9179039 232.84396935 C309.92613196 235.82926499 309.9157823 238.81395243 309.90086365 241.79920959 C309.90755581 242.6578821 309.91424798 243.51655461 309.92114294 244.4012475 C309.83573184 253.2452396 307.58822249 260.3104269 301.48475647 266.7881012 C295.58758239 271.97011103 288.99281057 273.63168256 281.26301289 273.65167809 C279.69502759 273.6592899 279.69502759 273.6592899 278.09536582 273.66705549 C276.95335769 273.66755324 275.81134955 273.668051 274.63473511 273.66856384 C273.41653649 273.6729461 272.19833786 273.67732835 270.94322413 273.6818434 C267.56474488 273.69289032 264.18631178 273.69945028 260.80782115 273.70402455 C257.16282081 273.70999198 253.5178374 273.7215988 249.87284851 273.73231506 C241.07244328 273.75681051 232.27203247 273.77146074 223.47160366 273.78437513 C220.98528326 273.78808874 218.49896342 273.79206182 216.01264358 273.7961278 C200.56613487 273.8213628 185.11962524 273.84341133 169.67310047 273.85585594 C166.09721689 273.85878553 162.52133334 273.86174721 158.94544983 273.86476135 C158.05670662 273.8655074 157.16796342 273.86625345 156.2522886 273.86702211 C141.85511404 273.87967588 127.45806297 273.91290132 113.06094614 273.95456319 C98.27339647 273.99700356 83.48591 274.02055327 68.69829959 274.02577651 C60.39810465 274.02918791 52.09810283 274.0409114 43.79796791 274.07387924 C36.72944909 274.10190965 29.66116301 274.11286594 22.59259293 274.10168378 C18.988184 274.09650499 15.38426222 274.09933225 11.77992439 274.12414932 C7.86642269 274.15086946 3.95358109 274.13855494 0.04000854 274.12266541 C-1.09084598 274.13654749 -2.22170051 274.15042958 -3.38682336 274.16473234 C-11.68150699 274.08187705 -18.39240672 272.24493484 -24.62844628 266.55414808 C-31.35561895 259.59068421 -32.93306559 252.20109795 -32.86103821 242.83680725 C-32.86571818 241.89231578 -32.87039815 240.94782432 -32.87521994 239.97471189 C-32.88713787 236.82577481 -32.87772511 233.6772755 -32.86827087 230.52833557 C-32.87233799 228.2643 -32.87768065 226.00026641 -32.88420105 223.73623657 C-32.89786371 217.59788955 -32.89258023 211.459694 -32.88306379 205.32134438 C-32.87546182 198.89355185 -32.88251431 192.46577217 -32.88722229 186.03797913 C-32.89302761 174.55308672 -32.88371203 163.06827166 -32.86844428 151.58339137 C-32.85504186 141.17975145 -32.85737019 130.77621196 -32.87120056 120.37257385 C-32.88727153 108.27790107 -32.89322242 96.18330708 -32.88436377 84.08862162 C-32.87968974 77.69113663 -32.87905506 71.29372076 -32.88897324 64.89624023 C-32.89764705 58.88139404 -32.89161314 52.8667373 -32.87429047 46.85191154 C-32.87032788 44.64606478 -32.87145574 42.44020203 -32.87807846 40.23436165 C-32.88629285 37.22020013 -32.87597324 34.20664328 -32.86103821 31.19252014 C-32.86773037 30.32247077 -32.87442254 29.45242141 -32.8813175 28.55600691 C-32.80822436 20.93524221 -31.03351136 14.60370978 -25.85508728 8.7646637 C-24.93856384 7.68958557 -24.93856384 7.68958557 -24.00352478 6.5927887 C-16.67316657 0.55602311 -9.21984209 -0.06652942 0 0 Z M-14.48008728 21.5146637 C-16.15128255 24.85705423 -15.62803774 28.61887197 -15.6272583 32.29463196 C-15.63093499 33.21499025 -15.63461168 34.13534853 -15.63839978 35.08359647 C-15.64946709 38.18660098 -15.65328561 41.28957205 -15.65708923 44.39259338 C-15.66335157 46.60972704 -15.66999816 48.82685965 -15.67700195 51.04399109 C-15.69443274 57.08126941 -15.7049693 63.1185398 -15.71320748 69.15583706 C-15.71835305 72.92519965 -15.72442897 76.69455975 -15.73071861 80.46392059 C-15.74759114 90.8987024 -15.76222613 101.33348306 -15.76946735 111.76827621 C-15.77137727 114.47670747 -15.7732976 117.18513872 -15.7752533 119.89356995 C-15.77573704 120.56674402 -15.77622078 121.23991809 -15.77671918 121.93349138 C-15.78501941 132.8383935 -15.81035566 143.74318593 -15.84283397 154.64804015 C-15.87590178 165.84203095 -15.89358308 177.03598204 -15.89711159 188.23002553 C-15.89946568 194.51580196 -15.90847278 200.80140506 -15.93357277 207.08713531 C-15.95680235 213.00013437 -15.96110721 218.91284534 -15.95081139 224.82587814 C-15.95031468 226.99709657 -15.9566747 229.16832893 -15.97036743 231.33950424 C-15.98800803 234.30227067 -15.98101847 237.26399447 -15.96783447 240.22676086 C-15.97880372 241.08727389 -15.98977296 241.94778692 -16.00107461 242.8343761 C-15.94200802 248.32713768 -15.04957515 251.2848123 -11.48008728 255.5146637 C-9.01417137 256.74762165 -7.3995536 256.64223927 -4.64083385 256.64609146 C-3.61233356 256.64993261 -2.58383326 256.65377375 -1.52416629 256.65773129 C-0.38557282 256.65686481 0.75302065 256.65599833 1.92611694 256.65510559 C3.12894591 256.65807671 4.33177488 256.66104784 5.57105321 256.66410899 C8.92036144 256.67130488 12.2696184 256.67396952 15.6189307 256.67470646 C19.22707438 256.67655404 22.83520688 256.68409988 26.44334412 256.69084167 C34.33793619 256.70443785 42.23252319 256.71045174 50.12712502 256.71485233 C55.05430665 256.71761265 59.98148631 256.72184962 64.90866661 256.72635651 C78.54403847 256.73855096 92.17940876 256.74884985 105.81478596 256.7522316 C107.12446186 256.75256095 107.12446186 256.75256095 108.46059586 256.75289695 C109.7734501 256.75322437 109.7734501 256.75322437 111.11282665 256.7535584 C112.88646146 256.75400187 114.66009627 256.75444843 116.43373108 256.75489807 C117.31351988 256.7551195 118.19330868 256.75534093 119.09975775 256.75556907 C133.35820048 256.75951779 147.61659213 256.77697326 161.87501512 256.80025759 C176.50537517 256.82395693 191.13570958 256.83643281 205.76608914 256.83759952 C213.98395295 256.83851709 222.20175021 256.84429 230.41959572 256.86241913 C237.4169285 256.87780103 244.41417417 256.88295193 251.41152064 256.87468103 C254.98276453 256.87076767 258.55383289 256.87173725 262.12505531 256.88573837 C265.99436571 256.90076964 269.86342754 256.89263101 273.73275757 256.88215637 C274.86465887 256.89021278 275.99656017 256.89826918 277.16276151 256.90656972 C278.19908505 256.89997988 279.23540859 256.89339003 280.30313587 256.88660049 C281.1962931 256.88719758 282.08945034 256.88779467 283.00967294 256.88840985 C286.15292458 256.42041543 287.98551509 255.41826246 290.51991272 253.5146637 C292.32144511 250.82294769 292.77056255 248.71252489 292.77718163 245.50691319 C292.78685496 244.31872104 292.78685496 244.31872104 292.79672372 243.106525 C292.79362652 242.24223265 292.79052932 241.3779403 292.78733826 240.48745728 C292.79413493 239.10329822 292.79413493 239.10329822 292.8010689 237.69117635 C292.81375251 234.59200503 292.81208998 231.49300854 292.81044006 228.39381409 C292.81642278 226.17476169 292.82322773 223.95571138 292.83079529 221.73666382 C292.84848716 215.70368842 292.85315197 209.67076972 292.85442686 203.63777089 C292.85632414 198.60524565 292.86367958 193.57273367 292.87077105 188.54021353 C292.88613319 177.34838887 292.89210788 166.15658521 292.89076035 154.96475226 C292.89068043 154.29326649 292.89060052 153.62178072 292.89051819 152.9299469 C292.89039555 151.92148883 292.89039555 151.92148883 292.89027043 150.89265787 C292.88945729 139.99366703 292.90860234 129.09481431 292.93679492 118.19586343 C292.96551377 107.00519689 292.9789694 95.81458095 292.97760737 84.6238727 C292.97709673 78.34096277 292.98283622 72.05820917 293.00396347 65.7753315 C293.0232851 59.86804065 293.02351189 53.96105627 293.00893021 48.05375481 C293.00683356 45.88373239 293.01159362 43.7136911 293.02365112 41.54370117 C293.03902814 38.58505517 293.02984525 35.62747587 293.01438904 32.66885376 C293.02981973 31.37576132 293.02981973 31.37576132 293.04556215 30.05654579 C292.99870095 26.00741281 292.83145333 24.00662118 290.61400795 20.50502682 C287.5138902 17.55847503 285.8360655 17.38877142 281.66504192 17.38044262 C280.11706638 17.37375585 280.11706638 17.37375585 278.53781861 17.366934 C277.3953342 17.36711836 276.25284978 17.36730273 275.07574463 17.36749268 C273.86883211 17.36381599 272.66191959 17.3601393 271.41843396 17.3563512 C268.0577262 17.3472122 264.69706732 17.34261202 261.33635175 17.33996189 C257.71593614 17.33606329 254.09553474 17.32648469 250.47512817 17.31774902 C241.72688597 17.2979726 232.97864258 17.28791717 224.2303836 17.27902123 C220.11324724 17.27464049 215.99611217 17.26927315 211.87897682 17.26403236 C198.19728328 17.24701934 184.51559055 17.2325242 170.83388805 17.22528362 C167.28220811 17.22337365 163.73052818 17.22145333 160.17884827 17.21949768 C159.29606885 17.21901394 158.41328943 17.2185302 157.50375912 17.2180318 C143.19680105 17.20972789 128.8899265 17.18438522 114.58300491 17.151917 C99.90292467 17.11887282 85.2228869 17.10083728 70.54276925 17.09763938 C62.29693539 17.09547189 54.05122333 17.08668838 45.80542564 17.06117821 C38.78428819 17.03950727 31.76330211 17.03140294 24.74213501 17.04114499 C21.15868681 17.04570017 17.57555118 17.04373344 13.99214554 17.02438354 C10.10964329 17.00359928 6.22757529 17.01370352 2.34503174 17.0269165 C0.64134337 17.01046263 0.64134337 17.01046263 -1.09676296 16.99367636 C-8.63751038 17.00586164 -8.63751038 17.00586164 -14.48008728 21.5146637 Z " fill="#CBB292" transform="translate(117.48008728027344,29.485336303710938)"/>
<path d="M0 0 C44.88 0 89.76 0 136 0 C134.74092608 20.14518267 129.89681462 38.80208919 116 54 C115.18789063 54.90363281 114.37578125 55.80726563 113.5390625 56.73828125 C102.18721053 68.75693255 88.2802719 76.05251861 71.66015625 77.23828125 C53.9564307 77.60350469 39.16251751 72.4658881 26.2734375 60.20703125 C25.52320313 59.47871094 24.77296875 58.75039062 24 58 C23.37351563 57.44699219 22.74703125 56.89398438 22.1015625 56.32421875 C13.28842614 48.28871207 8.02752077 37.04122613 4 26 C3.69191406 25.20464844 3.38382813 24.40929687 3.06640625 23.58984375 C0.24713574 15.50973352 0.57252687 9.16042992 0 0 Z " fill="#2C3E50" transform="translate(188,175)"/>
<path d="M0 0 C0.77355032 -0.00205263 1.54710065 -0.00410527 2.34409189 -0.0062201 C4.95750697 -0.01191157 7.57086971 -0.01043022 10.18428993 -0.00901413 C12.06835002 -0.01159653 13.95240956 -0.01460934 15.83646834 -0.01801753 C21.03055919 -0.02610536 26.22463624 -0.02787809 31.41873264 -0.028615 C37.01392362 -0.03046243 42.60910738 -0.03800814 48.2042942 -0.04475021 C60.44579643 -0.05834617 72.6872954 -0.06436006 84.92880392 -0.06876087 C92.56747031 -0.07152086 100.20613542 -0.07575773 107.84480095 -0.08026505 C128.98027347 -0.09245878 150.1157449 -0.10279367 171.2512207 -0.10614014 C172.61822592 -0.10636177 173.98523115 -0.10658355 175.35223637 -0.10680549 C176.72256933 -0.10702613 178.0929023 -0.10724661 179.46323526 -0.10746694 C182.21242674 -0.10790949 184.96161823 -0.10835661 187.71080971 -0.10880661 C188.39245036 -0.108916 189.07409102 -0.10902539 189.77638745 -0.1091381 C211.88673142 -0.11277005 233.99704263 -0.12869536 256.10737406 -0.15199697 C279.47531643 -0.17657901 302.84323486 -0.19030546 326.21119273 -0.19150805 C338.95287787 -0.19242615 351.69452011 -0.19821231 364.43619347 -0.21632767 C375.28358209 -0.23169518 386.13091456 -0.23686894 396.978312 -0.22858956 C402.51607327 -0.22467131 408.05372133 -0.22566979 413.59146881 -0.23964691 C418.65690157 -0.25231542 423.72213524 -0.25125076 428.78756745 -0.2390562 C430.62403023 -0.23708692 432.46050677 -0.24023389 434.29695015 -0.24890056 C436.78610711 -0.25990763 439.27455079 -0.25256632 441.76368713 -0.24050903 C442.84247702 -0.25190182 442.84247702 -0.25190182 443.94306064 -0.26352477 C448.2919758 -0.2177962 451.0462597 0.46395085 454.50768471 3.13142776 C455.65131582 5.41869 455.77270403 6.95995204 455.88268471 9.50642776 C455.93166908 10.27728714 455.98065346 11.04814651 456.03112221 11.84236526 C455.23296619 15.33280876 453.4806731 16.23045638 450.50768471 18.13142776 C447.77533634 18.51750523 445.44952062 18.67352542 442.72242165 18.64037895 C441.94149851 18.64679191 441.16057538 18.65320486 440.35598791 18.65981215 C437.72925481 18.67646546 435.1034275 18.66454652 432.47667885 18.65282059 C430.57851274 18.65885958 428.6803515 18.66663652 426.78219891 18.67600572 C421.55834124 18.69663529 416.33475702 18.69218461 411.11087656 18.68364453 C405.48024729 18.67872269 399.84968495 18.69672247 394.21907997 18.71171951 C383.1856316 18.73725212 372.15228049 18.74079618 361.11880755 18.73611899 C352.15394998 18.73255698 343.18912199 18.73604257 334.22426796 18.74456787 C332.94972285 18.74575825 331.67517775 18.74694863 330.36201006 18.74817508 C327.77302638 18.7505985 325.18404271 18.75302677 322.59505904 18.75545983 C305.20551143 18.77104009 287.81598344 18.77886835 270.42643166 18.77082634 C269.74627211 18.77051359 269.06611256 18.77020084 268.36534212 18.76987861 C264.91792336 18.76826701 261.47050465 18.76657547 258.02308595 18.764852 C256.99605911 18.76433874 256.99605911 18.76433874 255.94828425 18.76381511 C254.56368609 18.7631218 253.17908792 18.76242474 251.79448976 18.76172393 C230.24407076 18.75100651 208.69381537 18.7668778 187.1434269 18.80379105 C162.93890078 18.84520183 138.73450686 18.86662008 114.52993488 18.85864007 C101.71110905 18.85480907 88.89243232 18.85985881 76.07363319 18.88806915 C65.16218343 18.91183842 54.25097454 18.91477245 43.33952165 18.89048882 C37.76922787 18.87867055 32.19937531 18.87662346 26.62911034 18.90049362 C21.53393304 18.92207478 16.43956894 18.91617052 11.3444308 18.88797025 C9.49726309 18.88263833 7.65003303 18.8875278 5.80292618 18.90344198 C3.29860692 18.92352781 0.79714957 18.90693121 -1.70705223 18.88088799 C-2.43048683 18.89550668 -3.15392143 18.91012537 -3.89927828 18.92518705 C-6.70350588 18.86440126 -8.86903112 18.64809407 -11.06938064 16.82413237 C-12.97544402 14.62369671 -14.37856323 12.80801555 -14.86731529 9.90095901 C-14.3154053 7.02067875 -13.83035972 4.60776309 -12.11731529 2.19392776 C-8.29706344 -0.30392921 -4.37637286 -0.01069779 0 0 Z " fill="#3E5B6B" transform="translate(56.4923152923584,489.8685722351074)"/>
<path d="M0 0 C1.27162994 -0.00976364 2.54325989 -0.01952728 3.85342407 -0.02958679 C5.25514726 -0.01508219 6.65686538 -0.00008146 8.05857849 0.0153656 C9.54049592 0.01350101 11.02241197 0.00946321 12.50431824 0.00341797 C16.52302701 -0.0065532 20.54103 0.01460666 24.55963635 0.04189801 C28.76580771 0.06573685 32.97196527 0.06278313 37.17819214 0.0632019 C44.24049318 0.06782913 51.30252452 0.09146616 58.36473083 0.12767029 C66.53033818 0.16941947 74.69570273 0.18698614 82.86141068 0.19029003 C91.5551509 0.1938894 100.24880374 0.21276293 108.94250751 0.23741031 C111.4478126 0.24363909 113.95311104 0.24727529 116.45842171 0.25044441 C120.39420253 0.25634508 124.32980988 0.27265834 128.26551819 0.29704857 C129.71029253 0.30448887 131.1550887 0.30856052 132.59988213 0.30902863 C134.57101026 0.31028643 136.54211597 0.32508004 138.51318359 0.34057617 C139.61652825 0.34522668 140.71987291 0.34987719 141.85665226 0.35466862 C144.71522282 0.61675919 146.32679389 1.0219577 148.69309998 2.61473083 C151.79223658 7.26343574 151.1016776 12.02018856 151.13059998 17.48973083 C151.16347107 18.57898865 151.19634216 19.66824646 151.23020935 20.79051208 C151.23729919 21.84367615 151.24438904 22.89684021 151.25169373 23.98191833 C151.27187561 25.42220398 151.27187561 25.42220398 151.29246521 26.8915863 C150.44710835 30.73236446 148.69247686 32.12942588 145.69309998 34.61473083 C142.71519375 35.24114323 142.71519375 35.24114323 139.34823608 35.24291992 C138.06819199 35.25557388 136.78814789 35.26822784 135.46931458 35.28126526 C134.05814719 35.26994995 132.64698383 35.25812251 131.23582458 35.24583435 C129.74405059 35.25097451 128.25228267 35.25825653 126.76052856 35.26751709 C122.71500161 35.28602584 118.67013399 35.27309696 114.6246345 35.25342679 C110.39041426 35.23703745 106.15623568 35.24585343 101.92199707 35.25094604 C94.81263193 35.2554662 87.70352997 35.23960089 80.59422302 35.21165466 C72.37398464 35.17959067 64.15422058 35.17962343 55.93394846 35.19686943 C48.02576557 35.21272968 40.11775664 35.20600504 32.20958138 35.18893242 C28.84399856 35.18205851 25.47855504 35.18309777 22.11297417 35.19047737 C18.1507997 35.19813528 14.18916552 35.18603094 10.22708321 35.15862846 C8.7726362 35.15173871 7.31813879 35.15165304 5.86369324 35.15884399 C3.87945027 35.16752437 1.89514371 35.14916193 -0.08901978 35.12939453 C-1.19973878 35.12658761 -2.31045778 35.12378069 -3.45483494 35.12088871 C-6.96198732 34.49847206 -8.11233375 33.35856853 -10.30690002 30.61473083 C-12.29715902 26.63421285 -11.62321962 21.67925581 -11.68190002 17.30223083 C-11.71928284 16.25615662 -11.75666565 15.2100824 -11.79518127 14.13230896 C-11.80678284 13.11975037 -11.8183844 12.10719177 -11.83033752 11.06394958 C-11.85015686 10.13928894 -11.8699762 9.2146283 -11.89039612 8.26194763 C-10.50117089 1.95928274 -5.976745 -0.01089151 0 0 Z " fill="#5F5346" transform="translate(267.30690002441406,336.38526916503906)"/>
<path d="M0 0 C65.01 0 130.02 0 197 0 C197 5.94 197 11.88 197 18 C131.99 18 66.98 18 0 18 C0 12.06 0 6.12 0 0 Z " fill="#CDB493" transform="translate(59,345)"/>
<path d="M0 0 C43.56 0 87.12 0 132 0 C134 10 134 10 134 25 C89.12 25 44.24 25 -2 25 C-2 14 -2 14 0 0 Z " fill="#FEFEFE" transform="translate(190,150)"/>
<path d="M0 0 C4.17405676 3.35175864 7.06896873 7.0686316 10.01171875 11.52734375 C5.8408515 20.71505603 -4.15833833 24.81144854 -12.98828125 28.52734375 C-28.4014312 33.75713417 -44.17786473 32.60612337 -59.05859375 26.20703125 C-65.545321 22.90042655 -70.78590647 18.58841946 -75.98828125 13.52734375 C-72.09531406 3.2326083 -63.14236061 -3.24977332 -53.36328125 -7.84765625 C-34.99194474 -15.18320758 -15.71848644 -11.64217954 0 0 Z " fill="#CA4B4C" transform="translate(288.98828125,220.47265625)"/>
<path d="M0 0 C7.09921337 4.04038832 12.40946827 10.09388989 14.6875 18 C15.80693025 26.15045844 14.18634348 32.15878347 9.6875 39 C5.27447301 44.3420853 -0.84709637 48.52423401 -7.87890625 49.2734375 C-16.32389141 49.55970818 -22.78480675 48.11608477 -29.16015625 42.3203125 C-30.6984046 40.61954651 -32.01884112 38.89138905 -33.3125 37 C-33.93125 36.13375 -34.55 35.2675 -35.1875 34.375 C-37.55786239 27.26391283 -37.48938066 18.66367887 -34.33984375 11.76953125 C-27.10942537 -0.68438329 -13.51590963 -6.02985953 0 0 Z " fill="#2D3139" transform="translate(335.3125,66)"/>
<path d="M0 0 C6.13727406 3.6679802 10.42505319 8.10298449 12.5859375 15.08984375 C14.18342127 23.212898 13.3285387 31.07807939 9 38.1953125 C4.12562723 43.80982865 -1.52205672 47.73603627 -9.046875 48.5078125 C-17.76295384 48.8291426 -23.17924257 47.49505755 -29.75 41.8203125 C-35.61699327 34.97548702 -38.57757166 29.12976802 -38.37109375 20.10546875 C-37.36771457 12.23686357 -33.14504305 6.4319247 -27.02734375 1.6015625 C-18.55542892 -4.27491022 -9.12341932 -4.65946058 0 0 Z " fill="#2D313A" transform="translate(200,66.8046875)"/>
<path d="M0 0 C11.55 0 23.1 0 35 0 C35 5.94 35 11.88 35 18 C23.45 18 11.9 18 0 18 C0 12.06 0 6.12 0 0 Z " fill="#CDB593" transform="translate(418,345)"/>
<path d="M0 0 C5.94 0 11.88 0 18 0 C18.10804105 4.37566252 18.18735287 8.74865081 18.25 13.125 C18.28351563 14.3625 18.31703125 15.6 18.3515625 16.875 C18.47487237 28.34281801 18.47487237 28.34281801 14 33 C11.14675563 34.42662219 9.16545451 34.31033868 6 34 C2.66238955 31.84909549 1.26529067 30.79587201 0 27 C-0.08315752 24.93501108 -0.10735878 22.8674211 -0.09765625 20.80078125 C-0.09443359 19.59228516 -0.09121094 18.38378906 -0.08789062 17.13867188 C-0.07951172 15.87603516 -0.07113281 14.61339844 -0.0625 13.3125 C-0.05573242 11.40114258 -0.05573242 11.40114258 -0.04882812 9.45117188 C-0.03702883 6.3007613 -0.01909318 3.15037481 0 0 Z " fill="#A76C44" transform="translate(247,431)"/>
<path d="M0 0 C5.61 0 11.22 0 17 0 C17.10786127 4.56313093 17.18726757 9.12371597 17.25 13.6875 C17.30027344 15.62786133 17.30027344 15.62786133 17.3515625 17.60742188 C17.36445313 18.85458984 17.37734375 20.10175781 17.390625 21.38671875 C17.41157227 22.53358154 17.43251953 23.68044434 17.45410156 24.86206055 C16.90384899 28.66442415 15.65728809 30.28125209 13 33 C10.11138291 34.44430855 8.20352299 34.37688506 5 34 C1.70523974 31.41175498 0.16720071 29.95135403 -0.56762695 25.77026367 C-0.54144287 24.58150635 -0.51525879 23.39274902 -0.48828125 22.16796875 C-0.47216797 20.87568359 -0.45605469 19.58339844 -0.43945312 18.25195312 C-0.39768274 16.89711843 -0.35535809 15.54230072 -0.3125 14.1875 C-0.28740069 12.81319134 -0.26459036 11.43883884 -0.24414062 10.06445312 C-0.18527592 6.70916483 -0.09559843 3.35444266 0 0 Z " fill="#A56B43" transform="translate(282,431)"/>
<path d="M0 0 C5.61 0 11.22 0 17 0 C17.06898284 4.05721276 17.12867917 8.11292591 17.16479492 12.17041016 C17.17985422 13.54971218 17.20030613 14.92896653 17.22631836 16.30810547 C17.26282415 18.29373403 17.27814853 20.27971618 17.29296875 22.265625 C17.3086792 23.45961914 17.32438965 24.65361328 17.34057617 25.88378906 C16.97141242 29.2615712 16.35528238 30.60406589 14 33 C11.35160857 34.06378903 8.83609601 34.24878035 6 34 C3.14006522 32.23535939 1.50217151 31.00434303 0 28 C-0.08543895 25.89471067 -0.10714725 23.78668843 -0.09765625 21.6796875 C-0.09443359 20.42285156 -0.09121094 19.16601562 -0.08789062 17.87109375 C-0.07951172 16.55238281 -0.07113281 15.23367188 -0.0625 13.875 C-0.05748489 12.53515789 -0.05292201 11.195314 -0.04882812 9.85546875 C-0.03701095 6.57029343 -0.01907501 3.28514119 0 0 Z " fill="#A56A43" transform="translate(213,431)"/>
<path d="M0 0 C1.22332031 -0.03738281 2.44664063 -0.07476562 3.70703125 -0.11328125 C7.7612799 0.38269305 9.32793139 1.46350281 12.1875 4.3125 C13.75685594 7.45121188 13.53951103 9.85105822 13.1875 13.3125 C10.42954809 16.98621973 8.95640325 18.18566248 4.375 18.94140625 C2.97899675 18.9453572 1.58269634 18.92262202 0.1875 18.875 C-0.51117188 18.88595703 -1.20984375 18.89691406 -1.9296875 18.90820312 C-5.48857404 18.85784152 -7.70285783 18.37736078 -10.77734375 16.55859375 C-13.04489956 14.05601297 -13.47160967 13.13132639 -13.375 9.8125 C-13.19669652 6.52739347 -12.96813386 5.52001181 -10.9375 2.8125 C-7.16568753 0.15004414 -4.62071882 0.09193053 0 0 Z " fill="#3E5B6B" transform="translate(12.8125,489.6875)"/>
<path d="M0 0 C5.61 0 11.22 0 17 0 C17.13523325 3.23057217 17.23421546 6.4554669 17.3125 9.6875 C17.35439453 10.59951172 17.39628906 11.51152344 17.43945312 12.45117188 C17.52338936 17.06766458 17.52502384 19.28035526 14.734375 23.10546875 C10.59794609 25.97142307 8.94144025 25.78435559 4 25 C1.42677847 22.81433898 0.15166934 21.10133825 -0.31469727 17.71484375 C-0.39382927 15.02791776 -0.34871438 12.37367014 -0.25 9.6875 C-0.23195313 8.75615234 -0.21390625 7.82480469 -0.1953125 6.86523438 C-0.14836161 4.57637851 -0.07662323 2.28805473 0 0 Z " fill="#A56A43" transform="translate(350,431)"/>
<path d="M0 0 C5.61 0 11.22 0 17 0 C17.1081697 3.23006734 17.18739234 6.45649754 17.25 9.6875 C17.30027344 11.05551758 17.30027344 11.05551758 17.3515625 12.45117188 C17.41402349 16.74536473 17.39212118 19.31184031 15.23046875 23.10546875 C12.57335194 25.36238933 10.54938364 25.59543969 7.09765625 25.6640625 C3.56634764 24.54614357 2.17926016 22.98708935 0 20 C-0.60086048 16.53904361 -0.47323995 13.18668498 -0.3125 9.6875 C-0.28994141 8.75615234 -0.26738281 7.82480469 -0.24414062 6.86523438 C-0.18544561 4.57612873 -0.09577065 2.28785439 0 0 Z " fill="#A56A43" transform="translate(145,431)"/>
<path d="M0 0 C5.61 0 11.22 0 17 0 C17.08115993 3.06303578 17.14057409 6.12390815 17.1875 9.1875 C17.21263672 10.05181641 17.23777344 10.91613281 17.26367188 11.80664062 C17.3197835 16.68835222 17.25490183 20.067322 14 24 C10.86599115 25.56700442 7.36844905 25.85164561 4 25 C1.40361228 22.82428137 0.15238029 21.109556 -0.31396484 17.71386719 C-0.3938831 15.0271886 -0.34870606 12.37344373 -0.25 9.6875 C-0.23195313 8.75615234 -0.21390625 7.82480469 -0.1953125 6.86523438 C-0.14836161 4.57637851 -0.07662323 2.28805473 0 0 Z " fill="#A56A43" transform="translate(111,431)"/>
<path d="M0 0 C5.61 0 11.22 0 17 0 C17.13523325 3.23057217 17.23421546 6.4554669 17.3125 9.6875 C17.35439453 10.59951172 17.39628906 11.51152344 17.43945312 12.45117188 C17.52382395 17.09156717 17.53090509 19.28038885 14.703125 23.11328125 C11.18646706 25.56782718 9.20657593 25.61186559 5 25 C1.8149643 23.23984869 1.16703028 22.50109084 0 19 C-0.0806622 17.51876453 -0.10761193 16.03417796 -0.09765625 14.55078125 C-0.09443359 13.70322266 -0.09121094 12.85566406 -0.08789062 11.98242188 C-0.07951172 11.10134766 -0.07113281 10.22027344 -0.0625 9.3125 C-0.05798828 8.41982422 -0.05347656 7.52714844 -0.04882812 6.60742188 C-0.03705004 4.40491927 -0.01911481 2.20245115 0 0 Z " fill="#A56A43" transform="translate(384,431)"/>
<path d="M0 0 C5.61 0 11.22 0 17 0 C17.08115993 3.06303578 17.14057409 6.12390815 17.1875 9.1875 C17.21263672 10.05181641 17.23777344 10.91613281 17.26367188 11.80664062 C17.3197835 16.68835222 17.25490183 20.067322 14 24 C10.86599115 25.56700442 7.36844905 25.85164561 4 25 C1.40361228 22.82428137 0.15238029 21.109556 -0.31396484 17.71386719 C-0.3938831 15.0271886 -0.34870606 12.37344373 -0.25 9.6875 C-0.23195313 8.75615234 -0.21390625 7.82480469 -0.1953125 6.86523438 C-0.14836161 4.57637851 -0.07662323 2.28805473 0 0 Z " fill="#A56A43" transform="translate(316,431)"/>
<path d="M0 0 C5.61 0 11.22 0 17 0 C17.1081697 3.23006734 17.18739234 6.45649754 17.25 9.6875 C17.30027344 11.05551758 17.30027344 11.05551758 17.3515625 12.45117188 C17.41400537 16.74411945 17.38956414 19.31395341 15.234375 23.109375 C12.2258717 25.65503164 10.68961014 25.66633079 6.90234375 25.43359375 C4.01975787 24.77657726 2.71663768 23.33462725 1 21 C-0.17426264 18.65147472 -0.11508173 17.26225935 -0.09765625 14.6484375 C-0.09443359 13.79765625 -0.09121094 12.946875 -0.08789062 12.0703125 C-0.07951172 11.18085938 -0.07113281 10.29140625 -0.0625 9.375 C-0.05798828 8.4778125 -0.05347656 7.580625 -0.04882812 6.65625 C-0.03702611 4.43747169 -0.01909039 2.21872757 0 0 Z " fill="#A56A43" transform="translate(179,431)"/>
<path d="M0 0 C4.4297642 0.79102932 5.89210172 1.98974785 8.5 5.625 C9.2446324 9.59637281 8.87266878 11.06599683 6.625 14.4375 C4.14122682 16.99432533 3.18979545 17.51769849 -0.3125 18.0625 C-3.5 17.625 -3.5 17.625 -6.375 15 C-8.69483097 11.31556258 -9.40140975 9.86162583 -8.5 5.625 C-5.89210172 1.98974785 -4.4297642 0.79102932 0 0 Z " fill="#E6513F" transform="translate(102.5,379.375)"/>
<path d="M0 0 C2.5 1.5625 2.5 1.5625 4 4 C4.59172793 8.06812955 4.37276489 10.27000208 2.5 13.9375 C-0.36052612 16.29743405 -2.32399572 16.73357225 -6.02734375 16.484375 C-9.51060972 15.62907801 -11.00028288 13.87459336 -13 11 C-13.625 8 -13.625 8 -13 5 C-9.2217441 -0.43124286 -6.19885712 -0.88555102 0 0 Z " fill="#F8F8F8" transform="translate(320,73)"/>
<path d="M0 0 C3.0625 2.0625 3.0625 2.0625 5 5 C5.06886551 8.92533388 4.55357459 11.13642364 2.4375 14.4375 C-1.04320935 16.66872394 -3.97775799 16.79126072 -8 16 C-10.5 14.5 -10.5 14.5 -12 12 C-12.791013 7.97901723 -12.62153384 5.03588973 -10.5 1.5 C-7.00997997 -0.59401202 -3.90160249 -0.87901716 0 0 Z " fill="#F9F9F9" transform="translate(183,73)"/>
</svg>
