<?xml version="1.0" encoding="UTF-8"?>
<svg version="1.1" xmlns="http://www.w3.org/2000/svg" width="512" height="512">
<path d="M0 0 C3.45104219 1.39213209 5.81600129 4.21436033 8.39497024 6.81638318 C9.03612767 7.45144951 9.6772851 8.08651584 10.33787155 8.74082661 C12.49084228 10.87710822 14.63289924 13.02400868 16.77514297 15.17104322 C18.31367415 16.70223768 19.85282812 18.23280659 21.39255935 19.76279432 C25.57707613 23.92504846 29.75185319 28.09694375 33.9243055 32.27128798 C37.40369387 35.7507958 40.88740803 39.22595676 44.37102509 42.70123005 C52.58506887 50.89602386 60.79089301 59.09898644 68.99193984 67.3067854 C77.46523058 75.78672353 85.95314217 84.25173945 94.44827044 92.70980227 C101.73197288 99.96287035 109.0060379 107.22550575 116.27248859 114.49585724 C120.61676915 118.8422112 124.9647903 123.18465547 129.3222869 127.51776296 C133.41682433 131.59013856 137.49926097 135.67425994 141.57251579 139.76791936 C143.07307843 141.27191042 144.57795965 142.77160632 146.08733398 144.26675397 C148.13982481 146.30122132 150.17646264 148.3503154 152.2096675 150.40402967 C152.8168398 150.99868412 153.4240121 151.59333856 154.04958355 152.20601285 C155.68277103 153.87497407 155.68277103 153.87497407 157.98485976 156.80068189 C157.50826097 161.40433471 154.26813641 164.31403341 151.31615859 167.63515455 C150.41888423 168.65660094 150.41888423 168.65660094 149.50348312 169.69868261 C141.4627185 178.78815206 133.17907346 187.65090246 124.79735976 196.42568189 C123.98630782 197.27678289 123.17525588 198.12788388 122.33962661 199.00477582 C97.5247006 224.90512636 74.19173877 242.50095828 39.48485976 252.42568189 C38.61949725 252.67350667 37.75413474 252.92133146 36.86254913 253.17666608 C9.88778455 260.80068189 9.88778455 260.80068189 2.98485976 260.80068189 C2.63888244 262.57057729 2.63888244 262.57057729 2.28591567 264.37622815 C0.74836987 271.26693268 -1.58616623 277.90825949 -3.83203477 284.59194165 C-4.32532134 286.07095387 -4.81821008 287.55009883 -5.3107335 289.02936536 C-6.64125744 293.02179379 -7.97730171 297.01235478 -9.31438273 301.00259119 C-10.71363199 305.18151646 -12.10774445 309.3621547 -13.50241441 313.54260999 C-16.14076715 321.44836411 -18.78370241 329.3525782 -21.42830807 337.25624251 C-24.44033087 346.258716 -27.44720975 355.26290474 -30.45366853 364.2672376 C-36.63512441 382.78029324 -42.8230018 401.29119673 -49.01514024 419.80068189 C-50.5250971 419.92776422 -50.5250971 419.92776422 -52.06555814 420.05741388 C-55.84595392 420.37599789 -59.62617412 420.69662637 -63.40634793 421.01783258 C-65.03390455 421.15584957 -66.66150658 421.29333232 -68.28915662 421.43024331 C-79.67679599 422.38859568 -91.01701023 423.45705143 -102.32764024 425.11318189 C-103.05354356 425.21672986 -103.77944688 425.32027784 -104.52734727 425.42696363 C-179.02658615 436.09171772 -247.98298572 461.58093854 -311.92969102 500.91103345 C-316.09796074 503.46384304 -320.28369616 505.97904116 -324.51514024 508.42568189 C-325.13719346 508.79789869 -325.75924668 509.17011548 -326.40015 509.55361158 C-330.43301884 511.85152284 -330.43301884 511.85152284 -332.91040391 511.63515455 C-337.719471 509.72848579 -341.22685066 505.14353438 -344.82764024 501.55068189 C-346.17245469 500.26097486 -346.17245469 500.26097486 -347.54443711 498.94521314 C-348.38683945 498.10861158 -349.2292418 497.27201001 -350.09717149 496.41005689 C-350.87294541 495.64660962 -351.64871934 494.88316236 -352.44800156 494.09658033 C-354.01514024 491.80068189 -354.01514024 491.80068189 -353.97217149 489.39345533 C-352.8161449 486.26156699 -351.33450417 483.57459145 -349.62060899 480.70693189 C-349.1055404 479.83760022 -349.1055404 479.83760022 -348.58006638 478.9507063 C-347.84330808 477.70889732 -347.10332403 476.46899747 -346.36041611 475.23085767 C-345.1888287 473.27765611 -344.02625129 471.31935663 -342.86621445 469.35927564 C-341.30875881 466.72780481 -339.74903929 464.09770215 -338.18750352 461.46865064 C-320.16907538 431.08914259 -304.86092184 400.12314102 -293.01514024 366.80068189 C-292.67386094 365.84935376 -292.33258164 364.89802564 -291.98096055 363.91786939 C-283.32219804 339.59047541 -277.35762975 314.61981221 -272.33935899 289.32411939 C-271.03764866 282.78295085 -269.55112243 276.29039021 -268.01514024 269.80068189 C-268.93480576 269.76321851 -268.93480576 269.76321851 -269.87305039 269.7249983 C-292.26350088 268.58935861 -313.54202127 254.24481154 -328.61279649 238.53896314 C-349.69021071 214.51413815 -355.61610986 187.24766071 -354.01514024 155.80068189 C-351.43657408 130.3162961 -336.71396637 107.60252566 -318.01514024 90.80068189 C-297.01356318 73.87894183 -269.99733003 65.58520664 -243.11279649 68.21083814 C-218.52236213 71.18107189 -198.58523158 80.43852062 -181.01514024 97.80068189 C-180.28810899 98.45552564 -179.56107774 99.11036939 -178.81201524 99.78505689 C-161.41764519 115.8097915 -152.86061107 140.74606868 -151.01514024 163.80068189 C-151.00493084 165.80065583 -151.0034384 167.80071612 -151.01514024 169.80068189 C-150.45803864 169.61276075 -149.90093705 169.4248396 -149.32695359 169.23122388 C-143.53773554 167.2793918 -137.74642978 165.33385507 -131.95386094 163.39199048 C-129.79120708 162.66607153 -127.62909405 161.9385393 -125.46753281 161.2093733 C-122.36371105 160.16266121 -119.25800209 159.12173192 -116.15185899 158.08193189 C-115.18302277 157.7538252 -114.21418656 157.42571851 -113.21599168 157.08766919 C-112.31528443 156.78735791 -111.41457719 156.48704664 -110.48657578 156.17763501 C-109.69381745 155.91116163 -108.90105912 155.64468824 -108.08427781 155.3701399 C-106.01514024 154.80068189 -106.01514024 154.80068189 -103.01514024 154.80068189 C-101.33964689 149.04276635 -99.87138095 143.30154985 -98.75342149 137.40810376 C-90.11206319 92.80618626 -70.9542306 64.37492244 -38.32764024 32.92568189 C-37.45842942 32.08514264 -36.5892186 31.2446034 -35.69366807 30.37859327 C-29.85643079 24.74861323 -23.96128508 19.18562032 -18.00342149 13.68349439 C-17.21909556 12.95766786 -16.43476964 12.23184133 -15.62667626 11.48402005 C-13.42887677 9.46453462 -11.21389467 7.4665219 -8.98901719 5.47695142 C-8.33819169 4.88029927 -7.68736619 4.28364713 -7.0168187 3.66891462 C-2.55174766 -0.25239411 -2.55174766 -0.25239411 0 0 Z " fill="#CBE1FA" transform="translate(354.01514023542404,0.19931811094284058)"/>
<path d="M0 0 C3.45104219 1.39213209 5.81600129 4.21436033 8.39497024 6.81638318 C9.03612767 7.45144951 9.6772851 8.08651584 10.33787155 8.74082661 C12.49084228 10.87710822 14.63289924 13.02400868 16.77514297 15.17104322 C18.31367415 16.70223768 19.85282812 18.23280659 21.39255935 19.76279432 C25.57707613 23.92504846 29.75185319 28.09694375 33.9243055 32.27128798 C37.40369387 35.7507958 40.88740803 39.22595676 44.37102509 42.70123005 C52.58506887 50.89602386 60.79089301 59.09898644 68.99193984 67.3067854 C77.46523058 75.78672353 85.95314217 84.25173945 94.44827044 92.70980227 C101.73197288 99.96287035 109.0060379 107.22550575 116.27248859 114.49585724 C120.61676915 118.8422112 124.9647903 123.18465547 129.3222869 127.51776296 C133.41682433 131.59013856 137.49926097 135.67425994 141.57251579 139.76791936 C143.07307843 141.27191042 144.57795965 142.77160632 146.08733398 144.26675397 C148.13982481 146.30122132 150.17646264 148.3503154 152.2096675 150.40402967 C153.12042595 151.29601134 153.12042595 151.29601134 154.04958355 152.20601285 C155.68277103 153.87497407 155.68277103 153.87497407 157.98485976 156.80068189 C157.50826114 161.40433311 154.26813847 164.31403643 151.31615859 167.63515455 C150.41887573 168.65659669 150.41887573 168.65659669 149.50346595 169.69867402 C141.46266815 178.78808993 133.18013096 187.65191498 124.79735976 196.42568189 C123.58034 197.70211246 123.58034 197.70211246 122.33873397 199.0043295 C97.55760077 224.85201238 74.23263424 242.49931954 39.60985976 252.48818189 C38.74856586 252.73804097 37.88727195 252.98790006 36.99987823 253.24533063 C6.102528 262.10429643 6.102528 262.10429643 0.98485976 259.80068189 C-1.38521165 257.79810315 -1.38521165 257.79810315 -4.03979844 255.132469 C-4.52657059 254.64774122 -5.01334275 254.16301343 -5.51486558 253.66359693 C-7.12256975 252.0589005 -8.71926781 250.44371169 -10.31592149 248.82802564 C-11.43628296 247.70460381 -12.55723855 246.5817742 -13.67876023 245.45951062 C-16.03108365 243.10258265 -18.37841291 240.74083134 -20.72192734 238.37514478 C-23.70743364 235.36151913 -26.70139374 232.35648258 -29.69874638 229.35464364 C-32.5742899 226.4739058 -35.44515194 223.58851948 -38.31592149 220.70302564 C-38.85592601 220.1611404 -39.39593053 219.61925515 -39.95229882 219.06094915 C-45.20333069 213.78630566 -50.35717361 208.48782566 -55.20381516 202.83414441 C-59.19283301 198.35592103 -63.51045164 194.18463376 -67.76123399 189.95693189 C-68.7827807 188.9372548 -69.8041035 187.91735333 -70.82521409 186.89723951 C-73.4878046 184.23843128 -76.15338622 181.58264231 -78.81964463 178.92751294 C-81.55006695 176.20739796 -84.27759097 173.48438004 -87.00537461 170.76161939 C-92.33916223 165.43849326 -97.67611939 160.11855971 -103.01514024 154.80068189 C-102.73706528 153.8450636 -102.73706528 153.8450636 -102.45337266 152.8701399 C-101.00382844 147.74435858 -99.74636952 142.6425384 -98.75342149 137.40810376 C-90.11206319 92.80618626 -70.9542306 64.37492244 -38.32764024 32.92568189 C-37.45842942 32.08514264 -36.5892186 31.2446034 -35.69366807 30.37859327 C-29.85643079 24.74861323 -23.96128508 19.18562032 -18.00342149 13.68349439 C-17.21909556 12.95766786 -16.43476964 12.23184133 -15.62667626 11.48402005 C-13.42887677 9.46453462 -11.21389467 7.4665219 -8.98901719 5.47695142 C-8.33819169 4.88029927 -7.68736619 4.28364713 -7.0168187 3.66891462 C-2.55174766 -0.25239411 -2.55174766 -0.25239411 0 0 Z " fill="#D53136" transform="translate(354.01514023542404,0.19931811094284058)"/>
<path d="M0 0 C2.99623515 2.65558627 5.84002795 5.44794459 8.6875 8.26171875 C9.41453125 8.9165625 10.1415625 9.57140625 10.890625 10.24609375 C27.97512011 25.98535303 37.40145982 51.46373377 38.6875 74.26171875 C38.98269207 100.58405836 31.09706032 126.28653902 13.6875 146.26171875 C13.20925781 146.87144531 12.73101562 147.48117188 12.23828125 148.109375 C-2.34834982 166.45760147 -27.39398858 178.21243516 -50.3125 181.26171875 C-54.56701405 181.54667946 -58.79937524 181.59598226 -63.0625 181.57421875 C-64.20557617 181.5693042 -65.34865234 181.56438965 -66.52636719 181.55932617 C-93.5688643 181.18533419 -117.10789229 169.96452124 -136.5 151.51171875 C-157.61732499 129.50452269 -164.91178186 103.39564976 -164.5859375 73.41796875 C-163.86627331 46.25598964 -150.46500823 22.61335571 -131.27734375 3.92578125 C-95.92284799 -27.84202653 -36.91106735 -31.39422823 0 0 Z " fill="#EE4A50" transform="translate(164.3125,89.73828125)"/>
<path d="M0 0 C2.50619507 1.98480225 2.50619507 1.98480225 5.17333984 4.62402344 C5.6633548 5.10381653 6.15336975 5.58360962 6.65823364 6.07794189 C8.26957959 7.66156155 9.86570895 9.25953222 11.4609375 10.859375 C12.57676017 11.96742237 13.69302852 13.0750211 14.8097229 14.18218994 C17.14482733 16.50238585 19.47204752 18.83016254 21.79443359 21.16308594 C24.7738153 24.15407959 27.77535676 27.12167713 30.78362083 30.08358383 C33.09315971 32.36369125 35.38872957 34.65746798 37.68046951 36.95545197 C38.78182219 38.05577681 39.88792017 39.15137283 40.99876022 40.24211884 C42.54824292 41.76697644 44.07749191 43.30963377 45.60302734 44.85839844 C46.47841156 45.7325238 47.35379578 46.60664917 48.25570679 47.50726318 C50 50 50 50 49.81737614 52.41653347 C48.88655653 55.35855881 47.83890049 56.6593736 45.66627502 58.82820129 C44.95258759 59.55027771 44.23890015 60.27235413 43.50358582 61.01631165 C42.71551041 61.79314804 41.927435 62.56998444 41.11547852 63.37036133 C40.28949158 64.20014496 39.46350464 65.02992859 38.61248779 65.88485718 C35.87763959 68.62711968 33.12864776 71.35470915 30.37890625 74.08203125 C28.47766997 75.97887145 26.57913666 77.87840921 24.68040466 79.77775574 C20.69989213 83.75639647 16.71171611 87.72722101 12.71850586 91.69311523 C8.09761947 96.28250893 3.48731193 100.88231451 -1.11712021 105.48821241 C-5.54445626 109.9167676 -9.97747215 114.33958845 -14.41371346 118.75922203 C-16.30286451 120.64198934 -18.19096342 122.52574458 -20.07745171 124.41117287 C-22.70866354 127.03807109 -25.3463408 129.65829004 -27.98608398 132.27661133 C-28.77213516 133.06356888 -29.55818634 133.85052643 -30.36805725 134.66133118 C-31.08456451 135.36930847 -31.80107178 136.07728577 -32.53929138 136.80671692 C-33.16296821 137.42704206 -33.78664503 138.04736719 -34.42922115 138.68649006 C-36 140 -36 140 -38 140 C-38.5724089 134.80417137 -39.14199667 129.6080441 -39.70898438 124.41162109 C-39.90222104 122.64428372 -40.09622528 120.87703009 -40.29101562 119.10986328 C-40.57103588 116.5682509 -40.84828497 114.02634909 -41.125 111.484375 C-41.21249512 110.69569031 -41.29999023 109.90700562 -41.39013672 109.09442139 C-41.75734544 105.69912604 -42 102.42005182 -42 99 C-43.74023438 99.2165625 -43.74023438 99.2165625 -45.515625 99.4375 C-54.39285697 100.50505137 -63.04368439 101.24862341 -72 101 C-71.87447754 101.76513916 -71.74895508 102.53027832 -71.61962891 103.31860352 C-70.26095845 111.83622515 -69.24411026 120.35725333 -68.375 128.9375 C-68.17390625 130.84885742 -68.17390625 130.84885742 -67.96875 132.79882812 C-67.24426026 139.85521033 -67.24426026 139.85521033 -67 143 C-66.85182359 143.89680607 -66.70364717 144.79361214 -66.55098057 145.71759415 C-67.24494958 150.79062171 -70.36790761 153.17390843 -73.94065857 156.65545654 C-75.06053534 157.78196479 -75.06053534 157.78196479 -76.20303589 158.93123078 C-78.71563577 161.45138929 -81.24911078 163.94946171 -83.78295898 166.44824219 C-85.58556396 168.24751869 -87.3868432 170.04812421 -89.18688965 171.84996033 C-93.06923967 175.73028558 -96.96056762 179.60124281 -100.86028862 183.4641037 C-106.50017112 189.05079753 -112.12293658 194.65446442 -117.74157358 200.26251534 C-126.85992647 209.36285645 -135.99123215 218.45008316 -145.13110352 227.52880859 C-154.00596331 236.34436445 -162.87594421 245.16477486 -171.73852539 253.99267578 C-172.28458018 254.53658882 -172.83063497 255.08050187 -173.39323687 255.64089713 C-179.35129921 261.57581106 -185.30833087 267.51175916 -191.2651453 273.44792557 C-192.84395923 275.02122643 -194.42278236 276.59451806 -196.00161653 278.16779861 C-197.04215113 279.20468197 -198.08267028 280.24158083 -199.12317372 281.27849546 C-205.75153424 287.88380963 -212.38430177 294.48465592 -219.02189815 301.08068895 C-222.82123391 304.85631956 -226.61836643 308.63416326 -230.41542816 312.41208076 C-232.18308384 314.16983841 -233.95162545 315.92670562 -235.72109413 317.68263817 C-238.12708817 320.07034504 -240.53007156 322.46104165 -242.93235779 324.85247803 C-243.99605383 325.90566573 -243.99605383 325.90566573 -245.08123869 326.98012996 C-245.72069113 327.61787325 -246.36014356 328.25561655 -247.01897335 328.91268539 C-247.57450419 329.46458408 -248.13003504 330.01648277 -248.70240015 330.58510566 C-250.1087978 331.98847262 -250.1087978 331.98847262 -251 334 C-251.66 333.67 -252.32 333.34 -253 333 C-248.17593873 324.27770739 -243.22516392 315.65177049 -238.0625 307.125 C-232.91336099 298.59984372 -227.96332454 289.9882015 -223.21337891 281.234375 C-222.40465906 279.7451589 -221.59182934 278.25816732 -220.77490234 276.7734375 C-209.20247718 255.71098155 -200.04261736 233.62406968 -192 211 C-191.6587207 210.04867187 -191.31744141 209.09734375 -190.96582031 208.1171875 C-182.30705781 183.78979352 -176.34248952 158.81913033 -171.32421875 133.5234375 C-170.02250842 126.98226896 -168.53598219 120.48970832 -167 114 C-166.2251123 114.01571045 -165.45022461 114.0314209 -164.65185547 114.04760742 C-144.56638864 114.76162258 -144.56638864 114.76162258 -125 111 C-124.37802734 110.80132324 -123.75605469 110.60264648 -123.11523438 110.39794922 C-109.338474 105.92083746 -97.15151026 99.31615753 -86 90 C-84.515 88.88625 -84.515 88.88625 -83 87.75 C-61.5886188 69.60074059 -53.33129017 41.77916205 -51 15 C-42.52861572 11.41610739 -33.85184586 8.44911114 -25.1394043 5.51635742 C-23.49404329 4.96014906 -21.85049525 4.39855076 -20.20874023 3.83178711 C-17.81354263 3.00502925 -15.41348643 2.19416089 -13.01171875 1.38671875 C-11.91630013 1.00407112 -11.91630013 1.00407112 -10.79875183 0.61369324 C-6.73381229 -0.72976466 -4.07893939 -1.33295298 0 0 Z " fill="#F4FAFE" transform="translate(253,156)"/>
<path d="M0 0 C28.94696531 1.92979769 51.37134772 9.61547379 72 30 C72.72703125 30.65484375 73.4540625 31.3096875 74.203125 31.984375 C91.28762011 47.72363428 100.71395982 73.20201502 102 96 C102.29519207 122.32233961 94.40956032 148.02482027 77 168 C76.52175781 168.60972656 76.04351562 169.21945313 75.55078125 169.84765625 C60.94906746 188.21485497 35.90827212 199.91124421 13 203 C8.71 203 4.42 203 0 203 C0 174.62 0 146.24 0 117 C14.52 117 29.04 117 44 117 C44 106.77 44 96.54 44 86 C29.48 86 14.96 86 0 86 C0 57.62 0 29.24 0 0 Z " fill="#D53136" transform="translate(101,68)"/>
<path d="M0 0 C4.75292036 3.96787427 9.24644341 8.10391874 13.61228943 12.49203491 C14.23897036 13.11786142 14.86565129 13.74368793 15.51132256 14.38847888 C17.59252771 16.46804823 19.6701589 18.55115045 21.74780273 20.63427734 C23.24613824 22.13289516 24.74469445 23.63129234 26.24345398 25.12948608 C30.29887104 29.18461687 34.35120291 33.24281798 38.40297961 37.30158567 C42.64259683 41.54746476 46.88505631 45.79050195 51.12721252 50.03384399 C59.154245 58.06398143 67.17872547 66.09666404 75.20228773 74.13026869 C84.33935496 83.27852298 93.47927036 92.42392944 102.61942375 101.56910014 C121.41611558 120.37623746 140.20923549 139.18694065 159 158 C156.36338332 160.63661668 153.41263154 161.38986009 149.95166016 162.5378418 C149.22627548 162.78357941 148.50089081 163.02931702 147.75352478 163.28250122 C145.35078142 164.0943976 142.94513477 164.89724581 140.5390625 165.69921875 C138.86991027 166.25903949 137.20083369 166.81908584 135.53182983 167.37934875 C132.03107113 168.55275212 128.52874276 169.72132668 125.02539062 170.88696289 C120.53347569 172.38226843 116.0467707 173.8925843 111.56125832 175.40697002 C108.11502676 176.56802865 104.66564192 177.71947733 101.21528244 178.86820412 C99.55954949 179.421074 97.90493835 179.97731517 96.25148392 180.53696251 C93.9398991 181.31811829 91.62427014 182.08585311 89.30712891 182.8503418 C88.62334671 183.08456345 87.93956451 183.3187851 87.23506165 183.56010437 C81.11174996 185.55159298 81.11174996 185.55159298 78 184 C75.62992859 181.99742126 75.62992859 181.99742126 72.9753418 179.33178711 C72.48856964 178.84705933 72.00179749 178.36233154 71.50027466 177.86291504 C69.89257048 176.25821861 68.29587242 174.6430298 66.69921875 173.02734375 C65.57885728 171.90392192 64.45790169 170.78109231 63.33638 169.65882874 C60.98405658 167.30190076 58.63672733 164.94014945 56.29321289 162.57446289 C53.30770659 159.56083724 50.3137465 156.55580069 47.31639385 153.55396175 C44.44085034 150.67322391 41.56998829 147.78783759 38.69921875 144.90234375 C38.15921423 144.36045851 37.61920971 143.81857327 37.06284142 143.26026726 C31.81180954 137.98562377 26.65796662 132.68714377 21.81132507 127.03346252 C17.82230723 122.55523914 13.5046886 118.38395187 9.25390625 114.15625 C8.23235953 113.13657291 7.21103674 112.11667144 6.18992615 111.09655762 C3.52733563 108.43774939 0.86175401 105.78196042 -1.80450439 103.12683105 C-4.53492671 100.40671607 -7.26245074 97.68369815 -9.99023438 94.9609375 C-15.324022 89.63781137 -20.66097916 84.31787782 -26 79 C-23.70499418 70.05331625 -20.86313841 61.31115696 -17.9296875 52.55859375 C-17.44290579 51.09944357 -16.95634774 49.64021876 -16.47000122 48.18092346 C-15.45826037 45.14725306 -14.44452927 42.11425809 -13.42919922 39.08178711 C-12.12700992 35.19233979 -10.8288539 31.30156102 -9.53202629 27.41032314 C-8.53125783 24.40828911 -7.52892965 21.40677783 -6.52606583 18.40544319 C-6.04646035 16.96980841 -5.5672179 15.5340523 -5.08834457 14.09817314 C-4.42222236 12.10196791 -3.7541319 10.10643273 -3.08544922 8.11108398 C-2.70589081 6.97622055 -2.3263324 5.84135712 -1.93527222 4.67210388 C-1 2 -1 2 0 0 Z " fill="#1E3F6B" transform="translate(277,76)"/>
<path d="M0 0 C2.34424324 0.97813918 3.63527179 2.08770237 5.4257412 3.88694859 C6.07912971 4.53621311 6.73251823 5.18547764 7.40570641 5.85441685 C8.11133217 6.57082844 8.81695793 7.28724003 9.54396629 8.02536106 C10.29557533 8.77653202 11.04718437 9.52770298 11.82156944 10.3016367 C14.30684881 12.7890079 16.78133055 15.2868406 19.25588036 17.78488255 C20.97586811 19.51046482 22.69651893 21.23538641 24.41780663 22.95967197 C28.94867267 27.50199803 33.47045802 32.05326096 37.99043846 36.60641575 C42.60343747 41.25009047 47.22492976 45.88529512 51.84572411 50.52121067 C60.91267033 59.62034148 69.97034156 68.72864752 79.02150536 77.8434763 C74.85325197 82.81560249 70.51395039 87.49068075 65.91457176 92.06393528 C65.23094566 92.74770741 64.54731956 93.43147953 63.84297752 94.13597202 C61.60537235 96.37288612 59.3642569 98.60624719 57.12306786 100.83957005 C55.56200719 102.39876367 54.00116863 103.95817968 52.44054222 105.51780796 C48.34929906 109.60524849 44.25506078 113.6896759 40.16017723 117.77346897 C35.97541045 121.94797299 31.79350295 126.12533922 27.61134911 130.30246067 C19.41751985 138.48559241 11.22052143 146.66554168 3.02150536 154.8434763 C-2.05283915 150.5941888 -6.80859014 146.15242145 -11.47434425 141.46115208 C-12.18737709 140.74826527 -12.90040993 140.03537846 -13.63504982 139.30088902 C-15.96936021 136.96588716 -18.30011775 134.62737335 -20.63083839 132.2887888 C-22.25729283 130.66046745 -23.88396955 129.03236811 -25.51085854 127.40448093 C-29.77584961 123.13568613 -34.03782801 118.86389589 -38.29917336 114.59146214 C-42.65464786 110.22572726 -47.01298238 105.86284959 -51.37107277 101.4997263 C-59.90967211 92.95042748 -68.44508958 84.39795952 -76.97849464 75.8434763 C-72.84367014 70.9222349 -68.55502834 66.25838539 -64.02683449 61.69894505 C-63.35938713 61.0233202 -62.69193977 60.34769535 -62.00426674 59.65159702 C-59.8189906 57.44172574 -57.62977968 55.23582058 -55.43943214 53.0309763 C-54.68868038 52.27490086 -53.93792862 51.51882542 -53.1644268 50.7398386 C-49.20136678 46.75017937 -45.23472959 42.76411239 -41.26560402 38.78048801 C-37.98024898 35.48171969 -34.70234305 32.17580676 -31.43064308 28.86349583 C-27.47307184 24.85681573 -23.50356122 20.86235389 -19.52493095 16.87658787 C-18.01117137 15.35609344 -16.50168742 13.83133018 -14.99654198 12.30230808 C-12.89963145 10.17400329 -10.78773945 8.06177745 -8.67136574 5.9528513 C-8.04997215 5.31505238 -7.42857857 4.67725346 -6.78835487 4.0201273 C-2.50813868 -0.19842518 -2.50813868 -0.19842518 0 0 Z " fill="#EE4A50" transform="translate(353.97849464416504,0.1565237045288086)"/>
<path d="M0 0 C5.02347059 4.21616677 9.76852325 8.60615243 14.41992188 13.22705078 C15.47725021 14.27211288 15.47725021 14.27211288 16.55593872 15.33828735 C18.86321404 17.62095333 21.16651178 19.90756682 23.46875 22.1953125 C24.25792313 22.97916195 25.04709625 23.7630114 25.86018372 24.57061386 C30.02491057 28.70873466 34.18604077 32.85043762 38.34472656 36.99462891 C41.78899883 40.42548979 45.24042089 43.84890916 48.69824219 47.26611328 C52.87998421 51.39874889 57.04951621 55.54332739 61.21034241 59.69701767 C62.79782266 61.27776227 64.38957252 62.85423076 65.98558044 64.4263649 C68.20727535 66.61666919 70.4129183 68.82197425 72.61523438 71.03173828 C73.28108551 71.68118408 73.94693665 72.33062988 74.63296509 72.99975586 C75.2272934 73.60240265 75.8216217 74.20504944 76.43395996 74.82595825 C76.95674278 75.34543093 77.4795256 75.8649036 78.01815033 76.40011787 C79 78 79 78 78.78331661 80.05289078 C77.60580336 82.97986421 75.65204146 84.70577888 73.42016602 86.92041016 C72.70787842 87.63335487 72.70787842 87.63335487 71.98120117 88.36070251 C70.41244337 89.92737334 68.83333113 91.48315231 67.25390625 93.0390625 C66.16088097 94.12648977 65.06851823 95.21458338 63.97679138 96.30331421 C61.10222768 99.16643093 58.21877311 102.02042846 55.33337402 104.87261963 C52.39849902 107.77684505 49.47205691 110.68953986 46.54492188 113.6015625 C41.40126516 118.71650092 36.25028644 123.82396346 31.0940094 128.92617798 C29.72612239 130.28087782 28.36130939 131.63869061 27 133 C26.42903847 132.32245667 26.42903847 132.32245667 25.84654236 131.63122559 C20.60260069 125.51508514 14.96323374 119.83457755 9.25390625 114.15625 C8.23235953 113.13657291 7.21103674 112.11667144 6.18992615 111.09655762 C3.52733563 108.43774939 0.86175401 105.78196042 -1.80450439 103.12683105 C-4.53492671 100.40671607 -7.26245074 97.68369815 -9.99023438 94.9609375 C-15.324022 89.63781137 -20.66097916 84.31787782 -26 79 C-23.70499418 70.05331625 -20.86313841 61.31115696 -17.9296875 52.55859375 C-17.44290579 51.09944357 -16.95634774 49.64021876 -16.47000122 48.18092346 C-15.45826037 45.14725306 -14.44452927 42.11425809 -13.42919922 39.08178711 C-12.12700992 35.19233979 -10.8288539 31.30156102 -9.53202629 27.41032314 C-8.53125783 24.40828911 -7.52892965 21.40677783 -6.52606583 18.40544319 C-6.04646035 16.96980841 -5.5672179 15.5340523 -5.08834457 14.09817314 C-4.42222236 12.10196791 -3.7541319 10.10643273 -3.08544922 8.11108398 C-2.70589081 6.97622055 -2.3263324 5.84135712 -1.93527222 4.67210388 C-1 2 -1 2 0 0 Z " fill="#1E5F8A" transform="translate(277,76)"/>
<path d="M0 0 C2.99605586 0.61687077 6.00867261 0.90461595 9.05049086 1.2042402 C10.86833001 1.46393151 12.68487628 1.73290763 14.49970961 2.01283395 C15.45426039 2.15140817 16.40881117 2.28998239 17.39228773 2.43275583 C19.6587492 2.76304418 21.92347478 3.101941 24.18720961 3.45033395 C24.04629067 6.76306171 23.89855567 10.07545366 23.74970961 13.38783395 C23.7103932 14.31402536 23.67107679 15.24021677 23.63056898 16.19447458 C23.3664184 21.98546815 22.88956652 27.69572899 22.18720961 33.45033395 C13.95262136 33.06732985 5.79254602 32.61966096 -2.37529039 31.45033395 C-3.52727639 31.3076071 -4.67926239 31.16488025 -5.86615705 31.01782835 C-9.81279039 30.45033395 -9.81279039 30.45033395 -13.38522482 29.54845083 C-18.67149999 28.55429912 -23.1438485 27.96017716 -27.99339604 30.66783679 C-34.06688914 35.14475507 -39.19069541 40.68933722 -44.41215563 46.10389841 C-46.21218103 47.90708443 -48.01595564 49.70653441 -49.82316637 51.50251901 C-53.69630799 55.36841728 -57.54194458 59.25870562 -61.36475992 63.17432725 C-66.89303634 68.83680657 -72.46763627 74.45178155 -78.05423702 80.05665483 C-87.12028133 89.15497034 -96.14741453 98.29089602 -105.15092516 107.45106637 C-113.88940917 116.34144569 -122.64703457 125.21226208 -131.43022203 134.05848825 C-131.97207325 134.60424036 -132.51392446 135.14999247 -133.0721954 135.71228252 C-135.25022813 137.90583649 -137.42840225 140.09924992 -139.60676279 142.29247834 C-156.27589854 159.07564937 -172.92555137 175.87821238 -189.52091265 192.73436105 C-191.26286555 194.50329849 -193.00562101 196.27144601 -194.74921656 198.03876436 C-197.11955774 200.44199136 -199.48669295 202.84832721 -201.8528142 205.2557081 C-202.55103098 205.96260807 -203.24924776 206.66950805 -203.96862262 207.39782923 C-204.59820788 208.03988942 -205.22779314 208.68194961 -205.87645674 209.34346616 C-206.69674326 210.17700596 -206.69674326 210.17700596 -207.53360122 211.02738494 C-208.91932455 212.44225197 -208.91932455 212.44225197 -209.81279039 214.45033395 C-213.58514468 213.8797973 -215.4399509 212.28389974 -218.12529039 209.63783395 C-218.84329821 208.95076364 -219.56130602 208.26369333 -220.30107164 207.5558027 C-221.81279039 205.45033395 -221.81279039 205.45033395 -221.60846639 203.546848 C-220.65559485 201.03614192 -219.47463632 199.71529321 -217.59369326 197.80064046 C-216.55466384 196.73230027 -216.55466384 196.73230027 -215.49464393 195.64237744 C-214.72590973 194.86737513 -213.95717553 194.09237282 -213.16514635 193.29388559 C-212.35423123 192.46488475 -211.54331611 191.6358839 -210.70782781 190.78176183 C-208.45304926 188.48021877 -206.19155837 186.18552473 -203.92688084 183.89372849 C-201.98598373 181.92717297 -200.05066947 179.95516926 -198.11536399 177.98311307 C-191.18189369 170.91826522 -184.22620378 163.87546709 -177.26591539 156.8370527 C-176.71631777 156.2811977 -176.16672014 155.72534269 -175.60046804 155.15264359 C-164.68082936 144.10918975 -153.75219081 133.07467194 -142.80612612 122.05740774 C-140.39968987 119.63504448 -137.99337776 117.212558 -135.58720446 114.78993356 C-134.98917429 114.18782907 -134.39114413 113.58572459 -133.77499184 112.96537451 C-124.09971099 103.22173591 -114.4684809 93.43571251 -104.85417119 83.63194671 C-94.97482979 73.55955523 -85.05404368 63.52946642 -75.09263539 53.53822106 C-69.50367663 47.93031942 -63.93460287 42.30537756 -58.41213274 36.63191926 C-53.7058275 31.79704889 -48.96336124 27.00163463 -44.1705083 22.25248196 C-41.72861253 19.83054166 -39.30753017 17.39480507 -36.93248034 14.90712869 C-25.2009854 2.70758247 -17.26833086 -3.59668059 0 0 Z " fill="#B0CEEA" transform="translate(232.81279039382935,297.54966604709625)"/>
<path d="M0 0 C29.04 0 58.08 0 88 0 C88 9.9 88 19.8 88 30 C58.96 30 29.92 30 0 30 C0 20.1 0 10.2 0 0 Z " fill="#CBE0F9" transform="translate(57,155)"/>
<path d="M0 0 C14.52 0 29.04 0 44 0 C44 9.9 44 19.8 44 30 C29.48 30 14.96 30 0 30 C0 20.1 0 10.2 0 0 Z " fill="#F4F9FD" transform="translate(57,155)"/>
</svg>
