<?xml version="1.0" encoding="UTF-8"?>
<svg version="1.1" xmlns="http://www.w3.org/2000/svg" width="512" height="512">
<path d="M0 0 C1.566717 -0.01029488 1.566717 -0.01029488 3.16508484 -0.02079773 C6.61548481 -0.03908931 10.06543112 -0.03522472 13.51586914 -0.02954102 C15.91573739 -0.03410166 18.31560433 -0.03940689 20.71546936 -0.04542542 C25.74493719 -0.05436118 30.77424628 -0.05192797 35.80371094 -0.04199219 C42.24782849 -0.03050208 48.69139812 -0.05071291 55.13544369 -0.07990932 C60.09143045 -0.0982583 65.0472856 -0.09798141 70.00329781 -0.0922718 C72.37914359 -0.09211843 74.7549982 -0.0981759 77.13081169 -0.11056328 C80.45344254 -0.12544622 83.77505713 -0.11481495 87.09765625 -0.09765625 C88.07810913 -0.10732422 89.05856201 -0.11699219 90.06872559 -0.12695312 C95.72821822 -0.06577569 99.23270022 0.45453897 103.61352539 4.40405273 C107.6011578 8.93299658 107.04380546 14.0664551 107.01757812 19.79052734 C107.027873 21.35724434 107.027873 21.35724434 107.03837585 22.95561218 C107.05666744 26.40601215 107.05280285 29.85595846 107.04711914 33.30639648 C107.05167979 35.70626473 107.05698501 38.10613167 107.06300354 40.5059967 C107.0719393 45.53546454 107.06950609 50.56477363 107.05957031 55.59423828 C107.04808021 62.03835583 107.06829104 68.48192547 107.09748745 74.92597103 C107.11583643 79.88195779 107.11555953 84.83781294 107.10984993 89.79382515 C107.10969656 92.16967093 107.11575403 94.54552554 107.1281414 96.92133904 C107.14302434 100.24396988 107.13239307 103.56558447 107.11523438 106.88818359 C107.12490234 107.86863647 107.13457031 108.84908936 107.14453125 109.85925293 C107.08149203 115.69097815 106.45700225 118.94173514 102.61352539 123.40405273 C97.39092682 127.46035672 91.96012397 127.17802817 85.61352539 126.40405273 C81.01892214 124.22766172 78.78252429 121.95046787 76.61352539 117.40405273 C76.29425037 114.47685421 76.12568565 111.75003262 76.10180664 108.82202148 C76.07487984 107.6007531 76.07487984 107.6007531 76.04740906 106.35481262 C75.99344329 103.76711122 75.95945514 101.1795928 75.92602539 98.59155273 C75.89284011 96.83176172 75.85834933 95.07199481 75.82250977 93.31225586 C75.73772497 89.00965381 75.67084874 84.70710473 75.61352539 80.40405273 C58.38549705 89.2710636 42.71650006 99.94306543 27.67602539 112.09155273 C27.10513498 112.54965678 26.53424458 113.00776083 25.94605446 113.47974682 C-2.42566914 136.39290749 -20.33206278 163.65144314 -24.37556167 200.39725826 C-28.21574225 237.59185903 -27.6006728 275.20420499 -26.63647461 312.52905273 C-26.61723173 313.28489039 -26.59798885 314.04072804 -26.57816285 314.81946987 C-25.85640093 343.02347077 -24.88297595 371.21945644 -23.23152161 399.38536072 C-23.12189092 401.30215611 -23.12189092 401.30215611 -23.01004547 403.25767463 C-22.66746682 409.22795573 -22.30371698 415.1950666 -21.89247036 421.16102123 C-21.76541925 423.24728766 -21.63904926 425.33359572 -21.51348877 427.41995239 C-21.44022977 428.35251938 -21.36697077 429.28508637 -21.29149181 430.24591297 C-21.05340212 434.54445377 -21.1393187 436.89835362 -23.06603622 440.84055901 C-25.97818754 444.0577449 -28.55587454 446.13195606 -32.92417186 446.78125089 C-33.83034962 446.78228002 -34.73652737 446.78330915 -35.67016506 446.78436947 C-36.72143878 446.79280941 -37.77271251 446.80124935 -38.85584301 446.80994505 C-40.00447057 446.803935 -41.15309813 446.79792496 -42.33653259 446.79173279 C-43.56163703 446.79711833 -44.78674147 446.80250386 -46.04897028 446.8080526 C-49.44673179 446.81988817 -52.84400313 446.81825887 -56.24174535 446.81088579 C-59.90713305 446.80615945 -63.57246792 446.81865921 -67.23783875 446.8289032 C-74.41745707 446.84610701 -81.59698793 446.84692795 -88.77662151 446.84169029 C-94.61170062 446.83765034 -100.44675387 446.83909008 -106.28183174 446.84443855 C-107.52712962 446.84556119 -107.52712962 446.84556119 -108.79758503 446.8467065 C-110.48408298 446.84823796 -112.17058092 446.84977631 -113.85707886 446.85132147 C-129.67584055 446.8650522 -145.4945528 446.85960477 -161.31331337 446.84813625 C-175.78754402 446.83820302 -190.26164685 446.85114506 -204.73585778 446.87507045 C-219.59572143 446.89944837 -234.45552552 446.90907255 -249.31540877 446.90241772 C-257.65902489 446.89892262 -266.0025427 446.90117672 -274.34614372 446.91866875 C-281.44880935 446.9333744 -288.55130742 446.93404768 -295.6539697 446.91659784 C-299.27805459 446.90807189 -302.90183997 446.90597677 -306.52590942 446.92124939 C-310.45390479 446.93759795 -314.38143555 446.9229803 -318.30943298 446.90525818 C-319.45582982 446.91486319 -320.60222667 446.92446819 -321.78336281 446.93436426 C-327.77517907 446.87856536 -331.80501241 446.70017653 -336.38647461 442.40405273 C-338.88776253 438.8519242 -339.7618728 436.451283 -339.76679134 432.12036228 C-339.77523128 431.06908856 -339.78367123 430.01781484 -339.79236692 428.93468434 C-339.78635688 427.78605677 -339.78034683 426.63742921 -339.77415466 425.45399475 C-339.7795402 424.22889031 -339.78492574 423.00378588 -339.79047447 421.74155706 C-339.80231004 418.34379555 -339.80068074 414.94652421 -339.79330766 411.54878199 C-339.78858133 407.88339429 -339.80108109 404.21805942 -339.81132507 400.5526886 C-339.82852888 393.37307028 -339.82934983 386.19353941 -339.82411217 379.01390583 C-339.82007221 373.17882672 -339.82151195 367.34377348 -339.82686043 361.5086956 C-339.82760885 360.67849702 -339.82835727 359.84829843 -339.82912837 358.99294231 C-339.83065984 357.30644437 -339.83219818 355.61994642 -339.83374334 353.93344849 C-339.84747408 338.11468679 -339.84202664 322.29597454 -339.83055813 306.47721397 C-339.8206249 292.00298333 -339.83356693 277.5288805 -339.85749232 263.05466957 C-339.88187025 248.19480592 -339.89149443 233.33500183 -339.88483959 218.47511858 C-339.88134449 210.13150245 -339.88359859 201.78798465 -339.90109062 193.44438362 C-339.91579628 186.341718 -339.91646956 179.23921993 -339.89901971 172.13655765 C-339.89049377 168.51247275 -339.88839864 164.88868737 -339.90367126 161.26461792 C-339.92001983 157.33662255 -339.90540218 153.4090918 -339.88768005 149.48109436 C-339.89728506 148.33469752 -339.90689007 147.18830068 -339.91678613 146.00716454 C-339.86098724 140.01534827 -339.6825984 135.98551493 -335.38647461 131.40405273 C-331.54711536 128.00208395 -328.22995502 128.15636209 -323.35741615 128.43815124 C-322.42193632 128.5084974 -321.48645649 128.57884355 -320.52262878 128.65132141 C-319.52037356 128.71254468 -318.51811834 128.77376795 -317.48549175 128.83684647 C-315.285914 128.97194142 -313.0867521 129.11393737 -310.88800085 129.26187599 C-304.75480705 129.670046 -298.61784414 130.0128061 -292.4810791 130.36239624 C-291.16826531 130.43821055 -289.85545151 130.51402485 -288.50285548 130.59213656 C-260.88363892 132.17187363 -233.22808818 133.02984113 -205.57397461 133.71655273 C-204.44271584 133.74516544 -204.44271584 133.74516544 -203.28860337 133.77435619 C-105.7371233 139.21044937 -105.7371233 139.21044937 -21.64638335 97.96639127 C-15.6643935 92.1416478 -10.29484255 85.8479973 -5.07397461 79.34155273 C-4.61101722 78.76837704 -4.14805984 78.19520135 -3.67107344 77.6046567 C7.96832433 63.13764597 18.10347249 47.93853483 26.61352539 31.40405273 C24.97939697 31.39003418 24.97939697 31.39003418 23.31225586 31.37573242 C19.25276485 31.33572292 15.19402298 31.26993445 11.13500977 31.1965332 C9.38152727 31.1683869 7.6279194 31.14714088 5.87426758 31.13305664 C3.3465994 31.11153847 0.82042855 31.06484571 -1.70678711 31.01342773 C-2.48514923 31.0121991 -3.26351135 31.01097046 -4.06546021 31.00970459 C-9.26602476 30.87118511 -12.24095316 29.80456824 -16.38647461 26.40405273 C-20.44277859 21.18145416 -20.16045005 15.75065131 -19.38647461 9.40405273 C-15.1491915 0.45867728 -8.97469192 -0.04112147 0 0 Z " fill="#00DA80" transform="translate(340.386474609375,64.595947265625)"/>
<path d="M0 0 C85.14 0 170.28 0 258 0 C258 66.66 258 133.32 258 202 C253.56274732 198.19664056 249.34118139 194.47788644 245.26757812 190.33349609 C244.74135361 189.80259872 244.21512909 189.27170135 243.67295837 188.72471619 C242.54357437 187.58492292 241.41530534 186.44402392 240.28807068 185.30210495 C238.49929634 183.49108648 236.70639409 181.6842502 234.91223145 179.87857056 C229.81588846 174.74883587 224.72382741 169.61490986 219.64208984 164.47070312 C216.5217528 161.31260138 213.39404737 158.16195782 210.26158142 155.01588821 C209.07553805 153.82182735 207.89226985 152.6250029 206.71192932 151.42530441 C205.0590153 149.74574105 203.39685995 148.07584796 201.73242188 146.40771484 C201.2542955 145.9172316 200.77616913 145.42674835 200.28355408 144.92140198 C195.96372837 140.62660864 191.24976767 136.94345953 185 136.5 C175.79333806 137.08628537 169.73334164 144.87062031 163.69140625 151.015625 C162.71558018 151.99705573 161.73908264 152.97781925 160.76194763 153.95794678 C158.20878259 156.52249207 155.66476166 159.09592054 153.12261963 161.67138672 C150.52021332 164.30464195 147.90914918 166.92928206 145.29882812 169.5546875 C140.19076741 174.6947918 135.09234815 179.84432359 130 185 C126.53451616 183.51508053 124.33597664 181.55861815 121.7097168 178.87329102 C120.87172043 178.02223282 120.03372406 177.17117462 119.17033386 176.29432678 C118.27236588 175.37348801 117.37439789 174.45264923 116.44921875 173.50390625 C115.50837036 172.54915526 114.56677387 171.59514095 113.62446594 170.64183044 C109.63234605 166.60095437 105.65151093 162.54910131 101.67993164 158.48803711 C99.24598835 156.0002761 96.80218588 153.52255229 94.35221291 151.05058098 C92.97602619 149.65607062 91.61113779 148.25043923 90.24650574 146.84461975 C84.62643469 141.17973479 80.54419453 137.55805898 72.4375 136.5625 C65.67345034 137.42337905 61.23317018 142.48339832 56.64331055 147.14550781 C56.03931931 147.75081329 55.43532806 148.35611877 54.81303406 148.97976685 C52.83294007 150.9663126 50.85992197 152.95973676 48.88671875 154.953125 C47.50814548 156.33797225 46.12905341 157.72230323 44.74946594 159.10614014 C41.13051569 162.73835639 37.5171885 166.37611055 33.90545654 170.01550293 C28.10810476 175.85608877 22.30388962 181.6898359 16.49653053 187.52046967 C14.46606036 189.5611983 12.43901421 191.60528381 10.41227722 193.64971924 C9.17820368 194.89061558 7.94402285 196.13140525 6.7097168 197.37207031 C6.14299255 197.94553192 5.57626831 198.51899353 4.99237061 199.10983276 C3.68043814 200.42563092 2.34300399 201.71593153 1 203 C0.67 203 0.34 203 0 203 C0 136.01 0 69.02 0 0 Z " fill="#ECF2FE" transform="translate(31,223)"/>
<path d="M0 0 C1.566717 -0.01029488 1.566717 -0.01029488 3.16508484 -0.02079773 C6.61548481 -0.03908931 10.06543112 -0.03522472 13.51586914 -0.02954102 C15.91573739 -0.03410166 18.31560433 -0.03940689 20.71546936 -0.04542542 C25.74493719 -0.05436118 30.77424628 -0.05192797 35.80371094 -0.04199219 C42.24782849 -0.03050208 48.69139812 -0.05071291 55.13544369 -0.07990932 C60.09143045 -0.0982583 65.0472856 -0.09798141 70.00329781 -0.0922718 C72.37914359 -0.09211843 74.7549982 -0.0981759 77.13081169 -0.11056328 C80.45344254 -0.12544622 83.77505713 -0.11481495 87.09765625 -0.09765625 C88.07810913 -0.10732422 89.05856201 -0.11699219 90.06872559 -0.12695312 C95.72821822 -0.06577569 99.23270022 0.45453897 103.61352539 4.40405273 C107.6011578 8.93299658 107.04380546 14.0664551 107.01757812 19.79052734 C107.027873 21.35724434 107.027873 21.35724434 107.03837585 22.95561218 C107.05666744 26.40601215 107.05280285 29.85595846 107.04711914 33.30639648 C107.05167979 35.70626473 107.05698501 38.10613167 107.06300354 40.5059967 C107.0719393 45.53546454 107.06950609 50.56477363 107.05957031 55.59423828 C107.04808021 62.03835583 107.06829104 68.48192547 107.09748745 74.92597103 C107.11583643 79.88195779 107.11555953 84.83781294 107.10984993 89.79382515 C107.10969656 92.16967093 107.11575403 94.54552554 107.1281414 96.92133904 C107.14302434 100.24396988 107.13239307 103.56558447 107.11523438 106.88818359 C107.12490234 107.86863647 107.13457031 108.84908936 107.14453125 109.85925293 C107.08149203 115.69097815 106.45700225 118.94173514 102.61352539 123.40405273 C97.39092682 127.46035672 91.96012397 127.17802817 85.61352539 126.40405273 C81.01892214 124.22766172 78.78252429 121.95046787 76.61352539 117.40405273 C76.29425037 114.47685421 76.12568565 111.75003262 76.10180664 108.82202148 C76.07487984 107.6007531 76.07487984 107.6007531 76.04740906 106.35481262 C75.99344329 103.76711122 75.95945514 101.1795928 75.92602539 98.59155273 C75.89284011 96.83176172 75.85834933 95.07199481 75.82250977 93.31225586 C75.73772497 89.00965381 75.67084874 84.70710473 75.61352539 80.40405273 C58.38549705 89.2710636 42.71650006 99.94306543 27.67602539 112.09155273 C27.10513498 112.54965678 26.53424458 113.00776083 25.94605446 113.47974682 C-2.42566914 136.39290749 -20.33206278 163.65144314 -24.37556167 200.39725826 C-28.21574225 237.59185903 -27.6006728 275.20420499 -26.63647461 312.52905273 C-26.61723173 313.28489039 -26.59798885 314.04072804 -26.57816285 314.81946987 C-25.85640093 343.02347077 -24.88297595 371.21945644 -23.23152161 399.38536072 C-23.15843448 400.66322431 -23.08534736 401.9410879 -23.01004547 403.25767463 C-22.66746682 409.22795573 -22.30371698 415.1950666 -21.89247036 421.16102123 C-21.76541925 423.24728766 -21.63904926 425.33359572 -21.51348877 427.41995239 C-21.44022977 428.35251938 -21.36697077 429.28508637 -21.29149181 430.24591297 C-21.05340212 434.54445377 -21.1393187 436.89835362 -23.06603622 440.84055901 C-26.26114906 444.37034535 -28.56289039 446.17646667 -33.34431934 446.77319622 C-34.44586196 446.77043084 -35.54740458 446.76766546 -36.68232727 446.76481628 C-38.58582191 446.77100227 -38.58582191 446.77100227 -40.527771 446.77731323 C-41.92639374 446.76669717 -43.32501433 446.75579276 -44.72363281 446.74462891 C-46.20218387 446.74378233 -47.68073618 446.74425837 -49.1592865 446.74595642 C-53.16723785 446.74681661 -57.17491946 446.72918707 -61.18280816 446.70823455 C-65.37350103 446.68947173 -69.56420019 446.68771762 -73.75492859 446.68415833 C-81.68799834 446.6748367 -89.62094396 446.65022133 -97.55395907 446.62010986 C-106.58653377 446.58656951 -115.61911442 446.57008076 -124.6517359 446.55502355 C-143.2300668 446.52367185 -161.80822754 446.46865832 -180.38647461 446.40405273 C-180.38647461 436.50405273 -180.38647461 426.60405273 -180.38647461 416.40405273 C-137.81647461 416.40405273 -95.24647461 416.40405273 -51.38647461 416.40405273 C-51.38647461 331.26405273 -51.38647461 246.12405273 -51.38647461 158.40405273 C-93.95647461 158.40405273 -136.52647461 158.40405273 -180.38647461 158.40405273 C-180.38647461 148.50405273 -180.38647461 138.60405273 -180.38647461 128.40405273 C-177.52668945 128.87649414 -174.6669043 129.34893555 -171.72045898 129.83569336 C-158.16840945 131.92566829 -144.57321675 133.13218617 -130.88647461 133.90405273 C-129.03217897 134.00950346 -129.03217897 134.00950346 -127.14042282 134.1170845 C-92.67909114 135.80813209 -67.86289078 130.54762424 -42.36261225 107.53911352 C-32.58160345 98.58593913 -23.40410993 89.11492509 -14.44897461 79.34155273 C-13.65939425 78.48197401 -13.65939425 78.48197401 -12.85386276 77.60503006 C0.85673677 62.65768217 13.99345765 47.28485393 26.61352539 31.40405273 C24.97939697 31.39003418 24.97939697 31.39003418 23.31225586 31.37573242 C19.25276485 31.33572292 15.19402298 31.26993445 11.13500977 31.1965332 C9.38152727 31.1683869 7.6279194 31.14714088 5.87426758 31.13305664 C3.3465994 31.11153847 0.82042855 31.06484571 -1.70678711 31.01342773 C-2.48514923 31.0121991 -3.26351135 31.01097046 -4.06546021 31.00970459 C-9.26602476 30.87118511 -12.24095316 29.80456824 -16.38647461 26.40405273 C-20.44277859 21.18145416 -20.16045005 15.75065131 -19.38647461 9.40405273 C-15.1491915 0.45867728 -8.97469192 -0.04112147 0 0 Z " fill="#0A617D" transform="translate(340.386474609375,64.595947265625)"/>
<path d="M0 0 C42.57 0 85.14 0 129 0 C129 66.66 129 133.32 129 202 C124.56274732 198.19664056 120.34118139 194.47788644 116.26757812 190.33349609 C115.74135361 189.80259872 115.21512909 189.27170135 114.67295837 188.72471619 C113.54357437 187.58492292 112.41530534 186.44402392 111.28807068 185.30210495 C109.49929634 183.49108648 107.70639409 181.6842502 105.91223145 179.87857056 C100.81588846 174.74883587 95.72382741 169.61490986 90.64208984 164.47070312 C87.5217528 161.31260138 84.39404737 158.16195782 81.26158142 155.01588821 C80.07553805 153.82182735 78.89226985 152.6250029 77.71192932 151.42530441 C76.0590153 149.74574105 74.39685995 148.07584796 72.73242188 146.40771484 C72.2542955 145.9172316 71.77616913 145.42674835 71.28355408 144.92140198 C66.96372745 140.62660773 62.24976842 136.94346157 56 136.5 C46.79628829 137.08613665 40.75071771 144.8699602 34.7265625 151.015625 C33.753207 151.99712845 32.77910365 152.97789076 31.80429077 153.95794678 C29.25659548 156.52265755 26.7176342 159.09583124 24.1809082 161.67138672 C20.10222343 165.80959097 16.01043845 169.93483708 11.91831589 174.05974579 C10.49020843 175.50184537 9.06595723 176.94766909 7.64224243 178.394104 C6.78399872 179.26210632 5.925755 180.13010864 5.04150391 181.02441406 C4.28318268 181.79400452 3.52486145 182.56359497 2.74356079 183.35650635 C1 185 1 185 0 185 C0 166.19 0 147.38 0 128 C5.94 127.01 5.94 127.01 12 126 C23.88287904 122.43913726 33.4430963 115.58564801 40 105 C45.63140191 93.54753757 48.06628652 81.49311065 45.31640625 68.859375 C40.37526203 54.50750382 32.62164655 45.5073601 19.28125 38.578125 C13.08315706 36.29342651 6.47749086 35.29549817 0 34 C0 22.78 0 11.56 0 0 Z " fill="#D8E4FA" transform="translate(160,223)"/>
<path d="M0 0 C1.26899643 -0.00412399 2.53799286 -0.00824799 3.84544373 -0.01249695 C5.24406647 -0.00188089 6.64268706 0.00902352 8.04130554 0.02018738 C9.51985659 0.02103395 10.99840891 0.02055791 12.47695923 0.01885986 C16.48491058 0.01799967 20.49259219 0.03562922 24.50048089 0.05658174 C28.69117376 0.07534456 32.88187292 0.07709867 37.07260132 0.08065796 C45.00567107 0.08997959 52.93861669 0.11459495 60.8716318 0.14470643 C69.9042065 0.17824678 78.93678715 0.19473553 87.96940863 0.20979273 C106.54773953 0.24114444 125.12590027 0.29615796 143.70414734 0.36076355 C143.70414734 10.26076355 143.70414734 20.16076355 143.70414734 30.36076355 C101.13414734 30.36076355 58.56414734 30.36076355 14.70414734 30.36076355 C14.70414734 115.50076355 14.70414734 200.64076355 14.70414734 288.36076355 C57.27414734 288.36076355 99.84414734 288.36076355 143.70414734 288.36076355 C143.70414734 298.26076355 143.70414734 308.16076355 143.70414734 318.36076355 C124.2501958 318.45106934 104.79641406 318.5247487 85.34230614 318.56801224 C76.30936045 318.58863447 67.27655427 318.61674857 58.24369812 318.66252136 C50.37033832 318.70239953 42.49707957 318.72819883 34.62362158 318.73711753 C30.45492585 318.74233064 26.28651917 318.75457611 22.11791611 318.78368378 C18.1928399 318.8108685 14.26817135 318.81920247 10.34300995 318.81319427 C8.90388141 318.81429316 7.46473901 318.82222918 6.02569199 318.83758545 C4.05731365 318.85755693 2.08871573 318.85030188 0.12025452 318.84178162 C-0.98036631 318.84546879 -2.08098713 318.84915596 -3.2149601 318.85295486 C-7.13794363 318.2262344 -9.23478738 316.86810377 -12.29585266 314.36076355 C-14.81959246 310.82465118 -15.67125633 308.40316944 -15.6761694 304.0770731 C-15.68460934 303.02579938 -15.69304928 301.97452565 -15.70174497 300.89139515 C-15.69573493 299.74276759 -15.68972488 298.59414003 -15.68353271 297.41070557 C-15.68891825 296.18560113 -15.69430379 294.96049669 -15.69985253 293.69826788 C-15.7116881 290.30050637 -15.7100588 286.90323503 -15.70268571 283.50549281 C-15.69795938 279.84010511 -15.71045914 276.17477024 -15.72070312 272.50939941 C-15.73790693 265.32978109 -15.73872788 258.15025023 -15.73349022 250.97061665 C-15.72945026 245.13553753 -15.73089 239.30048429 -15.73623848 233.46540642 C-15.7369869 232.63520783 -15.73773532 231.80500925 -15.73850643 230.94965313 C-15.74003789 229.26315518 -15.74157623 227.57665724 -15.74312139 225.8901593 C-15.75685213 210.07139761 -15.7514047 194.25268536 -15.73993618 178.43392479 C-15.73000295 163.95969414 -15.74294499 149.48559131 -15.76687037 135.01138038 C-15.7912483 120.15151673 -15.80087248 105.29171264 -15.79421765 90.43182939 C-15.79072254 82.08821327 -15.79297665 73.74469546 -15.81046867 65.40109444 C-15.82517433 58.29842881 -15.82584761 51.19593074 -15.80839776 44.09326846 C-15.79987182 40.46918356 -15.79777669 36.84539819 -15.81304932 33.22132874 C-15.82939788 29.29333337 -15.81478023 25.36580261 -15.79705811 21.43780518 C-15.80666311 20.29140833 -15.81626812 19.14501149 -15.82616419 17.96387535 C-15.77036529 11.97205909 -15.59197646 7.94222575 -11.29585266 3.36076355 C-7.53155132 0.40164565 -4.73026751 -0.01187515 0 0 Z " fill="#00B3BB" transform="translate(16.295852661132813,192.6392364501953)"/>
<path d="M0 0 C1.566717 -0.01029488 1.566717 -0.01029488 3.16508484 -0.02079773 C6.61548481 -0.03908931 10.06543112 -0.03522472 13.51586914 -0.02954102 C15.91573739 -0.03410166 18.31560433 -0.03940689 20.71546936 -0.04542542 C25.74493719 -0.05436118 30.77424628 -0.05192797 35.80371094 -0.04199219 C42.24782849 -0.03050208 48.69139812 -0.05071291 55.13544369 -0.07990932 C60.09143045 -0.0982583 65.0472856 -0.09798141 70.00329781 -0.0922718 C72.37914359 -0.09211843 74.7549982 -0.0981759 77.13081169 -0.11056328 C80.45344254 -0.12544622 83.77505713 -0.11481495 87.09765625 -0.09765625 C88.07810913 -0.10732422 89.05856201 -0.11699219 90.06872559 -0.12695312 C95.72821822 -0.06577569 99.23270022 0.45453897 103.61352539 4.40405273 C107.6011578 8.93299658 107.04380546 14.0664551 107.01757812 19.79052734 C107.02444138 20.83500534 107.03130463 21.87948334 107.03837585 22.95561218 C107.05666744 26.40601215 107.05280285 29.85595846 107.04711914 33.30639648 C107.05167979 35.70626473 107.05698501 38.10613167 107.06300354 40.5059967 C107.0719393 45.53546454 107.06950609 50.56477363 107.05957031 55.59423828 C107.04808021 62.03835583 107.06829104 68.48192547 107.09748745 74.92597103 C107.11583643 79.88195779 107.11555953 84.83781294 107.10984993 89.79382515 C107.10969656 92.16967093 107.11575403 94.54552554 107.1281414 96.92133904 C107.14302434 100.24396988 107.13239307 103.56558447 107.11523438 106.88818359 C107.12973633 108.35886292 107.12973633 108.35886292 107.14453125 109.85925293 C107.08149203 115.69097815 106.45700225 118.94173514 102.61352539 123.40405273 C97.39092682 127.46035672 91.96012397 127.17802817 85.61352539 126.40405273 C81.01892214 124.22766172 78.78252429 121.95046787 76.61352539 117.40405273 C76.29425037 114.47685421 76.12568565 111.75003262 76.10180664 108.82202148 C76.08385544 108.00784256 76.06590424 107.19366364 76.04740906 106.35481262 C75.99344329 103.76711122 75.95945514 101.1795928 75.92602539 98.59155273 C75.89284011 96.83176172 75.85834933 95.07199481 75.82250977 93.31225586 C75.73772497 89.00965381 75.67084874 84.70710473 75.61352539 80.40405273 C75.11968888 80.89881104 74.62585238 81.39356934 74.11705112 81.90332031 C62.11915819 93.92326567 50.11852254 105.94046576 38.11480045 117.95458984 C32.31003899 123.7645149 26.50622105 129.57537674 20.70458984 135.38842773 C15.64985001 140.45311247 10.59337447 145.51605661 5.53477758 150.57688904 C2.85458345 153.2583906 0.17528656 155.94077543 -2.50193596 158.62524414 C-5.01875373 161.14881908 -7.537875 163.67007071 -10.05882835 166.18951416 C-11.43082425 167.56191894 -12.80032511 168.93681657 -14.16976929 170.31176758 C-14.97890274 171.11952637 -15.78803619 171.92728516 -16.62168884 172.75952148 C-17.32870406 173.4674585 -18.03571928 174.17539551 -18.7641592 174.90478516 C-20.38647461 176.40405273 -20.38647461 176.40405273 -21.38647461 176.40405273 C-21.39582031 175.31987061 -21.40516602 174.23568848 -21.41479492 173.11865234 C-21.45485533 169.07218277 -21.52065746 165.02646071 -21.59399414 160.98046875 C-21.62211113 159.23382211 -21.64337158 157.48705042 -21.6574707 155.74023438 C-21.67902981 153.21997489 -21.72574294 150.70120415 -21.77709961 148.18139648 C-21.77832825 147.40819565 -21.77955688 146.63499481 -21.78082275 145.83836365 C-21.92887076 140.28062781 -23.03921635 136.90005143 -26.38647461 132.40405273 C-31.10933082 129.08016701 -35.49359296 128.9380817 -41.06616211 128.89233398 C-41.87892609 128.87438278 -42.69169006 128.85643158 -43.52908325 128.8379364 C-46.10649541 128.78406915 -48.68372491 128.75001437 -51.26147461 128.71655273 C-53.01670823 128.68335874 -54.77191782 128.64886716 -56.52709961 128.61303711 C-60.81342564 128.52835663 -65.09969973 128.46143376 -69.38647461 128.40405273 C-64.68243729 122.75016907 -59.65391942 117.53512747 -54.44360352 112.34765625 C-53.56490601 111.46881271 -52.6862085 110.58996918 -51.78088379 109.68449402 C-49.39055344 107.29473763 -46.99803853 104.90720993 -44.60449266 102.52067685 C-42.09628936 100.01875928 -39.59095072 97.51397635 -37.08529663 95.00950623 C-32.34884647 90.27615408 -27.60985484 85.54535506 -22.86992681 80.81548589 C-17.47007919 75.42684712 -12.07309834 70.035341 -6.67634702 64.64360154 C4.41710807 53.56057615 15.51412729 42.48112652 26.61352539 31.40405273 C24.97939697 31.39003418 24.97939697 31.39003418 23.31225586 31.37573242 C19.25276485 31.33572292 15.19402298 31.26993445 11.13500977 31.1965332 C9.38152727 31.1683869 7.6279194 31.14714088 5.87426758 31.13305664 C3.3465994 31.11153847 0.82042855 31.06484571 -1.70678711 31.01342773 C-2.48514923 31.0121991 -3.26351135 31.01097046 -4.06546021 31.00970459 C-9.26602476 30.87118511 -12.24095316 29.80456824 -16.38647461 26.40405273 C-20.44277859 21.18145416 -20.16045005 15.75065131 -19.38647461 9.40405273 C-15.1491915 0.45867728 -8.97469192 -0.04112147 0 0 Z " fill="#D7E4FA" transform="translate(340.386474609375,64.595947265625)"/>
<path d="M0 0 C11.27018839 7.63416814 21.3476638 16.87514138 31.3045969 26.11797905 C35.38598042 29.89964512 39.52938065 33.5529589 43.84536743 37.06549072 C54.43233877 46.185953 58.40199415 52.57953283 67.09632874 65.05758667 C67.09632874 83.53758667 67.09632874 102.01758667 67.09632874 121.05758667 C24.52632874 121.05758667 -18.04367126 121.05758667 -61.90367126 121.05758667 C-67.8366801 55.2895526 -67.8366801 55.2895526 -54.52471924 38.47276306 C-43.67529709 25.61942963 -30.41357215 14.69672445 -16.92848206 4.72488403 C-14.68226669 3.03933497 -14.68226669 3.03933497 -12.90367126 0.05758667 C-8.46298933 -1.42264064 -4.28945584 -2.12349708 0 0 Z " fill="#00DA80" transform="translate(221.90367126464844,359.9424133300781)"/>
<path d="M0 0 C8.54073656 6.92446172 14.60679443 17.29779982 17 28 C18.52905838 43.16576273 15.14844989 56.94957778 5.41015625 68.9609375 C-2.63600698 77.63186164 -13.91514812 83.14987609 -25.640625 84.3828125 C-40.03526404 84.82709148 -52.50452694 80.66952429 -63.25 70.96875 C-73.15299444 60.61561945 -77.54595907 48.07220561 -77.30859375 33.9140625 C-76.32109418 21.38906793 -70.87559337 10.35654583 -61.8125 1.6875 C-43.49652478 -13.53413811 -19.23778095 -14.1054401 0 0 Z " fill="#FEC178" transform="translate(190,267)"/>
<path d="M0 0 C1.044478 -0.00686325 2.08895599 -0.0137265 3.16508484 -0.02079773 C6.61548481 -0.03908931 10.06543112 -0.03522472 13.51586914 -0.02954102 C15.91573739 -0.03410166 18.31560433 -0.03940689 20.71546936 -0.04542542 C25.74493719 -0.05436118 30.77424628 -0.05192797 35.80371094 -0.04199219 C42.24782849 -0.03050208 48.69139812 -0.05071291 55.13544369 -0.07990932 C60.09143045 -0.0982583 65.0472856 -0.09798141 70.00329781 -0.0922718 C72.37914359 -0.09211843 74.7549982 -0.0981759 77.13081169 -0.11056328 C80.45344254 -0.12544622 83.77505713 -0.11481495 87.09765625 -0.09765625 C88.07810913 -0.10732422 89.05856201 -0.11699219 90.06872559 -0.12695312 C95.72821822 -0.06577569 99.23270022 0.45453897 103.61352539 4.40405273 C107.6011578 8.93299658 107.04380546 14.0664551 107.01757812 19.79052734 C107.02444138 20.83500534 107.03130463 21.87948334 107.03837585 22.95561218 C107.05666744 26.40601215 107.05280285 29.85595846 107.04711914 33.30639648 C107.05167979 35.70626473 107.05698501 38.10613167 107.06300354 40.5059967 C107.0719393 45.53546454 107.06950609 50.56477363 107.05957031 55.59423828 C107.04808021 62.03835583 107.06829104 68.48192547 107.09748745 74.92597103 C107.11583643 79.88195779 107.11555953 84.83781294 107.10984993 89.79382515 C107.10969656 92.16967093 107.11575403 94.54552554 107.1281414 96.92133904 C107.14302434 100.24396988 107.13239307 103.56558447 107.11523438 106.88818359 C107.12490234 107.86863647 107.13457031 108.84908936 107.14453125 109.85925293 C107.08149203 115.69097815 106.45700225 118.94173514 102.61352539 123.40405273 C97.39092682 127.46035672 91.96012397 127.17802817 85.61352539 126.40405273 C81.02471044 124.23040355 78.76853619 121.9536801 76.61352539 117.40405273 C76.34310615 114.47761625 76.23333657 111.77183531 76.27294922 108.85009766 C76.27251114 108.00080688 76.27207306 107.15151611 76.2716217 106.27648926 C76.27370598 103.47893002 76.29701993 100.68197559 76.32055664 97.88452148 C76.32615388 95.94110949 76.33042337 93.99769326 76.3334198 92.05427551 C76.34485848 86.94634252 76.37431737 81.83866659 76.40753174 76.73083496 C76.43825361 71.51582313 76.45192967 66.30076965 76.46704102 61.08569336 C76.49918791 50.85836705 76.55037256 40.63123129 76.61352539 30.40405273 C74.99859695 30.4173764 74.99859695 30.4173764 73.3510437 30.43096924 C63.19883215 30.5120993 53.04668649 30.57203943 42.89422417 30.61130142 C37.67486929 30.63216513 32.45577638 30.6604608 27.23657227 30.70581055 C22.19856317 30.74931132 17.16080587 30.773199 12.12262344 30.78356171 C10.20169232 30.79094545 8.28077479 30.80536426 6.35995102 30.82697296 C3.66666774 30.85606322 0.97442128 30.8600064 -1.71899414 30.8581543 C-2.51093674 30.8725354 -3.30287933 30.8869165 -4.11882019 30.9017334 C-9.32664091 30.86305068 -12.23956659 29.82033355 -16.38647461 26.40405273 C-20.44277859 21.18145416 -20.16045005 15.75065131 -19.38647461 9.40405273 C-15.1491915 0.45867728 -8.97469192 -0.04112147 0 0 Z " fill="#BCD8FC" transform="translate(340.386474609375,64.595947265625)"/>
<path d="M0 0 C4.61296798 2.18509009 6.73753483 4.49294811 9 9 C9.38768005 11.87669373 9.38768005 11.87669373 9.40405273 15.07202148 C9.41673691 16.27354355 9.42942108 17.47506561 9.44248962 18.71299744 C9.43955399 20.00266922 9.43661835 21.292341 9.43359375 22.62109375 C9.4381589 23.96721153 9.44346547 25.31332699 9.44947815 26.65943909 C9.4583965 29.47626228 9.45600118 32.29280177 9.44604492 35.10961914 C9.43455927 38.70879479 9.45476531 42.3069887 9.48396206 45.90603542 C9.50236176 48.68486185 9.50202419 51.46345465 9.49632454 54.24232674 C9.4960978 56.21093542 9.51296179 58.17952225 9.53013611 60.14805603 C9.44198862 71.46769807 9.44198862 71.46769807 5 76 C1.19784581 78.72211619 -1.42093307 79.38022082 -6.07202148 79.40405273 C-7.87430458 79.42307899 -7.87430458 79.42307899 -9.71299744 79.44248962 C-11.00266922 79.43955399 -12.292341 79.43661835 -13.62109375 79.43359375 C-14.96721153 79.4381589 -16.31332699 79.44346547 -17.65943909 79.44947815 C-20.47626228 79.4583965 -23.29280177 79.45600118 -26.10961914 79.44604492 C-29.70879479 79.43455927 -33.3069887 79.45476531 -36.90603542 79.48396206 C-39.68486185 79.50236176 -42.46345465 79.50202419 -45.24232674 79.49632454 C-47.21093542 79.4960978 -49.17952225 79.51296179 -51.14805603 79.53013611 C-62.26649155 79.44355544 -62.26649155 79.44355544 -67 75 C-71.05630398 69.77740143 -70.77397544 64.34659858 -70 58 C-67.82890527 53.4165778 -65.56202985 51.12474461 -61 49 C-57.91508972 48.59918725 -54.86802089 48.65038892 -51.76171875 48.70703125 C-50.44056816 48.71339851 -50.44056816 48.71339851 -49.09272766 48.71989441 C-46.2906689 48.73663356 -43.48933991 48.7742767 -40.6875 48.8125 C-38.78321354 48.82755301 -36.87891576 48.84124034 -34.97460938 48.85351562 C-30.31612678 48.88652146 -25.65818695 48.93827071 -21 49 C-21.02094727 47.81970215 -21.04189453 46.6394043 -21.06347656 45.42333984 C-21.13607769 41.02893283 -21.18187271 36.63457846 -21.21972656 32.23974609 C-21.23979629 30.34056675 -21.26705851 28.44144885 -21.30175781 26.54248047 C-21.35048109 23.80681161 -21.37301507 21.07196229 -21.390625 18.3359375 C-21.41127014 17.49195404 -21.43191528 16.64797058 -21.45318604 15.77841187 C-21.45523285 10.35604879 -20.60938251 7.30213838 -17 3 C-11.77740143 -1.05630398 -6.34659858 -0.77397544 0 0 Z " fill="#09607C" transform="translate(503,433)"/>
<path d="M0 0 C1.20152206 -0.01268417 2.40304413 -0.02536835 3.64097595 -0.03843689 C4.93064774 -0.03550125 6.22031952 -0.03256561 7.54907227 -0.02954102 C8.89519005 -0.03410617 10.24130551 -0.03941274 11.5874176 -0.04542542 C14.40424079 -0.05434376 17.22078028 -0.05194845 20.03759766 -0.04199219 C23.63677331 -0.03050654 27.23496722 -0.05071258 30.83401394 -0.07990932 C33.61284036 -0.09830903 36.39143316 -0.09797145 39.17030525 -0.0922718 C41.13891393 -0.09204507 43.10750077 -0.10890906 45.07603455 -0.12608337 C56.39567659 -0.03793589 56.39567659 -0.03793589 60.92797852 4.40405273 C63.65009471 8.20620692 64.30819933 10.8249858 64.33203125 15.47607422 C64.34471542 16.67759628 64.3573996 17.87911835 64.37046814 19.11705017 C64.3675325 20.40672195 64.36459686 21.69639374 64.36157227 23.02514648 C64.36613742 24.37126427 64.37144399 25.71737972 64.37745667 27.06349182 C64.38637501 29.88031501 64.3839797 32.6968545 64.37402344 35.51367188 C64.36253779 39.11284753 64.38274383 42.71104144 64.41194057 46.31008816 C64.43034028 49.08891458 64.4300027 51.86750738 64.42430305 54.64637947 C64.42407632 56.61498815 64.44094031 58.58357499 64.45811462 60.55210876 C64.37153396 71.67054429 64.37153396 71.67054429 59.92797852 76.40405273 C54.70537994 80.46035672 49.27457709 80.17802817 42.92797852 79.40405273 C38.34455632 77.23295801 36.05272313 74.96608259 33.92797852 70.40405273 C33.52716577 67.31914245 33.57836744 64.27207362 33.63500977 61.16577148 C33.63925461 60.28500443 33.64349945 59.40423737 33.64787292 58.4967804 C33.66461207 55.69472163 33.70225522 52.89339265 33.74047852 50.09155273 C33.75553152 48.18726628 33.76921885 46.2829685 33.78149414 44.37866211 C33.81449998 39.72017951 33.86624923 35.06223969 33.92797852 30.40405273 C32.15753174 30.43547363 32.15753174 30.43547363 30.35131836 30.4675293 C25.95691135 30.54013043 21.56255698 30.58592544 17.16772461 30.6237793 C15.26854527 30.64384903 13.36942737 30.67111125 11.47045898 30.70581055 C8.73479012 30.75453383 5.99994081 30.77706781 3.26391602 30.79467773 C2.41993256 30.81532288 1.5759491 30.83596802 0.70639038 30.85723877 C-4.71597269 30.85928559 -7.76988311 30.01343524 -12.07202148 26.40405273 C-16.12832547 21.18145416 -15.84599692 15.75065131 -15.07202148 9.40405273 C-11.8536244 2.60965889 -7.40163974 0.03792559 0 0 Z " fill="#09607C" transform="translate(448.072021484375,-0.404052734375)"/>
<path d="M0 0 C1.20152206 -0.01268417 2.40304413 -0.02536835 3.64097595 -0.03843689 C4.93064774 -0.03550125 6.22031952 -0.03256561 7.54907227 -0.02954102 C8.89519005 -0.03410617 10.24130551 -0.03941274 11.5874176 -0.04542542 C14.40424079 -0.05434376 17.22078028 -0.05194845 20.03759766 -0.04199219 C23.63677331 -0.03050654 27.23496722 -0.05071258 30.83401394 -0.07990932 C33.61284036 -0.09830903 36.39143316 -0.09797145 39.17030525 -0.0922718 C41.13891393 -0.09204507 43.10750077 -0.10890906 45.07603455 -0.12608337 C56.19447007 -0.03950271 56.19447007 -0.03950271 60.92797852 4.40405273 C64.9842825 9.62665131 64.70195395 15.05745416 63.92797852 21.40405273 C61.75688379 25.98747493 59.49000837 28.27930812 54.92797852 30.40405273 C51.84306823 30.80486548 48.79599941 30.75366381 45.68969727 30.69702148 C44.80893021 30.69277664 43.92816315 30.6885318 43.02070618 30.68415833 C40.21864741 30.66741918 37.41731843 30.62977603 34.61547852 30.59155273 C32.71119206 30.57649973 30.80689428 30.5628124 28.90258789 30.55053711 C24.24410529 30.51753127 19.58616547 30.46578202 14.92797852 30.40405273 C14.94892578 31.58435059 14.96987305 32.76464844 14.99145508 33.98071289 C15.06405621 38.3751199 15.10985122 42.76947427 15.14770508 47.16430664 C15.16777481 49.06348598 15.19503703 50.96260388 15.22973633 52.86157227 C15.27845961 55.59724113 15.30099359 58.33209044 15.31860352 61.06811523 C15.33924866 61.91209869 15.3598938 62.75608215 15.38116455 63.62564087 C15.38321137 69.04800394 14.53736103 72.10191436 10.92797852 76.40405273 C5.70537994 80.46035672 0.27457709 80.17802817 -6.07202148 79.40405273 C-10.68498946 77.21896264 -12.80955632 74.91110463 -15.07202148 70.40405273 C-15.45970154 67.52735901 -15.45970154 67.52735901 -15.47607422 64.33203125 C-15.48875839 63.13050919 -15.50144257 61.92898712 -15.51451111 60.6910553 C-15.51157547 59.40138351 -15.50863983 58.11171173 -15.50561523 56.78295898 C-15.51018039 55.4368412 -15.51548696 54.09072574 -15.52149963 52.74461365 C-15.53041798 49.92779046 -15.52802267 47.11125097 -15.51806641 44.29443359 C-15.50658076 40.69525794 -15.52678679 37.09706403 -15.55598354 33.49801731 C-15.57438325 30.71919089 -15.57404567 27.94059809 -15.56834602 25.161726 C-15.56811928 23.19311732 -15.58498328 21.22453048 -15.60215759 19.2559967 C-15.5140101 7.93635466 -15.5140101 7.93635466 -11.07202148 3.40405273 C-7.26986729 0.68193654 -4.65108842 0.02383192 0 0 Z " fill="#00B3BB" transform="translate(15.072021484375,-0.404052734375)"/>
<path d="M0 0 C0 31.02 0 62.04 0 94 C-12.83202286 94 -23.71134088 89.58003948 -33.25 80.96875 C-43.15299444 70.61561945 -47.54595907 58.07220561 -47.30859375 43.9140625 C-46.32109418 31.38906793 -40.87559337 20.35654583 -31.8125 11.6875 C-22.38189071 3.85011651 -12.16668427 0 0 0 Z " fill="#FEE278" transform="translate(160,257)"/>
<path d="M0 0 C0 23.76 0 47.52 0 72 C-23.76 72 -47.52 72 -72 72 C-67.90088082 67.21769429 -63.81290822 62.66812396 -59.36791992 58.23852539 C-58.73466797 57.60352112 -58.10141602 56.96851685 -57.44897461 56.31427002 C-55.37862847 54.23956192 -53.30469346 52.16848613 -51.23046875 50.09765625 C-49.78397758 48.65049092 -48.33763484 47.20317722 -46.89143372 45.75572205 C-43.87301051 42.73582998 -40.85279922 39.71774087 -37.83129883 36.70092773 C-33.94943448 32.82479097 -30.07211784 28.94414087 -26.19610119 25.06215763 C-23.21691365 22.07936867 -20.23536357 19.09895051 -17.25307655 16.11926079 C-15.82132782 14.68818091 -14.39032642 13.25635296 -12.96007347 11.82377815 C-10.97081948 9.83200123 -8.97841734 7.84342959 -6.98510742 5.85571289 C-6.39033096 5.2589122 -5.7955545 4.66211151 -5.18275452 4.04722595 C-1.11426854 0 -1.11426854 0 0 0 Z " fill="#BCE65E" transform="translate(160,409)"/>
<path d="M0 0 C1.26263672 -0.01998047 2.52527344 -0.03996094 3.82617188 -0.06054688 C15.52455592 -0.05437359 15.52455592 -0.05437359 20.0625 4.4375 C24.11880398 9.66009857 23.83647544 15.09090142 23.0625 21.4375 C20.87860301 26.0479492 18.57434003 28.18657671 14.0625 30.4375 C9.43472664 31.05203622 4.78934853 30.90111086 0.125 30.875 C-1.13763672 30.89498047 -2.40027344 30.91496094 -3.70117188 30.93554688 C-15.39955592 30.92937359 -15.39955592 30.92937359 -19.9375 26.4375 C-23.99380398 21.21490143 -23.71147544 15.78409858 -22.9375 9.4375 C-18.10736291 -0.75945608 -10.00675986 -0.05601749 0 0 Z " fill="#D8E5FB" transform="translate(375.9375,481.5625)"/>
<path d="M0 0 C4.6104492 2.18389699 6.74907671 4.48815997 9 9 C9.61453622 13.62777336 9.46361086 18.27315147 9.4375 22.9375 C9.4674707 24.83145508 9.4674707 24.83145508 9.49804688 26.76367188 C9.49187359 38.46205592 9.49187359 38.46205592 5 43 C-0.22259857 47.05630398 -5.65340142 46.77397544 -12 46 C-16.6104492 43.81610301 -18.74907671 41.51184003 -21 37 C-21.61453622 32.37222664 -21.46361086 27.72684853 -21.4375 23.0625 C-21.45748047 21.79986328 -21.47746094 20.53722656 -21.49804688 19.23632812 C-21.49187359 7.53794408 -21.49187359 7.53794408 -17 3 C-11.77740143 -1.05630398 -6.34659858 -0.77397544 0 0 Z " fill="#D8E5FB" transform="translate(503,353)"/>
<path d="M0 0 C4.6104492 2.18389699 6.74907671 4.48815997 9 9 C9.61453622 13.62777336 9.46361086 18.27315147 9.4375 22.9375 C9.4674707 24.83145508 9.4674707 24.83145508 9.49804688 26.76367188 C9.49187359 38.46205592 9.49187359 38.46205592 5 43 C-0.22259857 47.05630398 -5.65340142 46.77397544 -12 46 C-16.6104492 43.81610301 -18.74907671 41.51184003 -21 37 C-21.61453622 32.37222664 -21.46361086 27.72684853 -21.4375 23.0625 C-21.45748047 21.79986328 -21.47746094 20.53722656 -21.49804688 19.23632812 C-21.49187359 7.53794408 -21.49187359 7.53794408 -17 3 C-11.77740143 -1.05630398 -6.34659858 -0.77397544 0 0 Z " fill="#D8E5FB" transform="translate(503,273)"/>
<path d="M0 0 C4.6104492 2.18389699 6.74907671 4.48815997 9 9 C9.61453622 13.62777336 9.46361086 18.27315147 9.4375 22.9375 C9.4674707 24.83145508 9.4674707 24.83145508 9.49804688 26.76367188 C9.49187359 38.46205592 9.49187359 38.46205592 5 43 C-0.22259857 47.05630398 -5.65340142 46.77397544 -12 46 C-16.6104492 43.81610301 -18.74907671 41.51184003 -21 37 C-21.61453622 32.37222664 -21.46361086 27.72684853 -21.4375 23.0625 C-21.45748047 21.79986328 -21.47746094 20.53722656 -21.49804688 19.23632812 C-21.49187359 7.53794408 -21.49187359 7.53794408 -17 3 C-11.77740143 -1.05630398 -6.34659858 -0.77397544 0 0 Z " fill="#D8E5FB" transform="translate(503,193)"/>
<path d="M0 0 C4.6104492 2.18389699 6.74907671 4.48815997 9 9 C9.61453622 13.62777336 9.46361086 18.27315147 9.4375 22.9375 C9.4674707 24.83145508 9.4674707 24.83145508 9.49804688 26.76367188 C9.49187359 38.46205592 9.49187359 38.46205592 5 43 C-0.22259857 47.05630398 -5.65340142 46.77397544 -12 46 C-16.6104492 43.81610301 -18.74907671 41.51184003 -21 37 C-21.61453622 32.37222664 -21.46361086 27.72684853 -21.4375 23.0625 C-21.45748047 21.79986328 -21.47746094 20.53722656 -21.49804688 19.23632812 C-21.49187359 7.53794408 -21.49187359 7.53794408 -17 3 C-11.77740143 -1.05630398 -6.34659858 -0.77397544 0 0 Z " fill="#D8E5FB" transform="translate(503,113)"/>
<path d="M0 0 C4.6104492 2.18389699 6.74907671 4.48815997 9 9 C9.61453622 13.62777336 9.46361086 18.27315147 9.4375 22.9375 C9.4674707 24.83145508 9.4674707 24.83145508 9.49804688 26.76367188 C9.49187359 38.46205592 9.49187359 38.46205592 5 43 C-0.22259857 47.05630398 -5.65340142 46.77397544 -12 46 C-16.6104492 43.81610301 -18.74907671 41.51184003 -21 37 C-21.61453622 32.37222664 -21.46361086 27.72684853 -21.4375 23.0625 C-21.45748047 21.79986328 -21.47746094 20.53722656 -21.49804688 19.23632812 C-21.49187359 7.53794408 -21.49187359 7.53794408 -17 3 C-11.77740143 -1.05630398 -6.34659858 -0.77397544 0 0 Z " fill="#EDF3FF" transform="translate(21,113)"/>
<path d="M0 0 C1.26263672 -0.01998047 2.52527344 -0.03996094 3.82617188 -0.06054688 C15.52455592 -0.05437359 15.52455592 -0.05437359 20.0625 4.4375 C24.11880398 9.66009857 23.83647544 15.09090142 23.0625 21.4375 C20.87860301 26.0479492 18.57434003 28.18657671 14.0625 30.4375 C9.43472664 31.05203622 4.78934853 30.90111086 0.125 30.875 C-1.13763672 30.89498047 -2.40027344 30.91496094 -3.70117188 30.93554688 C-15.39955592 30.92937359 -15.39955592 30.92937359 -19.9375 26.4375 C-23.99380398 21.21490143 -23.71147544 15.78409858 -22.9375 9.4375 C-18.10736291 -0.75945608 -10.00675986 -0.05601749 0 0 Z " fill="#D8E5FB" transform="translate(375.9375,-0.4375)"/>
<path d="M0 0 C1.26263672 -0.01998047 2.52527344 -0.03996094 3.82617188 -0.06054688 C15.52455592 -0.05437359 15.52455592 -0.05437359 20.0625 4.4375 C24.11880398 9.66009857 23.83647544 15.09090142 23.0625 21.4375 C20.87860301 26.0479492 18.57434003 28.18657671 14.0625 30.4375 C9.43472664 31.05203622 4.78934853 30.90111086 0.125 30.875 C-1.13763672 30.89498047 -2.40027344 30.91496094 -3.70117188 30.93554688 C-15.39955592 30.92937359 -15.39955592 30.92937359 -19.9375 26.4375 C-23.99380398 21.21490143 -23.71147544 15.78409858 -22.9375 9.4375 C-18.10736291 -0.75945608 -10.00675986 -0.05601749 0 0 Z " fill="#D8E5FB" transform="translate(295.9375,-0.4375)"/>
<path d="M0 0 C1.26263672 -0.01998047 2.52527344 -0.03996094 3.82617188 -0.06054688 C15.52455592 -0.05437359 15.52455592 -0.05437359 20.0625 4.4375 C24.11880398 9.66009857 23.83647544 15.09090142 23.0625 21.4375 C20.87860301 26.0479492 18.57434003 28.18657671 14.0625 30.4375 C9.43472664 31.05203622 4.78934853 30.90111086 0.125 30.875 C-1.13763672 30.89498047 -2.40027344 30.91496094 -3.70117188 30.93554688 C-15.39955592 30.92937359 -15.39955592 30.92937359 -19.9375 26.4375 C-23.99380398 21.21490143 -23.71147544 15.78409858 -22.9375 9.4375 C-18.10736291 -0.75945608 -10.00675986 -0.05601749 0 0 Z " fill="#EDF3FF" transform="translate(215.9375,-0.4375)"/>
<path d="M0 0 C1.26263672 -0.01998047 2.52527344 -0.03996094 3.82617188 -0.06054688 C15.52455592 -0.05437359 15.52455592 -0.05437359 20.0625 4.4375 C24.11880398 9.66009857 23.83647544 15.09090142 23.0625 21.4375 C20.87860301 26.0479492 18.57434003 28.18657671 14.0625 30.4375 C9.43472664 31.05203622 4.78934853 30.90111086 0.125 30.875 C-1.13763672 30.89498047 -2.40027344 30.91496094 -3.70117188 30.93554688 C-15.39955592 30.92937359 -15.39955592 30.92937359 -19.9375 26.4375 C-23.99380398 21.21490143 -23.71147544 15.78409858 -22.9375 9.4375 C-18.10736291 -0.75945608 -10.00675986 -0.05601749 0 0 Z " fill="#EDF3FF" transform="translate(135.9375,-0.4375)"/>
</svg>
