<?xml version="1.0" encoding="UTF-8"?>
<svg version="1.1" xmlns="http://www.w3.org/2000/svg" width="512" height="512">
<path d="M0 0 C82.5 0 165 0 250 0 C250 82.5 250 165 250 250 C167.5 250 85 250 0 250 C0 167.5 0 85 0 0 Z " fill="#1BC667" transform="translate(131,131)"/>
<path d="M0 0 C82.5 0 165 0 250 0 C250 48.18 250 96.36 250 146 C245.65466327 142.27542566 241.64629838 138.76023486 237.67895508 134.71313477 C237.19667953 134.22297379 236.71440399 133.73281281 236.21751404 133.22779846 C235.18473259 132.17799506 234.15303597 131.12712347 233.12235451 130.07525826 C230.92841621 127.83884793 228.72478623 125.61208942 226.52176189 123.38463497 C222.43286871 119.25015188 218.34816539 115.11171495 214.27954102 110.95727539 C211.43578886 108.05428957 208.58010716 105.16353098 205.71603966 102.28059196 C204.62901925 101.18181177 203.54655402 100.07850589 202.46875954 98.97067451 C200.96806714 97.42916935 199.45268339 95.9037171 197.93286133 94.38110352 C197.07461258 93.5087355 196.21636383 92.63636749 195.33210754 91.73756409 C193.2166546 89.74544562 193.2166546 89.74544562 191.03378963 90.23440361 C187.58630951 91.5321673 185.29741635 94.31443774 182.76269531 96.89672852 C182.14763626 97.51134949 181.53257721 98.12597046 180.89888 98.75921631 C178.8681032 100.79208277 176.84815814 102.83536821 174.828125 104.87890625 C173.42202131 106.29060524 172.01525372 107.70164324 170.60784912 109.11204529 C166.90554505 112.82580321 163.21233831 116.54848218 159.52093506 120.27307129 C155.75246804 124.07222731 151.97549324 127.86290403 148.19921875 131.65429688 C140.79111324 139.0945761 133.39258788 146.54430466 126 154 C121.94378003 152.39004265 119.26739702 149.50111333 116.28515625 146.43286133 C115.72529022 145.86525589 115.16542419 145.29765045 114.58859253 144.71284485 C113.37624635 143.48287368 112.16612169 142.25070974 110.95797729 141.0166111 C109.04684845 139.06605682 107.12828088 137.12312188 105.20727539 135.18229675 C99.74748083 129.66444737 94.29755011 124.13700683 88.86230469 118.5949707 C85.53559538 115.20397222 82.19692922 111.82514873 78.85031128 108.45380211 C77.5761592 107.16535549 76.30670488 105.87224607 75.04202271 104.57450294 C73.27751105 102.76449217 71.49827705 100.97029614 69.71484375 99.17895508 C69.1931662 98.63615906 68.67148865 98.09336304 68.13400269 97.53411865 C65.5059292 94.83605606 65.5059292 94.83605606 62.00871277 93.83071899 C58.94902136 95.61177953 56.60085901 98.01780693 54.14575195 100.52954102 C53.57131348 101.10514771 52.996875 101.68075439 52.4050293 102.27380371 C50.50905486 104.17696305 48.62381609 106.09040833 46.73828125 108.00390625 C45.4243269 109.32599519 44.10963472 110.64735121 42.79423523 111.96800232 C39.33415114 115.44520829 35.88273498 118.93088705 32.43347168 122.41882324 C26.90360658 128.00788575 21.36097454 133.58428194 15.81786156 139.16020012 C13.87790722 141.11417458 11.9417811 143.07188104 10.00617981 145.03016663 C8.82622179 146.22014202 7.64618757 147.41004185 6.46606445 148.59985352 C5.92425034 149.14997604 5.38243622 149.70009857 4.82420349 150.26689148 C3.56834426 151.53030792 2.28693843 152.76825612 1 154 C0.67 154 0.34 154 0 154 C0 103.18 0 52.36 0 0 Z " fill="#EBF2FD" transform="translate(131,131)"/>
<path d="M0 0 C11.86118885 5.97016318 22.40876415 16.28562887 32.2442627 25.06628418 C32.95133865 25.69535172 33.65841461 26.32441925 34.38691711 26.97254944 C54.75510897 45.33767107 64.57305385 61.72920425 66.1318512 89.3510685 C67.0982731 111.83540679 63.8733686 134.83033452 61.9942627 157.00378418 C20.7442627 157.00378418 -20.5057373 157.00378418 -63.0057373 157.00378418 C-70.80744517 66.58071105 -70.80744517 66.58071105 -51.53984642 43.28477669 C-45.6860907 36.54899487 -39.40059422 30.39084528 -32.7557373 24.44128418 C-32.03444767 23.79200077 -31.31315804 23.14271736 -30.57001114 22.4737587 C-23.31767676 15.99432152 -15.86582253 9.76989049 -8.05944824 3.96643066 C-7.22545612 3.33134189 -7.22545612 3.33134189 -6.37461567 2.68342304 C-2.64867827 0.0049972 -2.64867827 0.0049972 0 0 Z " fill="#ACF745" transform="translate(194.0057373046875,223.9962158203125)"/>
<path d="M0 0 C41.25 0 82.5 0 125 0 C125 48.18 125 96.36 125 146 C120.65466327 142.27542566 116.64629838 138.76023486 112.67895508 134.71313477 C112.19667953 134.22297379 111.71440399 133.73281281 111.21751404 133.22779846 C110.18473259 132.17799506 109.15303597 131.12712347 108.12235451 130.07525826 C105.92841621 127.83884793 103.72478623 125.61208942 101.52176189 123.38463497 C97.43286871 119.25015188 93.34816539 115.11171495 89.27954102 110.95727539 C86.43578886 108.05428957 83.58010716 105.16353098 80.71603966 102.28059196 C79.62901925 101.18181177 78.54655402 100.07850589 77.46875954 98.97067451 C75.96806714 97.42916935 74.45268339 95.9037171 72.93286133 94.38110352 C72.07461258 93.5087355 71.21636383 92.63636749 70.33210754 91.73756409 C68.21660023 89.74541614 68.21660023 89.74541614 66.03336906 90.23440361 C62.58887646 91.53131087 60.30733746 94.3134357 57.77856445 96.89672852 C57.16511169 97.51134949 56.55165894 98.12597046 55.9196167 98.75921631 C53.89378717 100.79223351 51.87867859 102.83555134 49.86328125 104.87890625 C48.45964556 106.29067608 47.05527249 107.70171315 45.65019226 109.11204529 C41.9533779 112.8259849 38.26522433 116.54840276 34.57922363 120.27307129 C28.67034338 126.24113899 22.74870849 132.19654615 16.82658958 138.15147209 C14.75368258 140.23840074 12.68459998 142.3290638 10.61604309 144.42030334 C9.35519312 145.69117068 8.09426697 146.96196245 6.83325195 148.23266602 C6.25403488 148.8201915 5.67481781 149.40771698 5.07804871 150.01304626 C3.73757616 151.36106875 2.37158425 152.68364598 1 154 C0.67 154 0.34 154 0 154 C0 126.28 0 98.56 0 70 C4.95 70 9.9 70 15 70 C15 59.77 15 49.54 15 39 C10.05 39 5.1 39 0 39 C0 26.13 0 13.26 0 0 Z " fill="#CFE4FB" transform="translate(256,131)"/>
<path d="M0 0 C3.70044944 1.549832 6.04581087 3.80394671 8.86035156 6.63330078 C9.32910706 7.10176422 9.79786255 7.57022766 10.28082275 8.05288696 C11.82221432 9.59566695 13.35640873 11.14539964 14.890625 12.6953125 C15.96064255 13.76906192 17.03110381 14.84236933 18.10198975 15.91525269 C20.91431879 18.73520452 23.72058889 21.56111154 26.52563477 24.38830566 C29.39105523 27.2742137 32.26217168 30.15444257 35.1328125 33.03515625 C40.76079512 38.68456489 46.38238884 44.34027825 52 50 C50.3413812 53.52344644 48.43342692 55.79901878 45.6484375 58.546875 C44.79765625 59.39121094 43.946875 60.23554688 43.0703125 61.10546875 C41.73613281 62.41451172 41.73613281 62.41451172 40.375 63.75 C39.4778125 64.63816406 38.580625 65.52632813 37.65625 66.44140625 C35.44192996 68.63216969 33.22307565 70.81812763 31 73 C27.2341894 69.81968878 23.51561011 66.64858175 20.0625 63.125 C19.47597656 62.52945313 18.88945313 61.93390625 18.28515625 61.3203125 C17.86105469 60.88460937 17.43695313 60.44890625 17 60 C18.77120638 86.99562822 27.23892374 109.50031467 45 130 C45.65484375 130.75667969 46.3096875 131.51335937 46.984375 132.29296875 C63.24007844 149.69490768 89.24213988 161.93331705 112.95744324 163.21365356 C117.61017747 163.34915218 122.26358978 163.38158912 126.91796875 163.4140625 C128.6286153 163.43280788 130.33925293 163.45238371 132.04988098 163.4727478 C136.51639508 163.52371943 140.98293905 163.56353051 145.44958496 163.60089111 C150.02180149 163.64115206 154.59389757 163.69214274 159.16601562 163.7421875 C168.1106002 163.83853187 177.05523599 163.92207345 186 164 C186 174.23 186 184.46 186 195 C175.91472286 195.09111091 165.82972816 195.1641766 155.74412918 195.20724869 C151.05875355 195.2279424 146.37367899 195.25591758 141.68847656 195.30175781 C137.14965701 195.3458775 132.61112319 195.36927316 128.07210541 195.37950897 C126.35811628 195.38678385 124.64413911 195.4009809 122.93027496 195.42292023 C86.25857775 195.87280387 52.26320036 181.41664938 25.82666016 156.16088867 C-0.87565593 130.05457456 -11.22967848 97.2171338 -16 61 C-19.96 64.96 -23.92 68.92 -28 73 C-33.25174926 68.61557474 -38.13222473 63.99157907 -42.9375 59.125 C-43.62134766 58.43664062 -44.30519531 57.74828125 -45.00976562 57.0390625 C-46.67551464 55.36166489 -48.3388622 53.68196209 -50 52 C-48.450168 48.29955056 -46.19605329 45.95418913 -43.36669922 43.13964844 C-42.89823578 42.67089294 -42.42977234 42.20213745 -41.94711304 41.71917725 C-40.40433305 40.17778568 -38.85460036 38.64359127 -37.3046875 37.109375 C-36.23093808 36.03935745 -35.15763067 34.96889619 -34.08474731 33.89801025 C-31.26479548 31.08568121 -28.43888846 28.27941111 -25.61169434 25.47436523 C-22.7257863 22.60894477 -19.84555743 19.73782832 -16.96484375 16.8671875 C-11.31543511 11.23920488 -5.65972175 5.61761116 0 0 Z " fill="#B3D4DF" transform="translate(50,317)"/>
<path d="M0 0 C10.08527714 -0.09111091 20.17027184 -0.1641766 30.25587082 -0.20724869 C34.94124645 -0.2279424 39.62632101 -0.25591758 44.31152344 -0.30175781 C48.85034299 -0.3458775 53.38887681 -0.36927316 57.92789459 -0.37950897 C59.64188372 -0.38678385 61.35586089 -0.4009809 63.06972504 -0.42292023 C87.47291996 -0.72229547 109.5852557 5.40583933 131 17 C131.91523438 17.49371094 132.83046875 17.98742187 133.7734375 18.49609375 C165.02319637 36.34587511 187.41184234 67.42737581 196.83203125 101.9140625 C199.42848051 112.41699258 200.58913704 123.28847621 202 134 C207.94 128.06 207.94 128.06 214 122 C219.25174926 126.38442526 224.13222473 131.00842093 228.9375 135.875 C229.62134766 136.56335938 230.30519531 137.25171875 231.00976562 137.9609375 C232.67551464 139.63833511 234.3388622 141.31803791 236 143 C234.450168 146.70044944 232.19605329 149.04581087 229.36669922 151.86035156 C228.89823578 152.32910706 228.42977234 152.79786255 227.94711304 153.28082275 C226.40433305 154.82221432 224.85460036 156.35640873 223.3046875 157.890625 C222.23093808 158.96064255 221.15763067 160.03110381 220.08474731 161.10198975 C217.26479548 163.91431879 214.43888846 166.72058889 211.61169434 169.52563477 C208.7257863 172.39105523 205.84555743 175.26217168 202.96484375 178.1328125 C197.31543511 183.76079512 191.65972175 189.38238884 186 195 C182.29955056 193.450168 179.95418913 191.19605329 177.13964844 188.36669922 C176.67089294 187.89823578 176.20213745 187.42977234 175.71917725 186.94711304 C174.17778568 185.40433305 172.64359127 183.85460036 171.109375 182.3046875 C170.03935745 181.23093808 168.96889619 180.15763067 167.89801025 179.08474731 C165.08568121 176.26479548 162.27941111 173.43888846 159.47436523 170.61169434 C156.60894477 167.7257863 153.73782832 164.84555743 150.8671875 161.96484375 C145.23920488 156.31543511 139.61761116 150.65972175 134 145 C135.6586188 141.47655356 137.56657308 139.20098122 140.3515625 136.453125 C141.20234375 135.60878906 142.053125 134.76445312 142.9296875 133.89453125 C143.81914062 133.02183594 144.70859375 132.14914063 145.625 131.25 C146.5221875 130.36183594 147.419375 129.47367188 148.34375 128.55859375 C150.55807004 126.36783031 152.77692435 124.18187237 155 122 C158.7658106 125.18031122 162.48438989 128.35141825 165.9375 131.875 C166.52402344 132.47054687 167.11054688 133.06609375 167.71484375 133.6796875 C168.35099609 134.33324219 168.35099609 134.33324219 169 135 C167.22879362 108.00437178 158.76107626 85.49968533 141 65 C140.34515625 64.24332031 139.6903125 63.48664062 139.015625 62.70703125 C122.75992156 45.30509232 96.75786012 33.06668295 73.04255676 31.78634644 C68.38982253 31.65084782 63.73641022 31.61841088 59.08203125 31.5859375 C57.3713847 31.56719212 55.66074707 31.54761629 53.95011902 31.5272522 C49.48360492 31.47628057 45.01706095 31.43646949 40.55041504 31.39910889 C35.97819851 31.35884794 31.40610243 31.30785726 26.83398438 31.2578125 C17.8893998 31.16146813 8.94476401 31.07792655 0 31 C0 20.77 0 10.54 0 0 Z " fill="#91B0C5" transform="translate(276,0)"/>
<path d="M0 0 C0 31.02 0 62.04 0 94 C-31.35 94 -62.7 94 -95 94 C-88.24947824 86.12439128 -88.24947824 86.12439128 -84.98907471 82.85536194 C-84.25168564 82.11370789 -83.51429657 81.37205383 -82.75456238 80.60792542 C-81.57136162 79.42540443 -81.57136162 79.42540443 -80.36425781 78.21899414 C-79.09492149 76.9446199 -79.09492149 76.9446199 -77.79994202 75.64450073 C-75.49845685 73.33519116 -73.19474807 71.02813235 -70.88966846 68.72241139 C-69.44881171 67.28084082 -68.00867054 65.83855932 -66.56877899 64.3960247 C-61.54397503 59.3620011 -56.51662712 54.33053462 -51.48681641 49.30151367 C-46.79809181 44.61339238 -42.11500228 39.91969307 -37.43445516 35.22340876 C-33.40986718 31.18577162 -29.38146017 27.15197227 -25.35002208 23.12117475 C-22.94438507 20.71579305 -20.5403365 18.30887396 -18.14011383 15.89808846 C-15.47082209 13.21906608 -12.79535014 10.54637429 -10.11816406 7.87524414 C-9.32126663 7.0727272 -8.5243692 6.27021027 -7.70332336 5.44337463 C-6.61415871 4.36050171 -6.61415871 4.36050171 -5.50299072 3.25575256 C-4.8710593 2.62327638 -4.23912788 1.99080019 -3.58804703 1.33915806 C-2 0 -2 0 0 0 Z " fill="#6DE348" transform="translate(256,287)"/>
<path d="M0 0 C9.9 0 19.8 0 30 0 C30 9.9 30 19.8 30 30 C20.1 30 10.2 30 0 30 C0 20.1 0 10.2 0 0 Z " fill="#FCE706" transform="translate(241,170)"/>
<path d="M0 0 C4.95 0 9.9 0 15 0 C15 9.57 15 19.14 15 29 C10.05 29 5.1 29 0 29 C0 19.43 0 9.86 0 0 Z " fill="#FFCD00" transform="translate(256,171)"/>
</svg>
